<?xml version="1.0" standalone="no"?>
<!DOCTYPE svg PUBLIC "-//W3C//DTD SVG 20010904//EN"
 "http://www.w3.org/TR/2001/REC-SVG-20010904/DTD/svg10.dtd">
<svg version="1.0" xmlns="http://www.w3.org/2000/svg"
 width="474.000000pt" height="593.000000pt" viewBox="0 0 474.000000 593.000000"
 preserveAspectRatio="xMidYMid meet">

<g transform="translate(0.000000,593.000000) scale(0.100000,-0.100000)"
fill="#000000" stroke="none">
<path d="M2874 5490 c-23 -11 -47 -26 -54 -35 -15 -18 -7 -54 19 -86 l19 -24
36 19 c20 11 36 25 36 33 0 15 -9 16 -29 4 -17 -11 -43 -3 -35 10 12 21 84 6
84 -17 0 -21 -60 -78 -103 -98 -48 -22 -58 -14 -24 18 15 14 23 27 18 31 -5 3
-12 -1 -15 -7 -3 -10 -9 -8 -19 5 -8 9 -26 17 -41 17 -23 0 -26 4 -26 35 0 42
-15 46 -23 7 -4 -22 -14 -31 -41 -39 -42 -13 -44 -6 -14 33 21 26 21 27 3 20
-71 -28 -113 -37 -168 -37 -100 -1 -242 7 -253 14 -6 3 -37 0 -70 -8 -72 -17
-77 -18 -69 -5 3 5 0 7 -8 4 -8 -3 -50 -6 -93 -8 -76 -3 -240 -24 -351 -45
-102 -20 -302 -120 -426 -215 -37 -27 -44 -29 -155 -32 -64 -2 -149 -9 -189
-15 -40 -7 -89 -9 -110 -6 -29 5 -51 -1 -107 -27 -90 -43 -133 -88 -190 -201
-26 -49 -66 -126 -90 -170 -32 -60 -46 -100 -56 -160 -24 -148 -14 -205 46
-268 23 -25 25 -33 17 -60 -11 -39 -46 -45 -51 -9 -2 15 2 22 12 22 9 0 16 5
16 10 0 16 -42 27 -83 22 -44 -5 -57 -27 -57 -96 0 -80 83 -175 155 -177 17 0
39 -4 50 -8 18 -7 17 -9 -12 -24 -18 -10 -43 -17 -56 -17 -28 0 -88 -38 -95
-60 -3 -10 4 -7 20 8 18 16 37 22 69 22 25 0 49 -3 52 -6 4 -4 -14 -20 -38
-35 -51 -32 -54 -45 -30 -127 l16 -51 -33 -58 c-18 -32 -67 -104 -109 -159
-42 -56 -80 -116 -84 -135 -4 -18 -22 -67 -40 -108 -17 -42 -35 -89 -40 -106
-11 -43 -6 -302 6 -350 22 -80 145 -275 174 -275 12 0 3 19 -25 50 -16 18 -30
41 -30 49 -1 25 -27 54 -41 45 -8 -4 -10 -3 -5 5 4 6 0 18 -8 26 -8 9 -18 32
-21 53 -4 20 -10 46 -15 57 -8 19 -22 163 -23 235 0 19 6 49 13 65 7 17 14 44
16 60 4 47 8 57 37 102 15 24 27 50 27 59 0 10 3 14 7 11 3 -4 13 2 21 14 11
17 12 23 2 32 -7 7 -10 7 -7 2 3 -6 2 -17 -4 -25 -7 -12 -9 -10 -9 8 0 12 7
25 15 28 8 3 17 15 21 26 3 11 8 17 11 15 2 -3 0 -15 -7 -26 -6 -12 -7 -21 -2
-21 4 0 22 28 38 62 26 56 50 91 93 135 11 11 16 12 22 2 7 -13 -4 -39 -32
-74 -36 -45 -78 -185 -79 -261 0 -35 -8 -51 -47 -99 -55 -66 -59 -83 -55 -208
2 -38 8 -53 29 -74 16 -15 21 -22 13 -18 -12 7 -13 6 -4 -6 6 -8 20 -39 30
-69 10 -30 23 -58 27 -61 5 -4 6 -16 2 -28 -5 -15 -1 -23 12 -28 25 -8 63 -44
63 -58 0 -6 16 -30 35 -52 19 -23 35 -49 35 -58 0 -9 4 -14 9 -10 6 3 15 -4
21 -15 6 -11 17 -20 26 -20 8 0 24 -16 35 -35 12 -19 24 -35 27 -35 10 0 98
-80 89 -80 -4 0 11 -18 35 -40 24 -22 39 -40 35 -40 -5 0 5 -12 22 -26 17 -14
31 -32 31 -39 0 -8 10 -22 23 -32 34 -27 45 -48 21 -39 -12 4 -9 -2 11 -20 17
-15 22 -24 13 -21 -24 9 -23 3 11 -34 26 -28 38 -59 43 -109 1 -8 8 -20 17
-27 12 -9 13 -12 2 -13 -8 0 -11 -6 -7 -17 4 -10 -6 -2 -22 17 l-30 35 20 -75
c36 -141 38 -184 11 -295 -15 -61 -23 -118 -20 -145 4 -48 71 -206 97 -228 8
-8 9 -11 3 -7 -7 3 -18 1 -25 -5 -7 -6 -22 -17 -32 -24 -18 -13 -17 -17 27
-122 80 -192 92 -242 90 -379 -1 -66 -4 -131 -5 -145 -3 -21 7 -30 62 -62 130
-75 166 -86 163 -50 -2 12 2 22 8 22 5 0 7 4 4 10 -3 5 -1 10 4 10 6 0 11 -5
11 -11 0 -5 4 -8 9 -5 5 3 14 -1 21 -9 14 -17 14 -17 -19 -31 -22 -9 -21 -10
13 -10 20 0 36 3 36 8 0 4 7 4 17 1 12 -5 14 -3 8 7 -5 9 -4 11 3 6 7 -4 12
-18 12 -31 0 -24 25 -45 53 -45 8 0 15 6 14 13 0 6 1 33 1 60 2 40 5 47 23 47
11 0 28 4 38 10 16 8 18 5 15 -23 -2 -18 -5 -56 -7 -85 l-4 -53 61 -31 c76
-39 181 -78 204 -77 10 0 6 4 -10 11 -16 5 -28 16 -28 24 0 9 -4 13 -9 10 -5
-4 -22 -1 -38 5 -26 11 -33 13 -57 17 -5 1 -2 10 5 19 10 12 10 15 1 9 -7 -4
-27 -3 -45 4 -32 10 -34 13 -35 63 -1 28 3 59 9 67 7 11 9 4 5 -30 -3 -25 -2
-36 1 -26 10 36 26 46 47 28 18 -16 18 -16 11 8 -7 22 -6 23 8 12 9 -8 20 -11
25 -8 6 3 12 -4 15 -15 3 -12 10 -18 16 -14 6 3 9 11 6 16 -4 5 -1 9 4 9 11 0
15 -15 11 -35 -1 -5 2 -7 6 -3 4 4 14 2 22 -5 13 -11 14 -9 2 13 l-13 25 23
-20 23 -20 -7 25 c-3 14 -3 20 0 13 3 -7 12 -9 20 -6 8 3 14 1 14 -4 0 -6 12
-15 26 -22 26 -11 26 -14 20 -68 -10 -86 -16 -105 -33 -99 -8 3 -12 2 -9 -3 3
-4 29 -11 58 -14 29 -3 69 -8 88 -12 32 -5 33 -5 10 6 -64 28 -75 36 -78 57
-2 12 2 22 8 22 6 0 8 -5 4 -12 -4 -7 -3 -8 5 -4 9 6 9 11 1 21 -8 9 -8 15 0
20 5 3 13 0 16 -9 3 -9 12 -12 22 -9 9 4 14 3 10 -2 -4 -4 -3 -14 3 -22 8 -8
8 -13 1 -13 -6 0 -12 6 -14 12 -3 9 -9 8 -21 -4 -16 -15 -15 -16 16 -13 17 1
41 6 52 10 16 6 17 5 5 -4 -13 -9 -13 -12 -1 -20 7 -5 11 -14 7 -20 -5 -7 -1
-9 8 -5 10 4 18 -1 22 -11 5 -13 9 -14 15 -3 5 7 9 18 9 23 0 6 -4 4 -9 -4 -6
-9 -9 -5 -9 13 1 15 4 29 9 32 5 3 6 -2 3 -10 -3 -9 -1 -16 5 -16 10 0 13 6
15 39 1 8 8 16 16 18 12 4 12 3 1 -5 -9 -7 -10 -12 -2 -16 6 -4 11 -12 11 -17
0 -6 -5 -7 -10 -4 -5 3 -10 -3 -10 -14 0 -14 5 -19 15 -15 24 9 77 -16 71 -33
-4 -9 -1 -13 6 -10 8 2 12 17 10 36 -1 17 3 31 8 31 6 0 8 12 6 28 -5 26 -4
26 10 7 8 -11 24 -46 36 -78 16 -44 23 -55 30 -43 5 8 15 13 23 10 8 -4 12
-10 9 -15 -3 -5 217 -9 530 -9 410 1 536 4 539 13 4 9 6 9 6 -1 1 -9 52 -12
228 -12 194 1 230 3 245 17 11 10 18 12 18 5 0 -7 -5 -12 -12 -12 -6 0 -8 -3
-5 -6 4 -4 14 -1 24 7 11 9 14 10 9 2 -9 -17 66 -18 96 -2 15 8 19 8 14 0 -12
-18 35 -13 58 6 20 17 20 17 7 0 -12 -16 -10 -17 30 -17 28 0 39 3 31 9 -10 6
-8 10 8 14 16 4 20 2 16 -9 -4 -12 18 -14 138 -14 134 0 144 1 149 19 3 11 20
26 38 34 19 8 51 30 71 48 21 19 68 57 104 84 103 77 131 103 143 133 7 18 11
83 9 184 l-3 157 -40 -48 c-53 -63 -129 -116 -152 -105 -26 11 -37 11 -50 1
-7 -5 -13 -6 -13 -2 0 4 -14 -5 -30 -19 -17 -14 -37 -23 -45 -20 -8 4 -15 2
-15 -4 0 -10 -10 -8 -80 16 -8 3 -18 5 -21 4 -4 -1 -10 15 -14 36 -4 24 -20
49 -46 74 -36 34 -61 45 -144 62 l-30 6 27 -17 c31 -20 55 -62 35 -64 -30 -3
-137 36 -137 50 0 4 12 12 28 18 24 10 20 11 -35 12 -63 1 -82 14 -40 27 53
16 107 47 112 65 4 10 33 39 66 65 74 57 95 92 72 123 -14 20 -13 24 4 43 l18
22 -27 -20 c-23 -17 -24 -21 -12 -35 19 -22 18 -32 -9 -58 -15 -14 -34 -21
-53 -19 -16 1 -35 -1 -41 -5 -6 -4 -22 -3 -35 2 -12 6 -17 10 -9 10 8 1 11 4
8 7 -4 4 -12 2 -19 -4 -15 -12 -70 -4 -62 9 3 5 -2 9 -11 9 -9 0 -13 4 -10 10
3 5 0 10 -7 10 -7 0 -18 10 -23 22 -14 32 -39 37 -30 7 12 -40 42 -64 101 -83
54 -17 55 -18 39 -36 -10 -11 -15 -25 -12 -33 9 -23 -70 -57 -137 -60 l-59 -2
-13 38 c-7 21 -15 58 -16 82 -2 34 -7 45 -19 45 -19 0 -42 24 -32 33 3 4 1 7
-6 7 -7 0 -9 5 -5 13 6 9 5 9 -7 0 -8 -6 -20 -8 -27 -4 -8 5 9 17 46 34 58 27
102 35 102 18 0 -14 53 -8 69 7 8 8 27 12 42 10 16 -3 30 -1 31 3 4 10 104
-12 136 -30 13 -7 26 -10 29 -8 3 3 -15 16 -39 28 -37 19 -64 23 -184 27 -87
3 -154 1 -172 -6 -24 -8 -32 -8 -36 4 -7 17 -1 20 84 34 99 17 161 73 111 100
-11 5 -25 16 -33 22 -15 15 -141 48 -180 48 -16 0 -28 5 -28 11 0 5 5 7 12 3
7 -5 9 -2 5 9 -3 8 1 21 9 28 11 9 18 8 34 -6 17 -16 21 -16 35 -2 8 9 15 25
15 36 0 11 7 26 16 33 9 7 27 23 40 35 14 13 29 23 34 23 6 0 10 6 10 13 0 6
23 32 51 55 44 38 60 70 33 66 -5 -1 -45 -5 -89 -9 -44 -3 -108 -13 -143 -21
-80 -18 -88 -18 -72 1 7 9 15 13 17 11 3 -3 17 0 32 6 45 17 64 20 141 24 41
2 75 4 75 5 0 1 9 3 20 4 11 2 28 6 38 10 11 5 17 3 17 -6 0 -11 3 -11 10 1 8
12 10 11 10 -7 0 -16 4 -21 15 -17 8 4 12 10 9 15 -3 5 0 9 5 9 6 0 11 -4 11
-10 0 -5 13 -7 31 -3 25 5 35 1 53 -20 20 -23 23 -38 24 -111 0 -79 -1 -84
-24 -95 -13 -6 -24 -19 -24 -30 0 -12 -14 -28 -39 -42 -74 -41 -79 -97 -14
-142 47 -33 222 -97 423 -157 41 -12 89 -28 105 -35 17 -7 48 -16 70 -20 21
-4 52 -13 68 -21 l28 -15 -3 148 -3 148 -60 2 c-33 2 -95 8 -139 14 -43 6
-108 12 -145 15 -71 4 -216 56 -225 81 -3 7 -1 13 4 13 22 0 214 -70 220 -81
6 -8 9 -8 14 0 4 6 12 9 17 5 8 -5 126 -7 292 -4 l27 0 0 189 -1 189 -152 4
c-175 5 -312 33 -362 72 -41 33 -25 43 43 27 146 -33 203 -41 315 -45 67 -2
129 -1 139 2 15 4 18 16 18 86 0 91 -15 119 -67 132 -15 4 -38 13 -52 20 -21
11 -28 11 -41 0 -22 -21 -42 5 -56 73 -8 40 -12 47 -13 26 -1 -17 4 -46 9 -65
8 -29 7 -37 -7 -48 -9 -6 -14 -13 -10 -13 4 -1 10 -2 15 -3 4 -1 23 -11 43
-24 46 -28 49 -28 49 4 0 25 2 26 37 21 41 -7 79 -38 70 -59 -3 -8 -24 -20
-47 -27 -51 -15 -174 1 -234 31 l-38 19 23 25 c12 13 19 24 16 24 -16 0 -61
-48 -73 -77 -10 -23 -21 -33 -37 -33 -33 0 -44 11 -67 63 -20 44 -37 67 -23
30 4 -9 2 -14 -3 -10 -6 4 -9 -6 -6 -24 2 -16 8 -32 13 -35 5 -3 9 -16 9 -30
0 -42 -38 -26 -77 31 -18 28 -39 58 -45 67 -6 9 -15 15 -20 12 -4 -3 -7 3 -5
13 3 26 -84 213 -96 206 -6 -4 -8 0 -4 10 3 8 -3 38 -14 66 -10 28 -19 73 -19
99 0 61 23 181 50 257 12 33 23 65 24 70 2 6 8 22 14 36 7 17 7 40 1 65 -4 22
-9 71 -9 109 -1 152 -35 239 -134 343 -38 40 -41 47 -42 105 -1 34 3 65 8 68
7 4 6 14 -1 27 -15 28 -7 247 9 268 10 10 11 38 5 102 -4 48 -8 106 -9 130 -1
25 -9 49 -20 60 -9 9 -16 13 -15 7 5 -27 -5 -23 -57 24 -30 28 -61 51 -69 51
-16 0 -42 38 -51 75 -7 26 -5 28 21 21 l28 -7 -29 24 c-24 19 -48 25 -145 34
-68 7 -131 19 -152 29 -34 16 -41 17 -85 3 -44 -15 -51 -14 -91 3 -24 10 -62
21 -85 24 -22 4 -47 12 -55 18 -11 8 -15 8 -18 -1 -6 -18 -23 -16 -45 4 -17
16 -18 15 -16 -8 3 -21 -1 -24 -27 -22 -202 17 -193 15 -177 39 4 6 20 10 36
10 16 -1 31 5 33 12 3 6 -2 12 -10 12 -8 0 -20 7 -27 15 -18 21 4 45 41 45 32
0 84 18 76 26 -3 3 10 26 29 51 37 48 43 83 18 107 -21 22 -33 20 -27 -4 3
-11 -1 -28 -8 -37 -12 -14 -12 -15 -1 -9 10 6 13 3 10 -10 -5 -26 -56 -43 -68
-24 -6 10 -5 17 6 20 11 4 0 14 -35 33 -28 16 -53 32 -56 37 -3 5 24 23 59 40
81 40 151 99 205 173 43 58 81 140 81 176 0 35 47 79 88 83 l37 4 -40 18 c-34
16 -49 17 -95 8 -30 -5 -57 -8 -59 -6 -2 1 6 22 17 46 11 24 28 61 38 83 26
57 21 158 -6 115 -13 -22 -20 -8 -30 56 -11 81 -25 110 -52 117 -13 4 -27 16
-33 28 -12 28 -52 56 -85 63 -14 3 -43 -4 -66 -14z m196 -115 c0 -14 -8 -29
-20 -35 -23 -12 -25 -3 -8 35 14 32 28 32 28 0z m-164 -164 c-5 -8 -87 -34
-111 -35 -5 -1 -13 -5 -17 -11 -4 -5 -10 -6 -14 -2 -11 11 -1 17 67 36 78 23
82 23 75 12z m-31 -55 c-33 -19 -119 -46 -104 -32 7 7 124 55 134 55 6 1 -8
-10 -30 -23z m23 -48 c20 -20 15 -24 -45 -43 -32 -10 -62 -20 -68 -22 -5 -3 1
5 15 16 14 11 21 21 15 21 -9 0 51 36 66 39 3 0 10 -4 17 -11z m95 -34 c-28
-14 -76 -27 -105 -30 -51 -4 -50 -3 37 25 111 35 137 37 68 5z m-499 0 c9 -8
16 -17 16 -19 0 -8 -41 9 -51 21 -17 20 15 19 35 -2z m83 -40 c-3 -3 -12 -4
-19 -1 -8 3 -5 6 6 6 11 1 17 -2 13 -5z m349 -11 c-2 -15 -15 -19 -72 -21 -72
-3 -85 5 -18 12 21 2 50 9 64 14 14 6 26 11 27 11 1 1 0 -7 -1 -16z m-404 -22
c26 -4 45 -4 42 1 -3 4 0 8 5 8 6 0 11 -5 11 -10 0 -6 10 -15 23 -20 16 -6 5
-9 -46 -9 -43 -1 -66 -5 -62 -11 3 -5 16 -11 28 -12 12 -1 -7 -4 -43 -7 l-65
-6 59 -20 c36 -12 61 -26 64 -37 2 -9 17 -20 33 -23 16 -4 29 -12 29 -18 0 -7
15 -13 33 -14 48 -3 119 -14 115 -18 -3 -3 -147 9 -223 19 -35 5 -29 0 50 -39
50 -24 95 -44 102 -44 6 -1 14 -5 17 -10 4 -5 0 -8 -6 -7 -7 2 -32 7 -55 11
-24 4 -40 11 -37 16 3 5 1 9 -5 9 -5 0 -22 5 -38 12 -15 6 -32 12 -38 12 -5 1
-26 5 -45 10 -28 7 -31 10 -16 15 15 6 11 10 -23 26 -53 23 -52 37 2 30 32 -4
26 0 -28 15 -104 31 -102 30 -85 40 12 7 11 12 -4 29 -19 21 -19 21 15 22 23
1 27 3 12 6 -42 8 -23 22 35 26 31 2 66 4 77 5 11 0 41 -3 67 -7z m105 3 c-3
-3 -12 -4 -19 -1 -8 3 -5 6 6 6 11 1 17 -2 13 -5z m353 -12 c0 -2 -19 -12 -42
-22 -24 -11 -36 -20 -27 -20 9 0 37 11 63 25 58 31 52 15 -7 -19 -46 -26 -107
-43 -107 -29 0 5 -25 6 -55 3 -30 -3 -55 -2 -55 2 0 5 6 10 13 12 6 1 35 11
62 20 28 10 64 21 80 25 29 7 75 9 75 3z m-2002 -38 c-3 -3 -27 -12 -52 -19
-48 -15 -63 -6 -23 13 23 11 85 16 75 6z m27 -44 c-10 -11 -25 -20 -34 -20
-12 1 -10 5 8 20 30 26 49 26 26 0z m55 -50 c-24 -34 -47 -41 -30 -9 16 29 7
34 -24 14 -23 -15 -26 -15 -20 -2 6 17 24 24 67 26 l28 1 -21 -30z m1505 20
c3 -5 1 -10 -4 -10 -6 0 -11 5 -11 10 0 6 2 10 4 10 3 0 8 -4 11 -10z m90 -11
c5 -7 -5 -8 -32 -3 -51 9 -54 14 -10 14 20 0 39 -5 42 -11z m42 -5 c-3 -3 -12
-4 -19 -1 -8 3 -5 6 6 6 11 1 17 -2 13 -5z m-765 -30 c18 -3 43 -6 55 -7 12
-1 25 -5 29 -9 4 -5 21 -8 37 -8 34 0 107 -19 122 -32 5 -4 15 -8 23 -8 14 0
133 -57 142 -68 3 -4 25 -20 50 -36 57 -37 171 -147 167 -161 -2 -5 12 -25 32
-43 22 -21 28 -29 14 -23 -27 14 -44 14 -21 0 11 -6 15 -16 11 -26 -5 -12 -2
-15 9 -11 8 4 21 2 29 -3 12 -7 12 -9 0 -9 -11 0 -9 -6 6 -20 17 -15 20 -25
14 -52 -10 -44 -14 -53 -26 -54 -5 -1 -13 -3 -17 -4 -5 -1 -12 -3 -17 -4 -5 0
-18 -12 -30 -26 -13 -16 -20 -20 -21 -11 0 11 -4 10 -16 -5 -11 -13 -17 -15
-20 -6 -8 16 -34 15 -34 -2 0 -7 9 -16 21 -19 22 -6 23 -44 1 -40 -7 2 -11 -7
-10 -22 1 -14 8 -25 15 -25 19 0 24 -16 13 -45 -8 -20 -7 -27 5 -31 8 -4 15
-10 15 -16 0 -5 -4 -6 -10 -3 -15 9 -12 -18 6 -55 19 -38 9 -67 -22 -62 -11 2
-48 3 -84 3 -78 0 -165 23 -174 47 -32 83 -35 88 -35 61 -1 -27 -23 -54 -34
-42 -4 3 -7 1 -7 -5 0 -6 5 -14 10 -17 15 -9 12 -25 -4 -25 -8 0 -18 -5 -21
-10 -4 -6 -3 -10 2 -9 26 5 31 -4 27 -53 -3 -29 -12 -84 -21 -121 -11 -50 -14
-94 -10 -164 6 -89 16 -137 18 -82 0 13 3 18 6 12 2 -7 11 -13 18 -13 15 0 26
24 17 36 -4 5 -3 6 2 2 6 -5 21 -8 35 -8 l26 0 -32 28 c-34 28 -46 66 -18 56
8 -4 15 -1 15 5 0 6 10 11 21 11 20 0 21 1 5 25 -9 14 -14 30 -11 36 4 5 1 17
-6 25 -9 11 -8 18 6 34 33 37 51 26 53 -32 2 -91 4 -97 33 -103 31 -7 37 -41
9 -50 -9 -3 -16 -14 -17 -25 -1 -16 3 -18 28 -13 25 5 29 2 29 -16 0 -12 -4
-20 -10 -16 -16 10 -87 -67 -84 -92 5 -31 -12 -73 -30 -73 -32 0 -74 49 -81
96 -3 25 -9 43 -12 41 -3 -3 -2 -29 2 -58 5 -37 15 -59 33 -76 23 -21 24 -26
14 -60 -7 -23 -8 -42 -2 -53 12 -22 -6 -39 -46 -43 -17 -2 -35 -7 -42 -11 -7
-4 -12 -2 -12 3 0 6 -7 11 -16 11 -8 0 -12 5 -9 10 3 6 1 10 -4 10 -6 0 -11
-6 -12 -12 0 -10 -2 -10 -6 0 -2 6 -10 12 -17 12 -12 0 -47 36 -41 42 2 1 -23
3 -56 3 -42 0 -63 4 -69 15 -16 25 -12 40 19 71 23 23 26 29 12 29 -16 0 -134
-130 -125 -139 2 -2 15 1 27 8 20 11 31 9 71 -9 57 -27 79 -55 65 -82 -14 -25
-68 -58 -97 -58 -26 0 -103 -69 -85 -76 7 -3 9 -12 7 -19 -3 -8 -1 -30 6 -49
14 -44 7 -56 -25 -48 -22 7 -59 35 -153 121 -20 18 -61 52 -89 74 -38 28 -53
46 -53 63 0 21 3 23 20 14 11 -5 29 -14 39 -20 16 -8 21 -5 26 11 4 11 5 22 3
23 -1 2 -23 15 -48 29 -25 15 -41 27 -36 27 5 0 -7 13 -27 28 -45 36 -91 91
-83 99 3 3 1 12 -4 19 -6 6 -12 26 -15 43 -2 17 -17 60 -34 96 -34 71 -40 122
-16 122 8 0 15 -4 15 -9 0 -5 4 -7 9 -4 10 7 91 -77 92 -96 0 -10 2 -10 6 0 2
6 8 10 12 8 4 -3 5 8 3 24 -4 26 -1 29 18 25 17 -3 20 -1 16 12 -6 13 -4 14
10 3 13 -12 17 -11 24 0 5 8 6 18 4 22 -7 11 -1 10 33 -3 54 -21 163 -28 206
-13 47 17 50 17 42 4 -3 -5 -1 -10 4 -10 7 0 7 -7 -1 -20 -19 -30 -89 -61
-126 -56 -36 4 -45 -3 -32 -24 7 -11 11 -12 24 0 14 11 16 10 10 -4 -6 -16 -4
-16 32 -1 21 9 49 26 61 37 13 12 32 22 43 23 12 1 26 8 33 15 10 10 9 11 -2
5 -9 -5 -12 -4 -7 3 4 7 13 12 19 12 7 0 18 14 25 32 l12 32 29 -28 29 -28 13
23 c23 43 27 123 9 218 -6 35 -8 67 -3 70 4 3 8 11 8 16 1 15 28 68 42 83 16
17 17 36 2 26 -20 -12 -69 -14 -69 -3 0 8 -4 8 -13 1 -17 -15 -93 11 -89 30 2
7 -7 3 -20 -9 -37 -35 -86 -51 -192 -62 -54 -6 -101 -13 -105 -15 -3 -2 -53
-7 -111 -10 -58 -4 -113 -9 -122 -12 -10 -3 -18 0 -18 6 0 6 -4 8 -10 5 -5 -3
-10 3 -10 14 0 12 4 21 10 21 5 0 7 6 4 14 -3 8 6 26 21 40 14 14 23 26 20 26
-3 0 -1 8 4 18 8 15 6 18 -10 17 -10 -1 -25 -7 -31 -13 -8 -8 -15 -8 -24 -1
-8 7 -21 1 -43 -21 -17 -18 -31 -29 -31 -25 0 3 -6 0 -14 -7 -7 -7 -11 -19 -9
-26 3 -7 1 -18 -5 -25 -19 -23 -22 -96 -7 -135 13 -31 27 -43 85 -72 38 -19
69 -40 70 -46 0 -13 -28 -27 -39 -19 -4 2 -25 0 -45 -6 -27 -8 -36 -15 -32
-26 3 -8 3 -19 0 -25 -11 -17 -12 -78 -1 -71 5 3 6 -4 2 -17 -4 -13 -3 -20 2
-17 5 3 9 -2 9 -12 0 -10 -6 -18 -13 -18 -7 0 -13 7 -13 16 0 14 -2 14 -9 1
-6 -8 -7 -18 -4 -23 3 -5 0 -8 -8 -5 -9 3 -13 22 -13 61 0 31 -3 51 -7 45 -4
-7 -8 -7 -13 0 -3 6 -2 13 4 17 16 10 11 25 -6 18 -13 -5 -15 -2 -9 16 5 17 0
28 -19 46 -21 19 -22 24 -9 29 11 4 12 10 5 19 -5 6 -10 32 -10 56 -1 25 -6
48 -14 52 -9 6 -9 9 -1 9 9 0 9 8 1 30 -5 17 -8 39 -5 50 3 11 1 20 -5 20 -6
0 -8 7 -4 15 3 8 0 15 -7 15 -8 0 -8 3 2 9 9 6 10 14 5 22 -11 18 -12 33 -1
40 11 8 -32 79 -49 79 -8 0 -11 6 -8 15 3 8 -4 28 -16 44 -16 24 -19 35 -10
50 13 25 13 34 -1 25 -7 -4 -7 1 1 16 14 27 20 22 25 -21 3 -19 9 -35 14 -37
6 -2 8 -9 5 -17 -3 -7 4 -23 15 -34 12 -12 18 -21 15 -21 -4 0 -1 -7 6 -15 7
-8 9 -15 5 -15 -4 0 3 -11 16 -24 13 -13 32 -34 43 -47 l18 -24 -6 25 c-4 18
-1 15 9 -8 9 -18 20 -30 25 -27 11 7 6 19 -18 47 -7 9 -11 22 -6 29 4 8 3 10
-4 5 -7 -4 -12 -2 -12 4 0 6 -5 8 -12 4 -10 -6 -10 -4 0 8 8 10 9 19 3 22 -5
4 -14 -2 -20 -11 -8 -14 -9 -8 -4 22 3 22 10 44 14 50 5 5 9 14 9 20 0 7 -3 7
-8 -1 -4 -6 -13 -4 -24 8 -14 14 -15 20 -5 30 7 7 12 30 12 50 0 30 6 42 28
59 16 11 31 18 34 15 3 -3 15 0 26 6 16 8 19 7 15 -3 -3 -8 0 -19 7 -26 15
-14 26 -7 18 13 -3 8 0 14 6 14 6 0 11 -7 11 -15 0 -8 4 -15 9 -15 18 0 41 12
41 22 0 5 -4 7 -8 4 -4 -2 -23 3 -41 11 -28 14 -32 20 -27 44 3 16 1 29 -6 31
-15 5 -1 28 18 28 8 0 14 -10 14 -25 0 -28 17 -34 27 -9 3 8 12 13 19 10 9 -4
14 2 14 15 0 13 4 18 13 13 10 -6 9 -4 0 7 -7 7 -13 24 -12 39 l1 25 10 -27
c5 -16 14 -28 19 -28 6 0 7 -4 4 -10 -3 -5 -1 -10 5 -10 7 0 9 8 5 19 -3 11 0
23 6 27 7 4 9 3 5 -4 -3 -6 -2 -13 4 -17 6 -3 14 4 19 17 6 13 10 19 10 15 2
-15 31 21 31 37 0 9 5 16 10 16 6 0 9 3 9 8 -4 24 3 42 16 42 8 0 15 5 15 11
0 5 -6 7 -12 4 -7 -4 -4 1 6 9 16 13 22 13 28 3 5 -8 8 -4 8 11 0 13 4 21 10
17 5 -3 18 3 29 14 23 23 130 81 149 81 7 0 10 5 7 10 -4 7 6 10 27 10 39 -1
181 11 187 16 2 2 8 1 12 -2 5 -3 23 -7 41 -10z m1082 -36 c-4 -18 -7 -41 -6
-50 0 -10 -4 -18 -9 -18 -6 0 -7 5 -4 10 3 6 1 10 -5 10 -12 0 -3 47 13 68 16
20 19 14 11 -20z m-51 -23 c-3 -9 -20 -23 -37 -32 -29 -15 -30 -15 -17 0 7 10
19 17 26 17 7 0 15 7 19 15 3 8 8 15 10 15 3 0 3 -7 -1 -15z m-113 -39 c0 -3
-4 -8 -10 -11 -5 -3 -10 -1 -10 4 0 6 5 11 10 11 6 0 10 -2 10 -4z m-2443
-208 c-3 -8 -6 -5 -6 6 -1 11 2 17 5 13 3 -3 4 -12 1 -19z m850 7 c0 -8 -4
-15 -8 -15 -11 0 -20 16 -12 24 11 11 20 7 20 -9z m3 -35 c0 -5 -2 -10 -4 -10
-3 0 -8 5 -11 10 -3 6 -1 10 4 10 6 0 11 -4 11 -10z m-869 -210 c14 -45 4 -65
-17 -36 -16 22 -19 76 -4 76 5 0 15 -18 21 -40z m709 -200 c0 -5 -4 -10 -10
-10 -5 0 -10 5 -10 10 0 6 5 10 10 10 6 0 10 -4 10 -10z m2043 -38 c13 1 85
-17 94 -24 7 -5 17 -7 23 -3 5 3 10 2 10 -2 0 -5 8 -9 18 -10 49 -4 99 -25
128 -55 17 -18 44 -43 58 -55 20 -17 26 -28 21 -43 -5 -14 9 -42 48 -98 48
-68 136 -219 136 -232 0 -3 4 -16 9 -30 22 -58 24 -106 5 -128 -17 -20 -20
-21 -48 -8 -16 8 -38 17 -47 20 -12 3 -18 16 -18 33 l0 28 19 -29 19 -29 5 24
4 24 8 -22 c4 -13 12 -23 17 -23 5 0 6 -4 3 -10 -3 -5 -2 -10 4 -10 15 0 26
22 22 48 -8 62 -141 274 -210 333 -87 76 -254 199 -269 199 -12 0 -116 72
-129 89 -16 22 2 31 39 21 15 -5 29 -9 31 -8z m-583 -36 c0 -3 -4 -8 -10 -11
-5 -3 -10 -1 -10 4 0 6 5 11 10 11 6 0 10 -2 10 -4z m934 -52 c23 -23 35 -54
22 -54 -8 0 -66 64 -66 73 0 14 18 7 44 -19z m-633 -10 c128 -61 237 -117 274
-143 48 -32 87 -98 65 -111 -7 -4 -20 -6 -28 -2 -32 12 0 -18 51 -47 56 -33
116 -81 100 -81 -5 0 -39 9 -74 21 -82 27 -176 79 -214 120 l-30 31 35 -7 c19
-4 47 -14 62 -21 31 -16 48 -18 48 -6 0 8 -146 58 -285 97 -64 19 -105 41
-105 58 0 5 -8 15 -17 22 -15 11 -15 13 5 19 18 6 20 10 10 26 -9 14 -9 22 1
34 18 22 38 20 102 -10z m921 -46 c9 -7 23 -26 33 -43 l17 -30 -19 24 c-11 13
-31 32 -44 42 -13 10 -19 19 -13 19 5 0 17 -6 26 -12z m-2096 -11 c4 -4 -2 -7
-14 -7 -11 0 -23 4 -26 8 -6 10 30 9 40 -1z m-306 -13 c0 -2 -5 -14 -11 -28
-15 -33 -58 -40 -83 -14 -11 12 -13 19 -6 16 7 -2 23 6 35 18 15 15 30 21 44
17 12 -3 21 -7 21 -9z m374 -43 c36 -20 63 -57 71 -96 l6 -30 -15 32 c-20 43
-58 66 -94 58 -72 -15 -115 -126 -78 -197 14 -27 14 -28 -9 -28 -14 0 -42 7
-64 16 -29 11 -38 20 -34 31 4 11 2 14 -5 9 -6 -3 -26 0 -44 8 l-33 14 28 1
c15 1 27 4 27 9 -1 11 -26 42 -31 37 -3 -2 -5 5 -6 15 -1 13 5 20 15 20 15 1
15 2 -2 15 -20 15 -20 15 0 30 10 8 30 18 44 21 50 12 55 14 42 23 -20 12 77
41 118 34 19 -3 48 -13 64 -22z m950 -17 c3 -8 2 -12 -4 -9 -6 3 -10 10 -10
16 0 14 7 11 14 -7z m1144 -19 c-3 -3 -9 2 -12 12 -6 14 -5 15 5 6 7 -7 10
-15 7 -18z m-945 -141 c61 -34 112 -65 114 -70 4 -13 -185 -87 -203 -80 -35
13 -106 -47 -144 -122 -22 -41 -27 -60 -55 -172 -7 -30 -22 -73 -33 -96 -31
-60 -45 -129 -39 -178 8 -54 82 -302 109 -363 14 -33 17 -48 9 -56 -24 -24 -8
-25 42 -2 28 14 57 25 64 25 8 0 10 -35 6 -132 -5 -148 -8 -162 -26 -155 -6 2
-21 -3 -32 -12 -18 -15 -19 -15 -7 1 12 15 9 15 -25 7 -21 -5 -42 -9 -46 -9
-5 0 -5 -4 -2 -10 3 -5 0 -7 -8 -4 -8 3 -38 -4 -67 -15 -30 -11 -56 -19 -58
-16 -2 2 3 27 11 55 14 47 14 50 -2 45 -11 -3 -26 5 -41 20 -13 14 -32 25 -42
25 -10 0 -39 20 -64 45 l-46 46 31 122 c49 193 60 390 35 608 -8 73 2 91 76
125 53 24 67 37 112 103 42 62 51 84 52 121 1 35 9 56 34 90 17 24 32 50 32
57 0 7 10 33 22 57 l21 45 29 -22 c16 -12 79 -50 141 -83z m-1201 74 c-7 -7
-12 -8 -12 -2 0 14 12 26 19 19 2 -3 -1 -11 -7 -17z m-1068 0 c-5 -8 -2 -9 9
-5 20 7 22 -4 5 -21 -18 -18 -25 -15 -22 11 3 27 3 27 10 27 3 0 2 -5 -2 -12z
m85 -10 c-16 -31 -40 -58 -52 -58 -6 0 -2 9 8 20 14 15 15 20 4 20 -8 0 0 9
16 19 38 25 38 25 24 -1z m52 -31 l-24 -22 19 27 c10 14 21 24 23 22 3 -3 -6
-15 -18 -27z m3085 18 c4 -8 1 -21 -5 -29 -6 -7 -7 -17 -3 -21 4 -5 2 -5 -4
-2 -7 4 -17 0 -24 -8 -12 -15 -42 -20 -52 -9 -9 8 10 66 24 76 21 13 58 9 64
-7z m-3151 -75 c-10 -11 -22 -17 -27 -14 -5 4 1 12 14 19 32 18 34 18 13 -5z
m2765 -61 c11 -25 17 -29 37 -25 16 5 23 2 23 -9 0 -8 -7 -15 -16 -15 -8 0
-13 -4 -10 -9 3 -5 -1 -12 -10 -15 -8 -3 -12 -2 -9 4 3 6 0 10 -8 10 -16 0
-40 54 -30 64 4 3 1 6 -5 6 -7 0 -12 10 -12 21 0 17 3 19 14 10 8 -6 20 -25
26 -42z m357 -11 c-3 -8 -6 -5 -6 6 -1 11 2 17 5 13 3 -3 4 -12 1 -19z m27
-90 c-4 -46 -8 -85 -10 -87 -19 -21 -30 86 -14 133 20 62 31 42 24 -46z
m-3469 62 c3 -5 1 -10 -4 -10 -6 0 -11 5 -11 10 0 6 2 10 4 10 3 0 8 -4 11
-10z m3423 -45 c-3 -3 -9 2 -12 12 -6 14 -5 15 5 6 7 -7 10 -15 7 -18z m-2688
-96 c0 -35 -5 -50 -22 -66 -28 -25 -53 -26 -73 -3 -14 15 -13 19 10 44 27 29
31 41 15 51 -17 11 -11 35 9 35 11 0 23 5 26 11 13 20 34 -25 35 -72z m2187
14 c-3 -10 -5 -4 -5 12 0 17 2 24 5 18 2 -7 2 -21 0 -30z m-2821 -103 c15 -6
34 -20 41 -30 8 -11 19 -20 25 -20 19 0 37 -34 38 -67 0 -37 1 -37 -37 -21
-15 6 -41 13 -58 15 -16 1 -36 4 -42 5 -7 1 -13 14 -13 30 0 15 -4 28 -9 28
-5 0 -7 9 -4 20 3 11 9 20 14 20 5 0 9 7 9 15 0 18 1 18 36 5z m3106 -47 c93
-104 117 -128 170 -168 31 -24 75 -53 97 -64 22 -12 42 -25 46 -31 3 -5 10
-10 15 -10 4 0 0 22 -10 49 -11 27 -17 51 -14 54 10 9 34 -4 34 -19 0 -7 8
-18 19 -23 27 -15 67 -107 81 -185 13 -80 1 -110 -24 -55 -9 21 -15 27 -15 16
-1 -10 5 -30 13 -45 15 -29 28 -150 16 -157 -4 -2 -7 2 -7 9 0 12 -121 246
-128 246 -8 0 22 -68 46 -105 41 -63 67 -144 65 -202 -1 -29 -5 -56 -9 -59 -4
-4 -7 0 -7 8 0 9 -7 21 -15 28 -19 16 -105 197 -105 221 0 10 5 21 10 24 17
11 11 35 -9 35 -10 0 -22 7 -25 16 -9 25 -7 54 4 54 6 0 -4 18 -22 41 -24 29
-38 39 -53 35 -28 -7 -68 31 -94 89 -12 27 -24 45 -28 41 -4 -3 -2 -11 4 -17
14 -14 5 -49 -12 -49 -7 0 -16 7 -19 16 -9 25 -7 56 4 49 19 -12 10 9 -16 36
-15 16 -27 41 -29 62 -2 19 -11 49 -19 66 -22 42 -4 39 36 -6z m-2321 -22 c7
11 9 11 10 2 1 -7 2 -18 3 -23 0 -6 12 -16 26 -23 15 -7 26 -22 26 -35 1 -12
2 -29 3 -37 0 -9 14 -29 30 -44 16 -16 27 -32 24 -35 -3 -3 1 -8 10 -12 9 -3
14 -14 12 -25 -2 -10 0 -19 6 -19 5 0 9 -4 9 -8 0 -4 -9 -8 -20 -8 -11 0 -20
3 -20 6 0 3 -11 6 -25 7 -58 6 -63 7 -57 22 3 9 1 12 -6 7 -13 -7 -42 15 -42
32 0 5 -7 15 -15 22 -8 7 -12 16 -9 21 3 5 -1 11 -8 14 -8 3 -13 18 -13 33 1
15 -3 35 -7 44 -6 12 -2 24 12 38 16 16 17 20 5 20 -13 0 -13 2 -3 14 11 11
15 10 27 -6 11 -16 15 -17 22 -7z m987 -14 c-1 -2 3 -11 11 -21 8 -9 11 -20 7
-23 -4 -4 4 -13 16 -21 13 -7 16 -11 8 -9 -10 3 -15 -3 -15 -18 0 -16 5 -21
15 -17 12 4 11 1 -3 -15 -10 -11 -18 -37 -19 -58 -1 -38 -2 -38 -17 -16 -8 13
-32 34 -53 47 -47 30 -48 49 -3 68 31 13 35 19 29 41 -6 23 12 62 23 51 3 -2
3 -6 1 -9z m-1855 -60 c-3 -5 4 -6 15 -3 20 7 40 -6 103 -66 16 -14 41 -29 57
-33 25 -5 29 -2 41 30 11 31 15 34 32 24 12 -6 27 -8 35 -5 10 4 12 2 8 -6 -5
-7 -2 -9 9 -5 11 4 14 2 10 -9 -3 -9 1 -14 11 -14 9 0 25 -13 34 -30 9 -16 21
-30 25 -30 5 0 5 -5 1 -11 -4 -8 0 -9 15 -4 16 5 21 2 21 -12 0 -14 2 -15 9
-5 6 10 10 8 16 -10 4 -12 6 -29 5 -37 -1 -8 4 -11 12 -8 10 3 15 -4 16 -23 1
-17 17 -43 37 -65 34 -35 35 -36 20 -65 -10 -19 -11 -30 -5 -30 6 0 8 -5 4
-12 -4 -6 1 -17 11 -25 11 -7 15 -13 9 -13 -14 1 -40 23 -47 40 -5 15 -11 -21
-8 -49 2 -8 -2 -10 -10 -5 -8 5 -10 3 -4 -5 8 -14 -31 -61 -52 -61 -8 0 -16 8
-19 18 -27 83 -75 188 -111 244 -44 67 -131 159 -175 184 -97 56 -179 91 -207
89 -30 -3 -39 4 -24 19 10 10 112 3 106 -7z m1727 -146 c0 -5 -6 -11 -12 -14
-18 -6 -39 3 -32 14 7 12 44 12 44 0z m260 -7 c0 -8 -5 -12 -10 -9 -6 4 -8 11
-5 16 9 14 15 11 15 -7z m-920 -34 c0 -5 -2 -10 -4 -10 -3 0 -8 5 -11 10 -3 6
-1 10 4 10 6 0 11 -4 11 -10z m730 -9 c0 -31 -43 -67 -98 -80 -43 -11 -60 -10
-106 3 -31 9 -56 21 -56 26 0 12 16 13 23 3 2 -5 2 -2 1 4 -2 7 6 17 16 23 11
6 20 8 20 6 0 -3 11 -1 25 4 18 7 28 5 39 -5 21 -22 43 -18 62 10 20 31 74 36
74 6z m-704 -6 c-21 -16 -21 -26 1 -18 14 5 13 3 -3 -14 -11 -11 -23 -16 -28
-11 -6 4 -17 8 -25 8 -14 0 -14 -1 -1 -10 9 -6 10 -10 3 -10 -20 0 -24 17 -9
33 8 8 12 18 8 22 -4 5 -1 5 6 1 7 -4 10 -12 7 -17 -4 -5 -2 -9 4 -9 5 0 12 8
15 18 4 10 14 19 22 19 15 0 15 -1 0 -12z m2187 0 c4 -8 2 -17 -3 -20 -6 -4
-10 3 -10 14 0 25 6 27 13 6z m-1293 -62 c0 -40 -2 -44 -15 -33 -14 11 -14 10
-7 -11 9 -24 8 -66 -3 -152 -7 -58 -14 -79 -26 -71 -5 3 -6 -2 -3 -11 4 -8 3
-32 -1 -53 -6 -31 -9 -34 -15 -17 -12 28 -12 157 -1 150 6 -3 8 24 6 65 -2 40
1 68 6 64 5 -3 10 -13 10 -22 3 -29 19 81 19 122 -1 34 1 38 14 26 10 -8 16
-29 16 -57z m-820 42 c0 -8 -2 -15 -4 -15 -2 0 -6 7 -10 15 -3 8 -1 15 4 15 6
0 10 -7 10 -15z m698 -4 c-1 -3 2 -22 6 -43 13 -59 -8 -89 -79 -114 -33 -12
-86 -31 -118 -43 -61 -23 -98 -20 -129 9 -17 16 -17 18 7 50 26 35 56 52 114
63 48 10 151 58 151 71 0 6 11 12 25 12 13 1 24 -1 23 -5z m1536 -4 c17 -12
14 -47 -5 -47 -12 0 -49 38 -49 50 0 14 33 12 54 -3z m-2253 -14 c0 -5 2 -19
3 -31 2 -13 9 -28 17 -33 9 -5 10 -9 2 -9 -17 0 -74 60 -67 71 6 11 44 12 45
2z m67 -22 c3 -8 0 -11 -7 -7 -7 5 -9 1 -5 -8 3 -9 2 -16 -4 -16 -5 0 -12 11
-15 25 -3 20 -1 25 11 23 8 -2 17 -9 20 -17z m272 -7 c0 -8 4 -13 9 -10 4 3
18 -3 30 -13 l21 -19 -34 -16 c-39 -18 -56 -20 -56 -6 0 5 -6 8 -12 6 -7 -1
-10 -1 -5 1 4 3 7 13 7 23 0 29 11 50 26 50 8 0 14 -7 14 -16z m1849 -80 c22
-27 28 -64 12 -64 -11 0 -44 45 -54 73 -10 27 19 21 42 -9z m79 -9 c7 -14 12
-38 12 -52 0 -22 -2 -24 -16 -12 -17 14 -44 62 -44 79 0 21 37 9 48 -15z
m-2436 -30 c29 -24 67 -56 83 -70 22 -18 25 -23 10 -19 -11 4 -3 -6 18 -21 33
-23 38 -31 32 -53 -9 -35 -10 -36 -32 -23 -14 8 -14 10 -3 11 24 1 -10 20 -35
20 -28 0 -131 83 -150 121 -20 38 -15 45 16 21 13 -11 29 -17 35 -15 6 2 17
-3 24 -12 7 -8 17 -15 22 -15 5 0 -5 12 -24 28 -18 15 -41 34 -50 42 -10 8
-18 18 -18 22 0 17 22 6 72 -37z m283 35 c3 -5 2 -10 -4 -10 -5 0 -13 5 -16
10 -3 6 -2 10 4 10 5 0 13 -4 16 -10z m-1245 -48 c-24 -10 -30 -16 -22 -24 8
-8 15 -8 26 1 12 10 15 9 18 -5 3 -17 4 -16 21 0 10 10 21 15 24 12 4 -4 -2
-13 -14 -21 -14 -10 -19 -22 -16 -40 3 -14 0 -32 -7 -40 -10 -13 -9 -15 11
-16 24 -1 24 -1 2 -7 l-22 -7 24 -12 c14 -6 23 -7 20 -3 -3 5 -1 11 5 15 6 4
8 11 5 16 -4 5 -2 9 3 9 6 0 13 -7 16 -16 3 -8 10 -12 16 -9 5 3 10 -1 10 -9
0 -9 4 -16 8 -16 5 0 9 7 9 15 0 14 -10 19 -29 16 -11 -1 -10 7 2 29 8 15 6
21 -7 28 -20 11 -25 49 -7 49 7 0 16 -12 19 -26 9 -34 25 -52 39 -44 6 3 6 0
-1 -8 -15 -15 -17 -33 -4 -24 6 3 7 -4 4 -17 -3 -13 -5 -41 -5 -63 1 -29 -1
-36 -8 -25 -5 8 -10 11 -10 5 0 -5 4 -16 9 -23 14 -23 35 12 22 37 -15 27 -14
44 3 38 20 -8 28 4 14 20 -9 11 -7 12 8 7 28 -11 49 -27 52 -42 1 -8 -2 -11
-7 -8 -5 4 -11 -6 -13 -21 -2 -20 -9 -28 -23 -28 -11 0 -24 -6 -28 -13 -5 -7
-17 -10 -28 -7 -22 7 -25 -5 -6 -24 10 -11 8 -12 -9 -3 -32 17 -126 118 -143
155 -9 19 -21 40 -27 48 -6 8 -16 29 -22 47 -13 37 -1 43 32 15 18 -16 19 -16
8 -1 -11 14 -11 22 2 45 8 15 15 22 16 16 0 -7 5 -13 11 -13 6 0 8 7 5 16 -6
15 -4 15 10 3 15 -12 13 -15 -16 -27z m557 -17 c0 -8 -4 -12 -9 -9 -4 3 -8 9
-8 15 0 5 4 9 8 9 5 0 9 -7 9 -15z m546 -20 c20 -10 37 -23 37 -27 0 -5 -10
-4 -22 2 -70 34 -88 45 -88 52 0 8 15 3 73 -27z m-598 -26 c11 -16 1 -19 -13
-3 -7 8 -8 14 -3 14 5 0 13 -5 16 -11z m737 -60 c10 -5 18 -13 18 -18 0 -15
-35 -39 -68 -46 -28 -6 -33 -3 -41 17 -6 17 -4 26 8 35 10 8 12 12 4 13 -7 0
-13 5 -13 11 0 12 62 4 92 -12z m2216 -68 c48 -83 76 -156 67 -171 -4 -6 -2
-17 5 -25 13 -16 -3 -30 -22 -19 -10 6 -10 4 0 -7 6 -7 12 -24 12 -39 l-1 -25
-19 24 c-11 13 -20 31 -20 40 0 9 -4 21 -9 26 -15 17 -82 182 -88 219 -3 19
-3 43 1 52 9 24 28 5 74 -75z m-3232 32 c-2 -2 -11 0 -20 3 -14 5 -15 9 -5 15
12 7 34 -10 25 -18z m977 -90 c-5 -11 -3 -14 6 -9 7 5 11 17 8 27 -7 28 8 23
21 -7 9 -18 9 -31 1 -45 -6 -12 -8 -23 -5 -27 3 -3 6 0 6 6 0 7 5 12 10 12 6
0 10 -7 10 -15 0 -10 -10 -15 -26 -15 -21 0 -25 4 -21 19 3 13 0 18 -7 15 -13
-5 -36 35 -36 62 0 12 4 12 20 4 12 -7 17 -16 13 -27z m1474 3 c-2 -6 2 -22 9
-35 7 -14 10 -29 7 -35 -3 -6 -3 -8 2 -4 4 4 16 3 27 -3 13 -7 23 -7 32 1 10
8 15 6 20 -6 8 -20 8 -69 0 -76 -13 -14 -70 14 -106 51 -40 43 -47 61 -23 61
11 0 13 7 9 28 -5 22 -2 29 10 29 9 0 15 -5 13 -11z m-50 -18 c-3 -8 -6 -5 -6
6 -1 11 2 17 5 13 3 -3 4 -12 1 -19z m527 -13 c-4 -8 -10 -12 -15 -9 -14 8
-10 24 6 24 9 0 12 -6 9 -15z m41 -32 c1 -21 6 -47 10 -58 5 -16 5 -17 -4 -5
-13 18 -16 15 -29 -39 -10 -42 -9 -45 19 -72 17 -16 28 -33 24 -39 -3 -5 -1
-10 5 -10 7 0 10 7 6 15 -3 8 -1 15 4 15 5 0 9 -10 8 -22 -1 -13 2 -33 6 -45
5 -14 3 -23 -3 -23 -9 0 -15 19 -13 41 1 3 -5 6 -11 6 -7 0 -13 -8 -13 -18 0
-10 4 -15 8 -13 4 3 8 -6 8 -20 0 -14 6 -26 13 -26 6 0 -1 -9 -16 -19 -19 -12
-25 -21 -17 -26 6 -4 9 -13 6 -20 -2 -7 4 -22 15 -33 10 -12 19 -26 19 -32 0
-6 5 -8 10 -5 6 3 10 1 10 -6 0 -7 3 -9 6 -6 4 4 1 14 -7 24 -9 11 -10 14 -1
9 6 -4 12 -3 12 3 0 5 -4 12 -10 16 -5 3 -7 12 -4 20 5 11 9 12 19 2 7 -7 12
-16 12 -21 -1 -5 5 -11 13 -13 13 -4 13 -3 0 6 -12 9 -11 11 7 11 12 0 23 5
25 11 6 18 33 0 51 -34 13 -24 17 -50 15 -94 l-3 -61 -33 20 c-32 19 -34 19
-52 3 -19 -17 -24 -14 -21 10 1 6 -7 -1 -18 -15 -12 -15 -16 -27 -9 -31 5 -4
-6 -9 -25 -13 -20 -4 -37 -12 -39 -18 -3 -9 -6 -9 -12 0 -4 7 2 16 18 23 16 8
22 17 19 27 -4 9 -2 13 4 9 7 -5 9 0 6 13 -3 11 -9 17 -14 14 -5 -3 -7 -9 -4
-13 2 -5 -3 -17 -11 -27 -9 -10 -13 -13 -9 -7 3 7 8 23 10 35 7 32 28 41 41
17 9 -18 12 -19 24 -4 11 13 10 15 -5 9 -14 -6 -16 -3 -10 17 5 18 4 21 -4 9
-8 -12 -11 -12 -11 -1 0 10 -3 11 -14 2 -11 -9 -15 -9 -19 1 -4 8 -8 5 -12 -9
-4 -13 -12 -20 -17 -17 -5 3 -7 13 -3 23 5 13 4 14 -6 4 -24 -23 -31 -13 -11
15 20 28 34 102 20 102 -4 0 -8 8 -8 19 0 10 -9 30 -20 44 -11 14 -20 33 -20
43 0 16 1 16 20 -1 11 -10 17 -22 14 -26 -3 -5 -1 -9 5 -9 20 0 21 20 1 40
-11 11 -24 20 -29 20 -5 0 -11 3 -14 8 -2 4 -2 1 -1 -5 2 -7 0 -13 -5 -13 -13
0 -21 -53 -10 -65 5 -5 9 -26 9 -47 0 -35 -2 -38 -28 -38 -15 0 -33 -5 -40
-12 -16 -16 -23 -6 -32 41 -5 30 -4 38 6 34 7 -2 10 -12 7 -21 -5 -14 -3 -15
8 -5 10 10 10 16 1 25 -17 17 -15 33 3 18 12 -10 15 -10 15 0 0 8 3 10 7 7 8
-9 33 25 26 36 -3 5 -12 -1 -19 -12 -12 -16 -18 -18 -32 -10 -19 12 -27 49
-11 49 5 0 8 6 7 13 -2 7 6 11 22 9 19 -2 22 0 10 8 -9 5 -10 10 -3 10 12 0
11 13 -1 42 -4 9 -6 27 -3 40 3 17 5 15 6 -9 0 -18 5 -33 10 -33 11 0 4 60
-10 76 -6 8 -8 21 -5 30 5 14 4 15 -9 4 -13 -11 -15 -6 -14 43 1 40 6 58 17
62 12 5 13 3 2 -10 -11 -14 -9 -20 15 -43 15 -15 25 -22 21 -15 -4 7 2 14 14
18 11 4 17 11 14 17 -5 7 -1 9 8 5 10 -3 23 3 34 18 22 29 25 27 29 -22z
m-183 -79 c-7 -47 -16 -99 -19 -116 -5 -24 -3 -29 7 -23 9 5 11 4 6 -3 -4 -7
-17 -10 -29 -8 -12 1 -16 1 -9 -1 7 -3 10 -9 7 -14 -4 -5 -1 -9 6 -9 7 0 9 -3
6 -7 -4 -3 -1 -13 5 -22 7 -9 -4 -1 -24 17 -41 39 -102 52 -132 29 -17 -13
-17 -14 -2 -20 10 -4 15 -3 11 3 -3 6 2 10 11 10 10 0 14 -3 11 -6 -4 -4 1
-14 11 -23 19 -18 22 -48 7 -71 -5 -8 -10 -19 -10 -24 0 -5 -6 -10 -13 -12 -7
-1 -8 0 -3 2 17 9 0 43 -19 39 -13 -3 -17 1 -13 11 3 8 9 14 15 14 5 0 6 5 2
11 -4 8 -9 7 -15 -2 -11 -18 -12 -15 -14 58 -2 60 -1 61 16 40 12 -14 18 -17
19 -8 0 8 6 11 18 7 9 -4 1 7 -20 24 -20 16 -35 37 -34 46 3 22 28 36 39 21 6
-8 7 -7 4 3 -2 8 3 24 12 34 9 11 10 16 4 12 -7 -4 -13 -5 -13 -2 0 3 9 10 20
16 18 10 19 8 13 -40 -6 -54 6 -80 38 -80 21 0 33 31 23 62 -12 39 -13 108 -2
108 6 0 8 3 4 7 -3 4 4 13 16 19 19 10 26 10 38 -2 12 -12 12 -26 2 -100z
m-155 56 c2 -17 0 -18 -18 -2 -10 9 -19 22 -19 29 0 21 36 -6 37 -27z m-211
-31 c8 -16 14 -46 14 -68 0 -58 8 -73 31 -60 21 11 25 39 7 57 -6 6 -9 15 -5
18 10 10 35 -3 46 -24 8 -16 3 -26 -33 -61 l-43 -42 -22 61 c-16 42 -30 64
-47 72 -29 13 -30 26 -7 67 20 33 33 29 59 -20z m444 41 c0 -5 -2 -10 -4 -10
-3 0 -8 5 -11 10 -3 6 -1 10 4 10 6 0 11 -4 11 -10z m-560 -42 c0 -13 -32 -38
-41 -33 -5 4 -9 0 -9 -8 0 -8 -7 -17 -15 -21 -23 -8 -18 10 9 31 13 10 27 29
31 42 6 18 9 21 16 10 5 -8 9 -17 9 -21z m277 0 c-3 -8 -6 -5 -6 6 -1 11 2 17
5 13 3 -3 4 -12 1 -19z m452 -43 c0 -5 -4 -3 -9 5 -5 8 -9 22 -9 30 0 16 17
-16 18 -35z m-325 -20 c3 -8 1 -15 -4 -15 -6 0 -10 7 -10 15 0 8 2 15 4 15 2
0 6 -7 10 -15z m315 -18 c-1 -20 -2 -20 -9 3 -8 24 -14 12 -11 -20 1 -11 -1
-10 -10 3 -8 13 -7 22 1 32 16 19 30 10 29 -18z m-631 -28 c2 -23 2 -23 -13
-5 -18 24 -20 39 -2 34 6 -3 13 -15 15 -29z m419 -11 c-3 -8 -6 -5 -6 6 -1 11
2 17 5 13 3 -3 4 -12 1 -19z m273 -92 c0 -5 -9 1 -20 14 -11 13 -20 19 -20 14
0 -5 -5 -1 -11 10 -7 11 -8 21 -2 25 5 3 13 15 17 26 7 16 11 11 22 -30 7 -27
13 -54 14 -59z m-566 -76 c-7 -34 -7 -34 -14 -10 -13 41 -11 115 3 129 10 10
13 3 15 -36 2 -26 0 -64 -4 -83z m-91 80 c4 -14 0 -20 -12 -20 -25 0 -32 10
-20 32 12 22 24 17 32 -12z m-483 6 c0 -2 -7 -7 -16 -10 -8 -3 -12 -2 -9 4 6
10 25 14 25 6z m800 -65 c-1 -13 -4 -12 -15 3 -8 11 -15 27 -15 35 1 13 4 12
15 -3 8 -11 15 -27 15 -35z m297 27 c-3 -8 -6 -5 -6 6 -1 11 2 17 5 13 3 -3 4
-12 1 -19z m-608 -39 c-10 -6 -11 -9 -1 -9 6 0 12 -12 12 -26 0 -22 -3 -24
-22 -19 -36 11 -45 25 -25 36 9 6 15 15 11 20 -3 5 0 17 7 25 11 14 14 13 22
-2 6 -11 5 -19 -4 -25z m579 -24 c-3 -29 -13 -33 -22 -8 -4 9 -1 20 6 25 18
11 18 11 16 -17z m-748 -34 c0 -11 -4 -10 -15 5 -8 10 -14 26 -14 34 0 11 3
10 14 -4 8 -11 15 -27 15 -35z m512 -3 c0 -7 2 -17 3 -23 0 -5 9 -27 19 -47
24 -50 15 -79 -22 -69 -23 7 -27 13 -27 44 0 21 -4 37 -10 37 -5 0 -2 5 8 11
14 8 16 14 7 24 -12 15 -6 35 11 35 5 0 10 -6 11 -12z m588 -90 c0 -15 -4 -28
-10 -28 -5 0 -10 -15 -10 -32 -1 -31 -1 -32 -15 -14 -9 11 -15 14 -15 7 0 -12
-24 -41 -34 -41 -3 0 4 21 16 46 11 26 23 74 26 107 l5 59 19 -38 c10 -20 18
-50 18 -66z m-737 77 c-3 -9 -8 -14 -10 -11 -3 3 -2 9 2 15 9 16 15 13 8 -4z
m-193 -10 c0 -10 -10 -15 -30 -15 -47 0 -35 27 13 29 9 1 17 -6 17 -14z m127
9 c-3 -3 -12 -4 -19 -1 -8 3 -5 6 6 6 11 1 17 -2 13 -5z m-307 -15 c0 -18 -43
-99 -52 -99 -4 0 -8 9 -8 20 0 11 5 20 10 20 6 0 10 13 10 28 0 16 3 32 7 35
10 11 33 8 33 -4z m375 -27 c-3 -3 -11 0 -18 7 -9 10 -8 11 6 5 10 -3 15 -9
12 -12z m-230 -12 c-3 -5 -15 -10 -26 -10 -10 0 -19 5 -19 10 0 6 12 10 26 10
14 0 23 -4 19 -10z m505 -22 c-1 -18 -28 -53 -36 -46 -5 6 24 58 32 58 2 0 4
-6 4 -12z m-227 -49 c16 -11 -1 -39 -24 -39 -16 0 -19 4 -14 18 4 9 8 26 10
37 4 30 7 32 12 10 3 -11 10 -23 16 -26z m527 21 c0 -5 -2 -10 -4 -10 -3 0 -8
5 -11 10 -3 6 -1 10 4 10 6 0 11 -4 11 -10z m-408 -52 c-9 -9 -15 -9 -24 0 -9
9 -7 12 12 12 19 0 21 -3 12 -12z m149 -11 c-10 -9 -11 -8 -5 6 3 10 9 15 12
12 3 -3 0 -11 -7 -18z m-251 -21 c0 -19 -26 -27 -39 -12 -13 15 -4 26 21 26
10 0 18 -6 18 -14z m423 -19 c34 -23 23 -40 -18 -29 -19 6 -25 11 -17 16 9 5
6 13 -10 27 -21 17 -21 18 -3 12 11 -3 33 -15 48 -26z m-323 19 c0 -11 -19
-15 -25 -6 -3 5 1 10 9 10 9 0 16 -2 16 -4z m570 -16 c0 -5 -5 -10 -11 -10 -5
0 -7 5 -4 10 3 6 8 10 11 10 2 0 4 -4 4 -10z m-1215 -180 c11 -10 43 -25 71
-33 93 -27 145 -61 171 -112 9 -16 12 -27 8 -23 -5 4 -14 3 -21 -3 -18 -15
-48 -3 -84 33 -36 36 -45 33 -25 -6 8 -16 15 -33 14 -40 0 -6 -4 -2 -9 9 l-9
20 -1 -20 -1 -20 -11 20 c-6 11 -21 31 -34 45 -12 14 -27 37 -33 52 -8 21 -16
26 -36 23 -18 -1 -25 2 -21 10 2 7 -4 21 -15 31 -10 9 -19 20 -19 24 0 14 36
7 55 -10z m338 -13 c14 -16 32 -38 41 -50 16 -22 16 -22 10 6 -4 16 -2 27 4
27 6 0 17 3 26 6 15 6 126 -89 126 -108 0 -5 -4 -6 -10 -3 -5 3 -7 0 -4 -8 6
-18 -42 -42 -50 -24 -2 7 -5 4 -5 -5 -1 -20 -18 -23 -41 -8 -9 6 -17 5 -22 -3
-6 -8 -19 0 -42 27 -18 21 -38 36 -44 32 -14 -8 -43 4 -36 15 3 5 2 9 -3 9 -4
0 -8 16 -9 35 0 27 3 34 13 31 9 -4 11 -2 6 7 -13 21 -13 45 1 43 7 -1 25 -14
39 -29z m669 -29 c-4 -4 -61 -26 -127 -48 -102 -35 -168 -60 -196 -76 -4 -2
-16 5 -27 15 -19 15 -20 20 -8 36 7 10 18 15 24 11 8 -5 10 -2 6 9 -5 13 -2
14 20 5 21 -7 26 -6 26 5 0 18 83 42 88 26 2 -7 9 -5 19 5 9 8 22 13 29 10 7
-3 15 -2 18 2 2 4 34 7 70 7 36 0 62 -3 58 -7z m117 -114 c-13 -14 -32 -30
-42 -35 -16 -9 -17 -7 -11 18 8 33 20 43 53 43 l24 0 -24 -26z m-1051 -3 c3
-8 -1 -12 -9 -9 -7 2 -15 10 -17 17 -3 8 1 12 9 9 7 -2 15 -10 17 -17z m972 8
c0 -24 -53 -129 -66 -129 -15 0 -48 94 -41 115 9 21 107 34 107 14z m-220 -8
c0 -10 -42 -23 -49 -16 -2 3 1 5 8 5 7 0 10 4 7 8 -2 4 4 9 15 9 10 1 19 -2
19 -6z m810 -1 c0 -12 -8 -12 -35 0 -18 8 -17 9 8 9 15 1 27 -3 27 -9z m-2443
-14 c56 -20 133 -56 133 -62 0 -3 -4 -3 -9 0 -15 10 -57 -10 -136 -63 -40 -27
-76 -46 -80 -43 -4 4 -5 0 -3 -8 2 -8 -7 -19 -19 -25 -13 -5 -23 -13 -23 -18
0 -4 -9 -18 -21 -30 -11 -12 -20 -17 -19 -12 5 22 -1 24 -20 8 -11 -10 -20
-28 -20 -40 0 -14 -6 -23 -15 -23 -8 0 -25 -20 -37 -45 -12 -25 -26 -45 -31
-45 -4 0 -6 -4 -3 -8 2 -4 0 -30 -6 -57 -11 -53 -28 -45 -24 13 1 17 -1 32 -5
32 -4 0 -8 17 -7 38 0 20 -3 61 -6 90 -4 29 -3 58 1 65 4 7 8 14 8 17 0 3 12
23 27 45 58 89 189 183 259 185 9 0 34 -6 56 -14z m1730 -63 c-2 -23 -14 -58
-27 -78 -29 -46 -50 -33 -50 32 0 39 -2 44 -15 33 -12 -10 -16 -8 -25 15 -13
35 -13 42 6 49 33 12 46 7 39 -16 -5 -18 -1 -16 21 11 26 32 28 33 41 15 9
-12 13 -34 10 -61z m129 40 c-8 -15 -15 -25 -16 -21 0 12 23 58 27 54 3 -2 -2
-17 -11 -33z m702 30 c-21 -2 -55 -2 -75 0 -21 2 -4 4 37 4 41 0 58 -2 38 -4z
m-1003 -13 c-11 -5 -27 -9 -35 -9 -13 -1 -13 0 0 9 8 5 24 9 35 9 l20 0 -20
-9z m-2634 -23 c-10 -9 -11 -8 -5 6 3 10 9 15 12 12 3 -3 0 -11 -7 -18z m2163
7 c4 -10 1 -14 -6 -12 -15 5 -23 28 -10 28 5 0 13 -7 16 -16z m-2192 -21 c-5
-27 -11 -25 -16 4 -3 11 1 20 8 20 8 0 11 -9 8 -24z m3612 21 c9 -4 21 -15 27
-26 8 -15 8 -19 0 -14 -6 4 -11 1 -11 -8 0 -33 -66 -40 -91 -10 -8 10 -5 19
15 39 26 26 34 29 60 19z m-908 -35 c9 -18 16 -46 17 -63 1 -34 -22 -87 -39
-93 -15 -5 -34 73 -28 112 15 87 23 95 50 44z m-67 -40 c-19 -81 -73 -189
-108 -216 -13 -10 -17 -7 -22 15 -4 15 -7 56 -8 92 -1 88 33 139 107 159 35
10 42 -2 31 -50z m-143 15 c-3 -9 -6 -20 -6 -25 0 -13 -92 -118 -208 -238 -56
-57 -111 -119 -124 -137 -13 -19 -25 -34 -28 -34 -3 0 -34 38 -69 85 -35 47
-78 100 -97 117 -19 18 -34 36 -34 40 0 11 72 45 170 79 108 39 339 116 365
122 35 8 37 7 31 -9z m355 -47 c-18 -18 -22 -2 -9 34 l13 34 3 -29 c2 -16 -1
-33 -7 -39z m-2763 4 c16 -16 33 -38 36 -48 3 -10 17 -31 31 -47 22 -25 35
-76 20 -76 -32 0 -109 80 -128 133 -6 16 0 67 8 67 1 0 16 -13 33 -29z m1272
7 c0 -5 9 -8 21 -8 29 0 61 -19 53 -31 -4 -8 -1 -8 12 -1 27 14 91 1 144 -30
25 -14 72 -34 105 -43 77 -22 181 -70 212 -99 21 -20 25 -34 30 -116 5 -78 3
-98 -12 -126 -30 -56 -67 -56 -63 -1 1 18 -4 42 -11 55 -6 12 -9 27 -6 32 3 5
-1 20 -9 33 -9 12 -17 34 -19 47 -4 25 -54 59 -89 60 -9 0 -20 5 -24 11 -5 8
-10 6 -16 -5 -8 -13 -13 -15 -24 -5 -7 6 -11 15 -8 20 3 5 2 9 -3 8 -4 -1 -15
0 -23 4 -43 16 -92 28 -97 23 -3 -3 -15 0 -27 6 -20 11 -20 10 -7 -8 32 -42
76 -84 87 -84 7 0 14 -5 16 -10 2 -6 16 -13 32 -16 16 -3 47 -17 69 -32 32
-22 45 -41 69 -101 16 -40 34 -96 39 -123 11 -50 11 -50 -27 -89 -21 -21 -42
-39 -46 -39 -4 0 -10 11 -14 25 -3 14 -10 25 -15 25 -5 0 -6 6 -3 13 7 19 -23
98 -49 126 -12 13 -16 20 -8 16 24 -14 -38 62 -64 79 -13 9 -31 16 -40 16 -8
0 -15 5 -15 12 0 6 -3 9 -6 5 -4 -3 -22 10 -41 30 -31 32 -41 36 -94 38 -51 3
-59 1 -57 -13 4 -22 128 -144 128 -126 0 4 7 1 15 -6 8 -7 12 -16 9 -21 -3 -5
0 -9 6 -9 6 0 8 -4 5 -10 -3 -5 1 -10 9 -10 9 0 16 -7 16 -16 0 -8 4 -13 8
-10 11 7 71 -87 98 -153 24 -60 21 -79 -20 -113 -30 -25 -40 -22 -69 20 -35
49 -56 112 -50 145 4 21 1 27 -12 27 -10 0 -26 9 -36 21 -9 11 -19 20 -21 19
-13 -7 -56 27 -65 51 -6 16 -15 28 -20 27 -5 -2 -19 7 -33 20 -13 12 -30 22
-37 22 -7 0 -13 4 -13 10 0 5 -6 7 -14 4 -8 -3 -17 0 -21 5 -3 6 -10 9 -16 6
-5 -3 3 -24 17 -47 15 -23 27 -47 28 -54 1 -8 6 -17 11 -21 4 -4 5 -2 1 5 -12
20 3 14 27 -11 43 -45 72 -80 61 -74 -7 4 -11 0 -10 -10 0 -10 -5 -18 -13 -18
-8 0 -16 -7 -18 -15 -4 -13 -3 -13 6 0 6 8 11 10 11 4 0 -26 -15 -20 -52 19
-58 61 -76 118 -44 140 6 4 -8 4 -31 1 -36 -6 -43 -3 -54 17 -7 13 -12 39 -10
57 1 24 -2 31 -10 26 -8 -4 -9 -3 -5 4 5 8 13 9 25 3 14 -8 17 -6 16 12 -1 14
-8 21 -19 21 -9 -1 -16 2 -16 7 0 5 -6 9 -14 9 -7 0 -30 16 -50 35 -21 19 -43
35 -49 35 -7 0 -6 4 3 10 12 8 12 10 -5 10 -15 0 -17 3 -7 9 8 4 14 12 15 17
3 12 99 76 105 69 4 -4 32 40 32 51 0 2 -12 -1 -27 -7 -41 -16 -94 -28 -88
-20 6 11 82 46 160 75 39 15 76 30 84 35 17 11 81 9 81 -1z m-1364 -33 c4 -14
4 -29 0 -32 -3 -4 -6 3 -6 13 0 11 -5 25 -12 32 -9 9 -9 12 0 12 6 0 14 -11
18 -25z m2745 -48 c-13 -13 -14 5 -3 43 l7 25 3 -29 c2 -16 -1 -33 -7 -39z
m-88 -14 c3 -15 3 -32 1 -38 -5 -12 -44 -38 -50 -33 -5 6 30 98 37 98 4 0 9
-12 12 -27z m-174 -29 c-10 -54 -42 -128 -59 -139 -10 -6 -12 -1 -7 23 7 32
63 162 70 162 2 0 1 -21 -4 -46z m-45 -6 c-4 -13 -16 -43 -26 -68 -15 -34 -21
-41 -28 -30 -17 26 -11 48 21 85 36 41 43 43 33 13z m534 -57 c22 -16 22 -16
-18 -18 -28 -1 -40 2 -37 10 2 7 -3 17 -11 23 -12 9 -9 10 14 7 16 -3 40 -12
52 -22z m399 -17 c39 -22 56 -44 35 -44 -28 0 -103 35 -123 57 l-24 26 34 -7
c19 -3 54 -18 78 -32z m-874 -19 c3 -19 -1 -29 -15 -36 -28 -15 -32 -6 -13 30
19 38 21 38 28 6z m-138 -6 c4 -6 4 -31 0 -56 -5 -38 -11 -47 -38 -58 -61 -24
-77 -27 -77 -13 0 25 25 67 42 72 10 2 21 12 25 23 14 39 35 54 48 32z m-2133
-21 c-5 -5 -20 -8 -33 -6 l-24 5 25 10 c28 12 47 6 32 -9z m2753 3 c-14 -13
-85 -31 -85 -22 0 4 17 12 38 18 50 14 58 15 47 4z m-2880 -97 c19 -16 37 -23
50 -20 11 3 28 6 39 6 12 0 16 5 12 16 -4 10 -2 13 7 7 20 -13 41 -13 63 -2
12 6 30 9 40 7 11 -2 -26 -21 -88 -46 -62 -25 -113 -40 -120 -36 -37 22 -88
69 -88 81 0 22 53 15 85 -13z m2085 -44 c0 -5 -5 -10 -11 -10 -5 0 -7 5 -4 10
3 6 8 10 11 10 2 0 4 -4 4 -10z m-1983 -27 c-5 -9 13 -27 30 -30 7 -2 30 4 53
12 29 10 40 11 38 3 -5 -13 -99 -48 -121 -44 -21 3 -47 26 -47 42 0 7 10 15
23 17 12 2 23 5 25 6 2 0 1 -2 -1 -6z m603 -14 c0 -6 -4 -7 -10 -4 -5 3 -10
11 -10 16 0 6 5 7 10 4 6 -3 10 -11 10 -16z m1970 5 c0 -8 -19 -13 -24 -6 -3
5 1 9 9 9 8 0 15 -2 15 -3z m-2212 -16 c-3 -7 -10 -14 -16 -14 -7 -1 -14 -3
-17 -4 -3 -1 -8 -3 -12 -4 -57 -13 -137 -43 -171 -62 -37 -22 -45 -24 -69 -12
-45 22 -40 38 14 40 26 0 56 0 66 0 10 -1 37 6 60 17 66 29 116 43 127 36 5
-3 10 -1 10 4 0 6 3 11 6 11 3 0 4 -6 2 -12z m67 -56 c-3 -3 -11 0 -18 7 -9
10 -8 11 6 5 10 -3 15 -9 12 -12z m2225 3 c-7 -9 -15 -13 -19 -10 -3 3 1 10 9
15 21 14 24 12 10 -5z m-2250 -16 c0 -5 -4 -9 -9 -9 -9 0 -97 -55 -163 -101
-33 -23 -30 -24 -60 4 -14 12 -34 27 -44 33 -16 10 -17 14 -6 25 10 11 16 11
33 1 11 -7 24 -10 29 -7 6 4 10 2 10 -4 0 -12 64 5 68 19 2 6 11 10 20 10 10
1 33 9 52 18 40 20 70 25 70 11z m75 -38 c3 -6 -27 -29 -67 -52 -40 -23 -86
-50 -101 -61 -22 -15 -31 -17 -42 -8 -14 12 -17 52 -3 44 4 -3 8 -1 8 4 0 6
12 13 28 17 15 3 35 13 44 22 9 8 22 12 27 8 6 -3 11 -1 11 6 0 7 3 10 6 6 3
-3 20 1 37 8 39 17 44 18 52 6z m731 -93 c5 -7 2 -9 -7 -4 -8 4 -4 -1 7 -11
28 -23 64 -95 64 -127 0 -14 -9 -31 -22 -40 -23 -16 -60 -22 -56 -8 2 4 -6 35
-16 70 -15 49 -17 67 -8 87 8 17 8 25 1 25 -6 0 -7 5 -4 10 8 14 32 13 41 -2z
m-611 -17 c-3 -6 -11 -11 -16 -11 -5 0 -4 6 3 14 14 16 24 13 13 -3z m-193
-62 c27 -11 36 -9 84 14 30 15 58 27 62 27 17 -1 -90 -60 -107 -60 -11 0 -23
-5 -26 -10 -6 -10 -23 -4 -60 23 -17 13 -18 17 -5 32 13 16 15 16 18 3 2 -9
17 -22 34 -29z m133 -30 c-5 -15 -4 -19 4 -15 6 4 11 3 11 -3 0 -17 -18 -21
-47 -10 l-28 11 24 19 c30 25 44 24 36 -2z m62 -37 c-15 -16 -13 -17 23 -18
22 -1 46 -7 54 -13 10 -9 16 -8 26 4 11 13 15 13 41 0 16 -9 28 -21 26 -28 -1
-7 9 -12 26 -11 32 0 30 -15 -5 -35 -22 -13 -29 -13 -61 2 -19 9 -42 17 -50
17 -9 0 -18 4 -22 9 -3 6 -26 20 -51 33 -44 22 -74 48 -41 35 20 -7 23 8 5 17
-7 3 -3 3 10 0 16 -4 22 -1 23 13 0 11 3 13 6 5 3 -7 -2 -21 -10 -30z m1100
-19 c5 3 10 0 10 -8 0 -10 -5 -11 -19 -4 -10 5 -18 15 -18 22 0 8 3 8 9 -2 5
-7 13 -11 18 -8z m-29 -34 c-3 -8 -7 -3 -11 10 -4 17 -3 21 5 13 5 -5 8 -16 6
-23z m-28 7 c0 -2 -7 -7 -16 -10 -8 -3 -12 -2 -9 4 6 10 25 14 25 6z m57 -32
c-3 -3 -12 -4 -19 -1 -8 3 -5 6 6 6 11 1 17 -2 13 -5z m1148 -4 c3 -5 2 -10
-4 -10 -5 0 -13 5 -16 10 -3 6 -2 10 4 10 5 0 13 -4 16 -10z m-2750 -20 c3 -5
1 -10 -4 -10 -6 0 -11 5 -11 10 0 6 2 10 4 10 3 0 8 -4 11 -10z m1584 -24 c9
-10 8 -15 -2 -19 -8 -3 -13 3 -13 14 0 23 0 23 15 5z m-809 -16 c0 -5 -2 -10
-4 -10 -3 0 -8 5 -11 10 -3 6 -1 10 4 10 6 0 11 -4 11 -10z m724 -5 c-7 -16
-24 -21 -24 -6 0 8 7 13 27 20 1 1 0 -6 -3 -14z m1716 -5 c0 -5 -4 -10 -9 -10
-6 0 -13 5 -16 10 -3 6 1 10 9 10 9 0 16 -4 16 -10z m-2370 -12 c0 -11 -12
-10 -30 2 -12 7 -10 9 8 7 12 0 22 -5 22 -9z m38 -17 c3 -8 -1 -12 -9 -9 -7 2
-15 10 -17 17 -3 8 1 12 9 9 7 -2 15 -10 17 -17z m1442 4 c-13 -16 -40 -20
-40 -7 0 14 12 22 33 22 16 0 17 -3 7 -15z m-1366 -14 c3 -5 16 -11 28 -14 13
-2 32 -8 42 -12 15 -7 17 -5 11 6 -8 12 -6 12 8 0 22 -18 22 -35 0 -28 -90 28
-146 57 -111 57 9 0 19 -4 22 -9z m1895 -32 c-5 -11 -14 -19 -20 -19 -6 0 -7
4 -4 10 3 5 1 19 -5 30 -10 18 -9 19 14 9 21 -10 23 -15 15 -30z m-2735 17
c-6 -16 -34 -30 -42 -21 -3 3 1 5 9 5 12 0 11 2 -1 11 -13 9 -12 10 3 5 9 -3
17 -1 17 4 0 6 4 10 10 10 5 0 7 -6 4 -14z m1406 10 c0 -2 -8 -10 -17 -17 -16
-13 -17 -12 -4 4 13 16 21 21 21 13z m47 -35 c-12 -22 -26 -37 -31 -34 -5 4
-6 1 -2 -5 12 -19 -22 -61 -44 -55 -11 3 -20 12 -20 20 0 8 4 12 9 9 20 -13
41 6 36 31 -2 14 -2 23 2 20 3 -3 19 7 37 23 17 17 32 30 33 30 1 0 -8 -18
-20 -39z m1573 3 c0 -16 -16 -19 -25 -4 -8 13 4 32 16 25 5 -4 9 -13 9 -21z
m-1530 -18 c-8 -21 -6 -23 13 -19 19 4 20 3 5 -6 -18 -12 -14 -47 8 -55 25
-10 15 -27 -13 -22 -16 2 -38 5 -50 5 -29 1 -29 5 7 69 32 55 45 68 30 28z
m75 14 c-3 -5 -11 -10 -16 -10 -6 0 -7 5 -4 10 3 6 11 10 16 10 6 0 7 -4 4
-10z m-1555 -22 c10 -21 10 -21 -3 -5 -19 23 -26 22 -20 -3 6 -22 -12 -28 -20
-6 -5 13 10 36 25 36 4 0 12 -10 18 -22z m1069 6 c5 3 19 -3 32 -13 18 -14 29
-17 47 -10 16 6 29 6 37 -1 9 -8 14 -7 17 2 4 10 8 10 22 -1 15 -13 19 -13 27
0 5 8 9 10 9 5 0 -6 5 -5 12 2 7 7 22 12 35 12 13 0 23 5 23 12 0 6 3 8 7 5 3
-4 -9 -22 -28 -40 -27 -26 -42 -33 -65 -31 -72 7 -129 16 -138 21 -5 4 -19 8
-30 9 -12 1 -30 5 -41 7 -11 3 -26 6 -32 6 -7 1 -13 6 -13 12 0 6 7 9 15 6 8
-4 17 -2 21 4 4 6 11 6 19 -1 8 -7 18 -9 24 -6z m871 -44 c0 -11 -4 -20 -10
-20 -5 0 -10 9 -10 20 0 11 5 20 10 20 6 0 10 -9 10 -20z m-1440 0 c0 -5 -2
-10 -4 -10 -3 0 -8 5 -11 10 -3 6 -1 10 4 10 6 0 11 -4 11 -10z m1556 -22 c-2
12 0 22 5 22 5 0 9 -5 9 -11 0 -5 5 -7 10 -4 6 4 8 11 5 16 -4 5 -1 9 4 9 18
0 13 -25 -11 -60 -20 -28 -29 -33 -75 -36 -41 -3 -53 -1 -53 10 0 8 5 18 10
21 6 4 8 11 5 16 -3 5 1 6 10 3 13 -5 13 -9 3 -23 -8 -11 -5 -10 10 3 12 11
22 26 22 35 0 14 2 14 10 1 8 -12 10 -10 11 10 1 25 1 25 15 -5 11 -22 14 -24
10 -7z m174 18 c0 -8 -12 -17 -26 -20 -15 -4 -24 -10 -21 -13 3 -3 21 0 39 6
31 10 32 10 13 -5 -11 -8 -19 -22 -17 -30 2 -8 -2 -14 -8 -14 -5 0 -11 8 -11
18 -1 15 -2 15 -6 -1 -5 -18 -5 -18 -18 -1 -15 21 -9 44 11 44 8 0 17 7 20 15
8 19 24 20 24 1z m-710 -6 c0 -5 -2 -10 -4 -10 -3 0 -8 5 -11 10 -3 6 -1 10 4
10 6 0 11 -4 11 -10z m1277 -16 c-3 -3 -12 -4 -19 -1 -8 3 -5 6 6 6 11 1 17
-2 13 -5z m-951 -51 c-10 -10 -19 5 -10 18 6 11 8 11 12 0 2 -7 1 -15 -2 -18z
m324 9 c0 -4 -9 -8 -20 -9 -11 -1 -18 2 -15 8 7 11 35 12 35 1z m87 -8 c-3 -3
-12 -4 -19 -1 -8 3 -5 6 6 6 11 1 17 -2 13 -5z m-1617 -32 c0 -15 -11 -21 -27
-15 -12 5 -12 7 -1 14 17 11 28 11 28 1z m7 -48 c-3 -3 -12 -4 -19 -1 -8 3 -5
6 6 6 11 1 17 -2 13 -5z m385 -86 c-4 -17 -2 -20 11 -15 10 4 17 2 17 -4 0 -6
5 -7 10 -4 6 4 8 11 5 16 -4 5 5 4 19 -2 38 -18 22 -29 -40 -29 -43 0 -54 3
-54 16 0 13 24 41 37 44 0 0 -1 -10 -5 -22z m219 -19 c-9 -23 -12 -23 -15 4
-2 11 15 29 21 23 2 -2 -1 -14 -6 -27z m-281 6 c6 3 7 -1 4 -9 -7 -18 -24 -22
-24 -6 0 6 -7 10 -15 10 -8 0 -15 5 -15 10 0 7 7 7 20 0 11 -6 25 -8 30 -5z
m208 -7 c-2 -6 -10 -13 -16 -14 -7 -1 -8 0 -2 3 5 2 8 9 4 14 -3 5 0 9 6 9 7
0 10 -5 8 -12z"/>
<path d="M1225 4444 c-19 -16 -19 -16 5 -9 31 9 50 25 30 25 -8 0 -24 -8 -35
-16z"/>
<path d="M1264 4435 c-10 -8 -14 -15 -8 -15 6 0 17 7 24 15 16 19 9 19 -16 0z"/>
<path d="M2603 4355 c0 -8 4 -12 9 -9 5 3 6 10 3 15 -9 13 -12 11 -12 -6z"/>
<path d="M1235 4340 c-3 -5 -1 -10 4 -10 6 0 11 5 11 10 0 6 -2 10 -4 10 -3 0
-8 -4 -11 -10z"/>
<path d="M1260 4338 c0 -9 -5 -18 -12 -20 -7 -3 -8 -9 -2 -19 10 -16 11 -20
13 -50 1 -13 5 -18 13 -13 8 5 9 2 5 -9 -3 -10 -3 -17 2 -17 5 0 12 -12 16
-27 5 -21 8 -24 16 -12 5 7 9 19 9 24 0 6 -5 3 -10 -5 -8 -13 -10 -12 -10 3 0
9 8 17 18 18 9 0 12 3 6 5 -6 3 -9 16 -6 29 2 15 0 25 -7 25 -7 0 -10 -4 -7
-8 3 -5 -1 -9 -9 -9 -8 0 -12 4 -9 9 3 4 0 8 -5 8 -6 0 -11 4 -11 10 0 5 6 8
13 6 6 -1 9 -1 5 1 -5 3 -8 12 -8 21 0 10 -5 24 -10 32 -8 13 -10 13 -10 -2z"/>
<path d="M2282 4161 c-26 -23 -29 -31 -18 -40 16 -13 27 -4 19 17 -5 11 -3 13
7 7 8 -5 11 -4 7 2 -4 6 1 14 10 17 16 6 38 -13 27 -23 -3 -3 -9 1 -14 9 -6 8
-10 11 -10 5 0 -14 15 -36 26 -38 5 -1 8 -5 7 -9 -2 -5 2 -8 7 -8 19 0 10 47
-14 69 l-23 22 -31 -30z"/>
<path d="M2440 4156 c0 -2 7 -7 16 -10 8 -3 12 -2 9 4 -6 10 -25 14 -25 6z"/>
<path d="M1070 3716 c0 -2 7 -7 16 -10 8 -3 12 -2 9 4 -6 10 -25 14 -25 6z"/>
<path d="M1512 3568 c5 -15 28 -18 29 -3 0 6 -7 12 -17 13 -10 3 -15 -1 -12
-10z"/>
<path d="M691 3064 c0 -11 3 -14 6 -6 3 7 2 16 -1 19 -3 4 -6 -2 -5 -13z"/>
<path d="M1865 2870 c3 -5 8 -10 11 -10 2 0 4 5 4 10 0 6 -5 10 -11 10 -5 0
-7 -4 -4 -10z"/>
<path d="M3495 2360 c-3 -5 -1 -10 4 -10 6 0 11 5 11 10 0 6 -2 10 -4 10 -3 0
-8 -4 -11 -10z"/>
<path d="M3465 2180 c-3 -6 1 -7 9 -4 18 7 21 14 7 14 -6 0 -13 -4 -16 -10z"/>
<path d="M3469 2068 c0 -2 -2 -11 -4 -21 -3 -15 -1 -16 11 -6 16 13 19 29 4
29 -5 0 -10 -1 -11 -2z"/>
<path d="M3765 2040 c3 -5 8 -10 11 -10 2 0 4 5 4 10 0 6 -5 10 -11 10 -5 0
-7 -4 -4 -10z"/>
<path d="M3265 2303 c-3 -10 -3 -14 1 -10 4 4 13 2 21 -4 17 -15 17 -1 -1 16
-12 12 -15 12 -21 -2z"/>
<path d="M3306 2272 c-10 -17 23 -28 37 -12 9 10 8 12 -5 7 -9 -3 -18 -1 -21
6 -2 8 -5 8 -11 -1z"/>
<path d="M3277 2159 c6 -23 9 -24 16 -5 3 8 0 17 -7 19 -10 4 -12 -1 -9 -14z"/>
<path d="M1913 1136 c2 -6 9 -11 16 -11 6 0 16 -7 21 -15 8 -12 10 -12 10 -1
0 8 7 11 18 9 10 -3 27 1 38 10 18 13 17 14 -9 8 -16 -4 -26 -3 -24 1 3 4 -13
8 -34 9 -24 0 -38 -4 -36 -10z"/>
<path d="M2070 1120 c20 -13 33 -13 25 0 -3 6 -14 10 -23 10 -15 0 -15 -2 -2
-10z"/>
<path d="M2060 1079 c0 -5 5 -7 10 -4 6 3 10 8 10 11 0 2 -4 4 -10 4 -5 0 -10
-5 -10 -11z"/>
<path d="M2035 1050 c3 -5 8 -10 11 -10 2 0 4 5 4 10 0 6 -5 10 -11 10 -5 0
-7 -4 -4 -10z"/>
<path d="M1800 546 c0 -2 7 -7 16 -10 8 -3 12 -2 9 4 -6 10 -25 14 -25 6z"/>
<path d="M4320 3463 c1 -16 50 -63 75 -73 14 -5 25 -8 25 -6 0 1 -22 22 -50
45 -27 23 -50 39 -50 34z"/>
<path d="M4457 2493 c-12 -12 -7 -22 8 -17 8 4 15 10 15 15 0 11 -14 12 -23 2z"/>
<path d="M286 2395 c4 -8 11 -15 16 -15 6 0 5 6 -2 15 -7 8 -14 15 -16 15 -2
0 -1 -7 2 -15z"/>
<path d="M4490 2314 c-6 -14 -10 -30 -10 -35 0 -5 -4 -9 -10 -9 -20 0 -9 -50
18 -82 52 -62 55 -67 44 -80 -5 -7 -13 -24 -17 -38 l-7 -25 18 25 c9 14 19 27
21 29 1 2 12 -4 23 -14 16 -15 20 -32 22 -94 l2 -76 3 62 c3 51 8 65 24 74 16
8 20 17 16 37 -3 15 4 53 14 86 11 32 18 70 16 85 -4 25 -4 25 -12 -6 -9 -38
-20 -36 -28 6 -5 21 -19 38 -46 56 -52 32 -79 32 -91 -1z m75 -131 c-2 -8 0
-11 5 -8 13 8 13 -1 -1 -26 -16 -31 -28 -13 -25 39 4 60 5 62 17 33 5 -14 7
-31 4 -38z"/>
<path d="M490 2220 c18 -12 30 -13 30 -2 0 4 -10 9 -22 9 -18 2 -20 0 -8 -7z"/>
<path d="M540 2197 c0 -3 24 -25 53 -48 28 -24 46 -36 38 -26 -16 20 -91 81
-91 74z"/>
<path d="M790 1861 c0 -6 4 -13 10 -16 6 -3 7 1 4 9 -7 18 -14 21 -14 7z"/>
<path d="M4458 1863 c7 -3 16 -2 19 1 4 3 -2 6 -13 5 -11 0 -14 -3 -6 -6z"/>
<path d="M3930 1001 c0 -11 48 -40 78 -46 10 -2 32 -8 49 -14 18 -5 35 -6 38
-1 8 14 -22 31 -59 33 -20 1 -36 5 -36 9 0 4 -7 4 -17 1 -12 -5 -14 -3 -8 7 5
9 4 11 -4 6 -6 -4 -18 -2 -26 4 -10 9 -15 9 -15 1z"/>
<path d="M4120 935 c0 -7 30 -13 34 -7 3 4 -4 9 -15 9 -10 1 -19 0 -19 -2z"/>
<path d="M1620 175 c0 -5 5 -17 10 -25 5 -8 10 -10 10 -5 0 6 -5 17 -10 25 -5
8 -10 11 -10 5z"/>
<path d="M1651 144 c0 -11 3 -14 6 -6 3 7 2 16 -1 19 -3 4 -6 -2 -5 -13z"/>
<path d="M2023 60 c-13 -5 -23 -12 -23 -16 0 -3 6 -4 14 -1 8 3 17 1 20 -6 2
-7 5 -5 5 5 1 9 7 19 14 21 6 3 8 5 2 6 -5 0 -20 -4 -32 -9z"/>
<path d="M2130 10 c0 -5 10 -10 23 -10 18 0 19 2 7 10 -19 13 -30 13 -30 0z"/>
</g>
</svg>
