<?xml version="1.0" standalone="no"?>
<!DOCTYPE svg PUBLIC "-//W3C//DTD SVG 20010904//EN"
 "http://www.w3.org/TR/2001/REC-SVG-20010904/DTD/svg10.dtd">
<svg version="1.0" xmlns="http://www.w3.org/2000/svg"
 width="4096.000000pt" height="4096.000000pt" viewBox="0 0 4096.000000 4096.000000"
 preserveAspectRatio="xMidYMid meet">

<g transform="translate(0.000000,4096.000000) scale(0.100000,-0.100000)"
fill="#000000" stroke="none">
<path d="M0 20480 l0 -20480 20480 0 20480 0 0 20480 0 20480 -20480 0 -20480
0 0 -20480z m31270 14010 c236 -33 356 -59 540 -116 171 -52 210 -69 520 -217
207 -98 342 -189 655 -442 190 -153 470 -469 607 -685 69 -110 224 -418 282
-561 111 -275 186 -575 205 -824 44 -555 8 -887 -145 -1345 -58 -171 -80 -227
-170 -419 -187 -396 -542 -837 -920 -1143 -114 -92 -223 -166 -379 -255 -38
-22 -108 -63 -155 -90 -47 -27 -128 -68 -180 -91 -107 -46 -504 -182 -565
-193 -22 -4 -71 -14 -110 -23 -76 -17 -239 -45 -295 -51 -371 -38 -772 -29
-965 21 -33 9 -80 19 -105 21 -70 8 -250 56 -345 92 -11 5 -33 13 -50 18 -27
10 -89 35 -170 68 -60 25 -151 67 -175 81 -25 14 -59 31 -156 77 -28 13 -64
33 -80 44 -16 10 -45 27 -66 36 -20 10 -55 33 -78 52 -23 19 -46 35 -52 35 -5
0 -29 16 -52 35 -24 19 -50 35 -58 35 -8 0 -24 10 -35 23 -21 23 -77 71 -126
110 -15 12 -41 34 -57 50 -16 15 -33 27 -37 27 -5 0 -14 9 -21 20 -7 11 -19
20 -27 20 -8 0 -15 9 -15 20 0 11 -5 20 -11 20 -6 0 -31 23 -57 52 -26 29 -77
82 -114 117 -38 36 -68 69 -68 73 0 4 -13 22 -29 40 -84 94 -101 114 -101 126
0 17 -78 132 -90 132 -5 0 -12 10 -15 23 -4 12 -15 29 -25 37 -10 8 -33 42
-50 75 -18 33 -36 62 -41 65 -10 7 -67 123 -104 210 -15 36 -40 88 -56 116
-16 28 -29 60 -29 71 0 22 -37 120 -54 142 -6 8 -9 24 -8 37 2 13 -1 24 -6 24
-11 0 -27 88 -31 167 0 17 -9 39 -18 49 -11 10 -17 32 -17 58 1 22 -4 44 -10
48 -5 3 -11 26 -12 50 -1 24 -4 57 -7 73 -3 17 -8 59 -12 95 -4 36 -11 82 -16
103 -5 20 -12 72 -15 114 -2 42 -7 79 -9 83 -2 4 0 21 5 39 5 17 10 109 11
204 1 94 6 188 10 207 16 75 31 181 31 225 0 25 3 43 6 41 4 -2 7 11 8 30 0
19 5 44 11 56 14 30 63 236 63 266 0 12 4 22 9 22 4 0 14 21 21 48 37 139 263
607 350 727 20 28 58 82 85 120 301 436 747 820 1240 1068 232 117 594 240
830 282 50 9 180 27 290 40 173 21 232 24 435 20 163 -3 280 -11 380 -25z
m-17834 -2625 c111 -54 183 -168 192 -300 4 -66 2 -81 -22 -128 -37 -77 -99
-143 -161 -172 -42 -20 -69 -26 -132 -26 -128 -1 -181 20 -255 98 -54 59 -71
89 -88 160 -31 135 43 300 165 366 58 32 81 36 168 32 59 -2 91 -10 133 -30z
m9769 -1316 c204 -28 353 -161 406 -364 46 -172 2 -337 -124 -472 -91 -96
-237 -163 -359 -163 -187 1 -355 102 -437 264 -49 96 -75 260 -52 332 5 16 15
51 22 77 8 27 22 57 31 67 10 11 18 23 18 27 0 14 81 103 90 98 4 -3 10 4 13
15 5 20 48 44 86 49 5 0 13 10 16 21 11 34 30 40 202 59 6 0 46 -4 88 -10z
m-4879 -2030 c3 -6 24 -7 50 -3 29 4 49 2 59 -6 8 -7 31 -14 52 -15 21 -2 54
-6 73 -8 19 -3 96 -8 170 -12 74 -3 151 -11 171 -16 19 -5 70 -11 113 -14 77
-5 116 -17 116 -35 0 -6 9 -10 21 -10 15 0 19 5 15 15 -3 9 0 15 9 15 8 0 15
-4 15 -10 0 -14 79 -52 96 -46 8 3 14 2 14 -3 0 -5 12 -11 28 -14 15 -3 44
-17 64 -31 21 -14 45 -23 53 -20 8 3 28 -5 45 -19 16 -14 43 -28 60 -32 16 -4
30 -11 30 -16 0 -5 8 -13 17 -16 9 -4 24 -12 33 -19 8 -7 44 -34 78 -60 106
-78 289 -269 372 -389 27 -38 72 -115 101 -170 53 -103 111 -253 100 -259 -17
-9 -359 2 -378 12 -28 15 -116 15 -130 1 -7 -7 -44 -11 -90 -11 -135 1 -181
-25 -228 -130 -32 -70 -61 -230 -51 -281 6 -33 10 -36 34 -32 201 32 353 59
422 75 47 11 96 20 109 20 12 0 43 10 69 21 40 19 58 21 131 15 96 -7 143 -32
197 -103 55 -73 54 -198 -5 -353 -11 -30 -26 -75 -32 -100 -10 -41 -13 -43
-23 -25 -24 43 -132 138 -183 161 -120 55 -294 55 -433 -1 -75 -31 -181 -100
-227 -147 -47 -50 -118 -160 -136 -209 -8 -24 -21 -62 -29 -84 -8 -22 -21 -41
-30 -43 -9 -2 -36 16 -61 40 -110 103 -143 114 -335 104 -75 -4 -161 -10 -189
-13 l-53 -6 0 38 c0 26 -14 63 -44 119 -123 224 -276 346 -485 388 -202 39
-542 21 -673 -36 -30 -13 -36 -13 -32 -2 7 17 -51 32 -69 18 -16 -12 -89 -30
-105 -24 -6 2 -12 9 -12 16 0 20 -48 7 -55 -15 -8 -25 -25 -24 -25 1 0 12 7
20 16 20 25 0 12 35 -13 36 -13 1 -20 -2 -18 -6 3 -4 -2 -11 -11 -14 -13 -5
-15 -2 -11 14 4 16 2 20 -12 15 -21 -6 -48 19 -31 30 5 3 10 10 10 15 0 13
-56 5 -77 -11 -10 -7 -4 1 13 19 50 50 208 146 296 177 184 66 240 76 415 76
160 -1 365 -26 469 -57 44 -13 88 -24 97 -24 10 0 37 -10 60 -21 78 -39 210
-64 260 -49 94 28 175 159 184 300 l6 77 -34 25 c-48 36 -133 62 -179 54 -21
-3 -41 -2 -44 2 -3 5 -51 14 -108 21 -57 6 -132 19 -168 29 -76 20 -254 26
-287 10 -17 -8 -29 -8 -48 0 -30 14 -150 15 -215 2 -96 -19 -247 -58 -267 -69
-12 -6 -33 -11 -47 -11 -14 0 -26 -4 -26 -10 0 -5 -8 -10 -17 -10 -10 0 -31
-7 -47 -15 -16 -9 -36 -13 -43 -10 -8 2 -12 1 -9 -3 3 -4 -11 -8 -29 -8 -30 0
-33 2 -21 16 8 9 11 23 6 35 -4 11 -4 33 0 50 4 17 5 41 4 53 -2 12 1 22 7 22
5 0 8 4 4 9 -3 5 -1 12 4 16 7 4 7 15 1 30 -6 16 -6 25 0 25 6 0 10 6 10 14 0
8 6 27 14 43 20 40 34 75 39 101 5 19 3 21 -9 11 -11 -9 -14 -8 -14 5 0 9 6
16 13 16 12 1 54 81 60 115 1 11 6 26 10 33 5 6 6 16 2 21 -3 5 0 13 6 16 5 4
8 14 5 22 -3 8 -1 11 4 8 19 -12 31 5 19 27 -9 16 -7 24 10 42 11 12 22 31 24
41 7 44 49 105 121 177 15 15 24 28 20 28 -5 1 2 7 15 14 14 8 31 12 38 9 7
-3 13 0 13 6 0 6 -5 11 -11 11 -8 0 -7 5 2 16 7 8 21 13 31 11 10 -3 21 -1 24
4 3 5 15 9 26 9 12 0 32 10 45 22 13 12 23 16 23 10 0 -7 5 -12 10 -12 6 0 9
5 8 12 -2 7 2 13 7 13 6 1 30 11 55 23 25 12 54 22 66 22 11 0 24 4 30 10 16
16 58 18 73 2 13 -12 16 -12 26 1 12 17 46 21 197 24 50 1 90 -2 94 -8z m6199
-23 c111 -47 189 -208 164 -339 -15 -84 -87 -167 -187 -218 -138 -70 -349 21
-400 173 -34 100 16 263 101 331 58 48 83 59 147 68 64 8 132 2 175 -15z
m-3076 -386 c-1 -19 -39 60 -38 80 0 8 8 -3 19 -25 11 -22 19 -47 19 -55z m89
-195 c-3 -3 -9 2 -12 12 -6 14 -5 15 5 6 7 -7 10 -15 7 -18z m472 -156 c-7
-16 -19 -29 -27 -29 -10 0 -11 4 -3 19 5 11 15 32 22 48 9 23 12 25 15 10 3
-10 -1 -32 -7 -48z m-333 -124 c6 -19 10 -35 8 -35 -7 0 -85 123 -85 134 1 20
66 -63 77 -99z m61 -117 c-3 -7 -12 3 -21 21 -22 45 -21 49 4 17 11 -14 19
-32 17 -38z m-4783 -698 c-3 -5 -12 -10 -18 -10 -7 0 -6 4 3 10 19 12 23 12
15 0z m5753 -112 c16 -16 15 -38 -2 -38 -18 0 -30 -17 -17 -24 5 -4 16 1 24 9
20 19 31 19 47 0 17 -20 27 -19 35 5 9 27 33 25 61 -5 13 -14 32 -25 44 -25
11 0 20 -4 20 -9 0 -5 11 -11 25 -13 14 -3 25 -1 25 3 0 14 27 10 44 -6 8 -8
19 -15 25 -15 5 0 13 -5 17 -11 7 -12 -13 -29 -35 -29 -11 0 -11 3 -1 15 10
13 9 15 -9 15 -11 0 -21 5 -21 12 0 6 -3 9 -6 5 -3 -3 -2 -11 2 -18 4 -8 9
-33 10 -57 1 -24 -1 -39 -5 -33 -4 6 -21 14 -39 17 -28 6 -32 4 -32 -15 0 -23
-7 -25 -44 -11 -16 6 -27 6 -31 0 -8 -13 -97 0 -114 18 -8 8 -25 12 -39 9 -28
-5 -96 15 -115 35 -19 20 -14 42 11 48 l23 5 -30 34 c-17 19 -31 39 -31 44 0
5 22 7 50 5 41 -2 52 0 66 20 19 25 25 27 42 10z m-1305 -47 c4 -16 1 -18 -17
-12 -11 5 -22 18 -24 30 -3 20 -1 21 16 12 11 -6 22 -19 25 -30z m-3390 22
c-7 -2 -21 -2 -30 0 -10 3 -4 5 12 5 17 0 24 -2 18 -5z m116 -13 c115 -22 233
-100 301 -201 79 -115 111 -206 141 -394 21 -128 21 -133 8 -141 -7 -4 -14 -3
-17 4 -8 24 -21 0 -15 -28 7 -38 -13 -87 -38 -93 -11 -3 -19 -14 -19 -27 0
-16 4 -21 16 -16 33 13 9 -77 -50 -195 -95 -186 -173 -266 -345 -351 l-104
-51 -136 -8 c-317 -17 -516 51 -701 240 -146 149 -233 352 -262 607 -12 107
-8 137 17 128 17 -7 21 -49 5 -59 -16 -10 -12 -40 9 -66 12 -16 21 -50 25 -99
8 -83 70 -256 96 -265 17 -7 42 23 33 39 -4 6 1 5 10 -3 9 -7 23 -11 31 -8 8
3 22 -3 31 -13 21 -23 35 -17 35 15 0 13 4 26 9 29 14 9 41 -4 41 -20 0 -19
30 -18 31 1 1 8 2 25 3 37 0 12 7 23 14 26 6 2 12 12 12 23 0 10 7 19 15 19
17 0 18 2 9 24 -3 9 -11 16 -16 16 -15 0 -58 49 -58 66 0 16 17 19 22 4 2 -6
9 -1 16 11 13 20 12 21 -26 14 -31 -5 -41 -3 -46 10 -15 41 21 44 152 16 48
-11 107 -22 132 -25 74 -10 445 -25 603 -26 l149 0 -3 103 c-1 57 1 109 6 117
5 8 4 15 -2 17 -6 2 -8 14 -5 25 5 21 6 21 13 2 6 -16 8 -15 8 8 1 15 -4 39
-9 54 -7 18 -7 30 0 39 8 10 6 24 -8 52 -10 21 -22 53 -26 72 -10 55 -57 154
-90 189 -17 18 -50 44 -73 58 -24 14 -43 27 -43 29 0 8 44 6 99 -5z m4386 -10
c3 -5 1 -10 -4 -10 -6 0 -11 5 -11 10 0 6 2 10 4 10 3 0 8 -4 11 -10z m445
-20 c0 -5 -9 -6 -20 -3 -11 3 -17 9 -15 14 7 10 35 1 35 -11z m-2322 -46 c71
-28 198 -115 245 -168 34 -38 129 -177 182 -266 59 -100 92 -138 126 -145 34
-8 49 -32 28 -46 -20 -12 -25 -11 -44 7 -9 9 -17 15 -19 13 -2 -2 -11 -55 -21
-117 -58 -383 -220 -648 -487 -796 -106 -59 -185 -85 -303 -102 -60 -9 -112
-18 -114 -20 -2 -2 -7 -20 -11 -41 -19 -95 -85 -327 -117 -413 -67 -181 -188
-392 -322 -565 -26 -33 -90 -118 -141 -190 -123 -169 -361 -446 -485 -563
-203 -192 -354 -229 -760 -183 -44 5 -82 7 -85 4 -2 -2 -4 -115 -5 -251 0
-223 2 -255 22 -335 29 -113 71 -210 138 -322 70 -115 104 -209 120 -330 8
-60 15 -75 41 -79 24 -4 21 -19 -13 -62 -46 -61 -7 -36 65 41 39 41 73 75 76
75 3 0 6 -7 6 -15 0 -9 20 -37 45 -62 57 -57 69 -79 96 -173 29 -99 30 -107
34 -235 5 -139 -9 -255 -46 -382 -11 -38 -10 -45 6 -64 16 -16 17 -23 7 -37
-13 -18 -45 -85 -56 -116 -3 -10 22 11 56 48 46 48 67 64 77 57 17 -11 -4 -45
-78 -124 -61 -64 -73 -87 -101 -198 -16 -60 -20 -111 -20 -229 0 -83 4 -170 9
-193 6 -23 17 -95 26 -161 9 -65 23 -150 31 -190 18 -80 97 -312 126 -366 10
-19 18 -43 18 -52 0 -10 4 -18 9 -18 5 0 13 -9 16 -21 4 -11 25 -48 47 -82 23
-34 66 -100 97 -147 31 -47 72 -103 92 -125 20 -22 55 -69 79 -105 24 -36 48
-68 54 -72 8 -5 7 -16 0 -37 -8 -19 -8 -33 -2 -39 7 -7 4 -48 -6 -118 -10 -60
-21 -147 -26 -194 -12 -105 -37 -275 -95 -625 -42 -260 -89 -557 -119 -755
-50 -326 -59 -494 -31 -590 31 -106 31 -102 1 -90 -59 22 -176 12 -466 -40
-96 -17 -199 -33 -426 -67 l-30 -5 -2 169 c-5 372 -27 631 -82 978 -11 72 -29
198 -40 280 -24 183 -50 337 -60 350 -7 10 -15 49 -29 152 -11 84 -19 81 -35
-14 -3 -20 -1 -33 5 -33 6 0 8 -4 4 -9 -3 -5 -9 -30 -14 -55 -7 -40 -6 -46 10
-51 26 -9 25 -45 -1 -45 -29 0 -25 -28 5 -36 18 -5 25 -13 25 -31 0 -21 -4
-24 -22 -20 -13 2 -31 8 -41 12 -16 7 -18 4 -15 -21 2 -21 10 -30 28 -34 29
-7 40 -47 16 -56 -11 -4 -16 -19 -16 -46 0 -54 -24 -45 -28 11 -3 38 -5 41
-25 35 -12 -4 -24 -10 -27 -14 -3 -4 -15 -12 -27 -19 -12 -6 -21 -17 -18 -24
14 -45 15 -69 4 -65 -8 3 -13 26 -13 64 -1 75 -15 101 -30 56 -11 -30 -12 -27
-38 71 -33 129 -44 181 -58 287 -6 47 -18 123 -26 170 -7 47 -21 130 -30 185
-9 55 -20 108 -25 117 -5 9 -9 28 -9 41 0 14 -7 44 -16 68 -8 24 -19 64 -23
89 -8 44 -30 136 -56 235 -8 28 -18 68 -23 90 -6 22 -17 65 -26 96 -9 31 -16
68 -16 82 0 14 -9 49 -20 77 -11 28 -34 135 -51 238 l-32 187 13 165 c7 91 13
176 15 190 1 14 3 69 3 123 1 53 5 97 10 97 6 0 27 -72 62 -210 4 -19 13 -69
20 -110 11 -70 28 -144 51 -215 6 -16 19 -66 30 -110 11 -44 29 -99 40 -122
10 -24 19 -53 19 -66 0 -13 4 -27 9 -33 14 -15 40 -104 35 -118 -3 -7 2 -18
10 -25 9 -7 18 -29 22 -50 4 -20 12 -47 19 -61 7 -14 18 -49 25 -78 6 -28 16
-55 21 -58 5 -3 9 -16 9 -30 0 -14 9 -43 20 -65 10 -23 22 -62 26 -87 4 -26
13 -51 19 -57 7 -5 15 -23 18 -40 3 -16 17 -73 32 -125 14 -52 30 -123 34
-157 6 -37 17 -73 30 -89 31 -39 31 -41 -29 301 -20 116 -120 487 -171 635
-10 31 -20 69 -23 85 -2 17 -11 47 -20 67 -9 21 -16 49 -16 64 0 14 -7 47 -15
73 -19 60 -45 194 -45 230 0 30 -67 310 -99 416 -53 170 -155 389 -226 482
-24 31 -56 56 -104 80 -48 24 -71 42 -75 58 -4 16 -18 26 -49 34 -35 10 -45
18 -53 44 -6 21 -18 34 -39 40 -16 5 -37 16 -46 23 -8 8 -23 14 -31 14 -9 0
-40 11 -69 24 -51 23 -60 24 -159 17 -141 -10 -203 -35 -622 -254 -31 -16 -62
-27 -70 -24 -7 3 4 12 27 22 22 9 65 34 95 55 31 20 66 40 78 44 23 8 111 85
99 87 -4 1 -15 2 -24 3 -29 2 -45 16 -34 30 13 15 2 33 -24 37 -12 3 -20 12
-20 24 0 11 -8 23 -17 27 -11 4 -18 18 -18 34 0 14 -9 33 -20 42 -12 10 -22
31 -23 49 -1 18 -5 33 -9 33 -5 0 -8 5 -8 11 0 6 -7 17 -15 25 -9 9 -13 26
-11 42 5 25 4 26 -9 8 -13 -17 -15 -18 -21 -2 -3 9 -1 23 6 31 10 12 10 19 -1
33 -8 9 -20 28 -27 41 -11 19 -11 22 0 15 10 -6 11 -5 2 7 -20 24 -33 86 -22
97 14 14 2 45 -13 36 -7 -4 -9 -3 -6 3 4 6 -3 23 -14 37 -25 32 -18 47 10 22
11 -10 24 -15 29 -12 5 3 21 -4 36 -15 47 -37 27 -11 -59 78 -112 114 -115
118 -115 128 0 5 19 -9 43 -31 23 -23 56 -52 73 -65 17 -13 62 -49 100 -80
112 -91 205 -148 255 -157 l47 -9 -2 28 c-2 24 2 29 21 29 19 0 23 5 23 29 0
41 9 61 29 61 21 0 64 44 54 54 -5 4 -1 6 7 4 11 -2 14 4 12 21 -2 15 0 21 7
16 8 -4 10 5 9 27 -3 28 1 34 20 36 14 2 22 10 22 23 0 10 7 19 15 19 20 0 19
13 -5 40 -18 20 -18 25 -6 39 42 46 52 58 63 82 8 18 8 30 1 37 -6 6 -7 20 -2
33 4 13 8 28 9 33 0 12 35 17 35 5 0 -5 5 -9 11 -9 8 0 8 5 -1 15 -7 8 -10 21
-6 30 3 8 2 14 -2 12 -9 -3 -12 7 -12 36 0 16 3 18 9 8 11 -18 23 2 14 25 -5
13 -3 15 8 9 12 -7 12 -6 1 7 -8 10 -9 19 -3 22 10 7 9 25 -2 44 -5 8 -2 12 8
12 9 0 14 -4 10 -9 -9 -16 12 -22 24 -7 8 9 8 16 2 20 -5 4 -8 15 -6 26 2 11
0 20 -6 20 -15 0 -10 33 8 60 9 13 17 36 18 49 0 15 8 30 20 36 17 8 21 21 23
74 2 66 31 131 60 131 6 0 12 8 12 18 0 10 11 29 25 42 14 13 25 29 25 35 0 6
11 22 25 35 13 12 22 26 20 30 -3 4 2 13 10 20 11 10 18 9 32 -5 16 -16 17
-16 25 4 4 12 16 21 28 21 11 0 20 7 20 15 0 9 12 20 26 25 15 6 22 14 18 22
-4 6 -3 8 3 5 6 -4 16 0 23 8 7 8 16 12 21 9 5 -3 9 -1 9 5 0 18 28 1 33 -20
6 -21 23 -22 45 -1 16 14 62 16 62 2 0 -5 5 -10 10 -10 6 0 8 10 4 24 -6 27
13 46 22 22 8 -21 54 -21 54 0 0 12 6 15 24 10 17 -4 34 2 61 24 21 16 41 27
46 24 5 -3 9 0 9 5 0 6 8 11 18 10 10 0 12 -3 5 -6 -7 -2 -13 -9 -13 -14 0
-16 19 -10 37 11 10 11 23 20 30 20 7 0 10 6 7 14 -6 15 43 48 91 61 28 7 28
8 8 14 -17 5 -20 10 -13 21 6 9 10 10 10 3 0 -18 33 -21 53 -5 11 10 17 11 17
4 0 -7 3 -11 8 -10 10 3 82 -12 101 -21 9 -4 30 -16 46 -25 27 -15 101 -51
192 -93 53 -25 59 -9 7 17 -27 13 -73 39 -102 57 -29 18 -55 33 -58 33 -4 0
-27 17 -53 38 -25 21 -69 52 -97 67 -30 17 -50 34 -47 41 3 8 -2 11 -16 7 -13
-3 -28 3 -43 20 -13 14 -35 39 -50 56 -16 16 -40 31 -55 33 -19 2 -28 8 -27
20 1 10 -2 15 -7 12 -5 -3 -9 2 -9 11 0 9 -9 19 -20 22 -11 3 -17 9 -14 14 3
5 1 9 -5 9 -16 0 -62 51 -64 70 -1 12 -12 20 -29 24 -22 4 -28 11 -28 31 0 15
-5 25 -12 24 -31 -4 -42 1 -31 12 9 9 4 19 -19 40 -16 16 -38 29 -48 29 -19 0
-30 19 -30 52 0 11 -13 33 -29 49 -16 16 -31 42 -33 57 -2 17 -9 27 -20 27
-26 0 -58 49 -61 97 -2 23 -9 53 -15 65 -7 12 -12 29 -12 37 0 9 -6 16 -14 16
-22 0 -28 31 -9 52 16 18 16 19 -4 24 -12 3 -28 20 -37 37 -14 30 -14 33 5 53
22 23 25 44 6 44 -7 0 -14 13 -15 28 -2 21 4 32 23 42 14 7 25 19 25 27 0 7 5
13 12 13 8 0 9 3 2 10 -12 12 -47 2 -39 -10 3 -5 -4 -6 -15 -3 -11 3 -20 7
-20 10 0 12 57 73 68 73 6 0 12 9 12 20 0 11 7 20 15 20 8 0 15 2 15 4 0 2 3
11 6 20 4 11 1 16 -10 16 -9 0 -16 4 -16 9 0 25 14 41 36 41 15 0 24 6 24 15
0 8 7 15 15 15 9 0 12 6 9 15 -4 8 -1 21 5 28 5 7 9 26 8 43 -2 25 1 29 21 26
13 -2 22 2 23 10 2 37 10 54 34 71 24 18 25 21 11 42 -8 12 -15 41 -14 64 0
23 -5 48 -12 56 -7 8 -10 25 -6 40 5 19 3 25 -10 25 -10 0 -14 3 -11 6 3 4 1
16 -5 28 -7 11 -11 24 -10 28 1 4 -5 5 -13 2 -11 -4 -15 1 -15 16 0 15 5 20
14 17 27 -10 23 17 -6 45 -28 27 -36 48 -19 48 5 0 11 -4 13 -8 13 -32 259
-158 368 -189 92 -25 368 -25 459 0 194 55 326 141 438 286 42 55 137 242 157
310 9 29 20 59 24 65 19 24 34 106 27 138 -5 18 -8 73 -8 122 0 80 3 92 22
107 30 25 112 34 281 33 158 -1 198 -12 251 -69 13 -14 43 -39 67 -56 51 -37
54 -56 7 -65 -41 -7 -46 -31 -14 -59 13 -13 19 -29 17 -50 -8 -89 53 -358 104
-459 34 -67 120 -186 164 -227 36 -33 136 -100 189 -127 82 -41 240 -84 345
-95 97 -9 116 -8 250 16 218 41 317 87 443 207 191 181 300 403 322 655 4 44
13 91 20 104 17 33 0 70 -106 243 -111 180 -229 298 -363 363 -103 50 -106 58
-8 19z m889 -81 l13 -27 -30 29 c-35 34 -35 35 -12 29 9 -3 23 -17 29 -31z
m-1527 -11 c0 -14 -11 -21 -26 -15 -21 8 -17 23 6 23 11 0 20 -4 20 -8z m215
-164 c18 -45 13 -48 -20 -10 -27 30 -37 88 -10 62 8 -8 21 -32 30 -52z m-2851
14 c-17 -36 -34 -42 -34 -13 0 15 39 54 48 47 1 -2 -5 -17 -14 -34z m4506 18
c0 -5 -2 -10 -4 -10 -3 0 -8 5 -11 10 -3 6 -1 10 4 10 6 0 11 -4 11 -10z
m-4920 -24 c0 -2 -7 -9 -15 -16 -13 -11 -14 -10 -9 4 5 14 24 23 24 12z m600
-25 c21 -17 22 -21 10 -35 -18 -23 -25 -148 -11 -220 15 -83 8 -90 -89 -81
-77 7 -177 35 -217 61 -33 21 -29 62 10 117 28 39 85 91 131 119 13 8 129 57
136 57 3 0 16 -8 30 -18z m360 9 c0 -5 1 -13 3 -16 2 -6 -76 -33 -95 -34 -12
0 -9 35 4 48 14 14 88 16 88 2z m-160 -20 c-9 -17 -30 -28 -30 -16 0 16 15 36
26 36 12 0 12 -4 4 -20z m4115 -7 c-3 -16 -10 -32 -15 -37 -5 -5 -4 7 2 27 13
43 23 50 13 10z m-3911 11 c9 -3 16 -17 16 -30 0 -19 -5 -24 -25 -24 -30 0
-43 24 -25 45 14 17 13 17 34 9z m2097 -32 c15 -6 40 -28 58 -49 54 -65 63
-133 35 -269 -19 -93 -31 -119 -75 -162 -24 -23 -49 -35 -90 -44 -61 -12 -70
-28 -16 -28 77 0 210 103 224 172 6 28 17 36 27 19 23 -36 29 -852 8 -873 -9
-9 -47 -13 -125 -12 -126 0 -174 14 -311 85 -150 79 -298 254 -359 424 -35 99
-54 275 -31 288 8 4 14 17 14 27 0 26 26 26 42 0 7 -11 19 -20 26 -20 8 0 41
-15 75 -34 39 -22 75 -34 98 -34 20 0 54 -9 76 -20 29 -15 55 -20 94 -18 79 4
81 5 73 17 -4 8 -28 10 -68 6 -91 -7 -116 10 -53 37 39 17 92 67 112 106 8 16
22 57 30 92 13 58 13 69 -6 150 -11 48 -27 92 -35 99 -22 18 -17 34 18 50 33
16 106 12 159 -9z m239 -16 c0 -13 -20 -26 -40 -26 -4 0 -10 8 -12 18 -4 14 1
18 23 20 19 2 29 -2 29 -12z m-2642 -28 c16 -16 15 -48 -1 -48 -19 0 -37 21
-37 42 0 21 20 24 38 6z m2626 -59 c-7 -12 -41 -12 -49 0 -9 15 28 31 42 19 7
-6 10 -14 7 -19z m-684 4 c0 -5 -13 -19 -30 -33 -41 -34 -71 -117 -60 -165 8
-36 23 -58 67 -103 43 -43 4 -57 -50 -19 -44 31 -47 35 -47 93 0 27 -5 55 -11
61 -9 9 -2 28 27 77 21 36 44 66 51 66 8 0 16 7 19 15 6 15 34 21 34 8z
m-2633 -65 c-3 -7 -5 -2 -5 12 0 14 2 19 5 13 2 -7 2 -19 0 -25z m3275 -30
c-9 -9 -12 -7 -12 12 0 19 3 21 12 12 9 -9 9 -15 0 -24z m-810 0 c-7 -7 -12
-8 -12 -2 0 14 12 26 19 19 2 -3 -1 -11 -7 -17z m-1353 -19 c-16 -10 -23 -4
-14 10 3 6 11 8 17 5 6 -4 5 -9 -3 -15z m71 -5 c0 -8 -5 -12 -10 -9 -6 4 -8
11 -5 16 9 14 15 11 15 -7z m1578 -12 c2 -14 -2 -22 -12 -22 -19 0 -29 17 -22
36 8 22 30 12 34 -14z m-1687 -25 c-13 -13 -26 -3 -16 12 3 6 11 8 17 5 6 -4
6 -10 -1 -17z m1349 9 c0 -8 -4 -17 -9 -21 -12 -7 -24 12 -16 25 9 15 25 12
25 -4z m860 -28 c0 -5 -7 -8 -15 -8 -15 0 -20 21 -8 33 7 7 23 -11 23 -25z
m-402 -84 c2 -24 -3 -35 -23 -48 -24 -16 -26 -16 -32 0 -3 9 -1 25 5 35 7 10
12 26 12 35 0 30 35 11 38 -22z m3023 -252 c12 -31 27 -63 32 -70 15 -19 21
-277 9 -369 -7 -46 -19 -107 -27 -135 -49 -159 -69 -217 -91 -250 -13 -21 -24
-43 -24 -49 0 -6 -14 -33 -32 -60 -31 -48 -50 -60 -63 -38 -4 6 -13 8 -20 5
-16 -6 -75 21 -75 34 0 5 6 13 14 17 29 17 40 63 15 63 -7 0 -55 -38 -96 -77
-22 -22 -62 -30 -75 -17 -4 3 0 21 8 40 15 36 9 42 -21 20 -10 -7 -16 -20 -12
-29 8 -22 -32 -30 -61 -11 -16 11 -21 21 -16 32 4 9 10 42 14 72 7 55 34 168
49 205 45 109 62 204 67 370 2 72 5 138 7 147 4 20 17 36 17 21 0 -6 8 -10 17
-9 25 2 48 -100 56 -244 4 -62 9 -115 11 -117 10 -10 26 9 26 30 0 12 7 55 15
94 8 40 14 95 12 123 -1 27 1 50 5 50 4 0 8 10 8 23 0 12 4 18 8 12 4 -5 14
-10 22 -10 8 0 14 -6 13 -12 -2 -7 3 -13 11 -13 7 0 17 -12 20 -27 11 -44 26
-115 32 -146 2 -16 5 -32 6 -35 1 -4 -2 -17 -6 -30 -5 -16 -2 -31 10 -50 10
-15 23 -38 30 -51 l13 -25 11 28 c6 16 19 40 30 54 16 19 19 35 16 66 -3 22 0
46 6 53 6 8 12 30 14 51 2 20 6 57 8 82 5 44 -27 147 -59 193 -7 9 -10 29 -7
42 6 36 25 18 53 -53z m-191 -57 c0 -8 -2 -15 -4 -15 -2 0 -6 7 -10 15 -3 8
-1 15 4 15 6 0 10 -7 10 -15z m-5550 -254 c-1 -12 -5 -10 -20 8 -26 30 -26 49
0 26 11 -10 20 -25 20 -34z m30 -21 c0 -5 -5 -10 -11 -10 -5 0 -7 5 -4 10 3 6
8 10 11 10 2 0 4 -4 4 -10z m5247 -182 c-3 -8 -6 -5 -6 6 -1 11 2 17 5 13 3
-3 4 -12 1 -19z m-5317 -533 c0 -8 -7 -15 -15 -15 -16 0 -20 12 -8 23 11 12
23 8 23 -8z m4231 -703 c34 -97 42 -130 35 -157 -9 -37 -22 -23 -30 33 -3 26
-13 58 -22 70 -9 13 -18 51 -21 85 -5 72 5 63 38 -31z m685 -129 c32 -21 64
-42 73 -48 8 -5 21 -15 27 -21 7 -6 35 -25 63 -43 28 -18 48 -37 45 -42 -11
-19 -66 -40 -86 -33 -14 4 -18 2 -14 -5 4 -6 1 -11 -6 -12 -7 0 -25 -3 -41 -5
-33 -6 -107 13 -107 26 0 6 -10 10 -23 10 -19 0 -40 19 -46 42 -1 4 -8 26 -16
47 -9 27 -11 50 -5 70 4 16 6 32 3 35 -3 2 -2 10 2 16 13 20 70 4 131 -37z
m159 -20 c37 -33 32 -32 -32 8 -22 13 -31 29 -15 29 4 0 25 -17 47 -37z m-746
-243 c18 -22 31 -48 29 -57 -2 -12 -14 -2 -41 34 -20 28 -37 53 -37 57 0 16
20 2 49 -34z m61 -110 c6 -11 7 -20 3 -20 -5 0 -14 9 -21 20 -7 11 -8 20 -2
20 5 0 14 -9 20 -20z m125 10 c3 -5 -1 -10 -9 -10 -8 0 -18 5 -21 10 -3 6 1
10 9 10 8 0 18 -4 21 -10z m-4555 -450 c0 -5 -5 -9 -12 -7 -6 1 -18 -11 -26
-26 -10 -20 -17 -26 -24 -19 -13 13 -2 46 12 37 6 -3 13 1 16 9 7 18 34 22 34
6z m3330 -290 c-34 -11 -60 -11 -35 0 11 5 29 8 40 8 16 0 15 -2 -5 -8z
m-3650 -161 c0 -18 -2 -19 -15 -9 -15 12 -12 30 6 30 5 0 9 -10 9 -21z m2480
-39 c0 -11 4 -11 -75 -11 -82 -1 -91 3 -25 11 87 11 100 11 100 0z m1660 -155
c140 -8 359 -19 485 -25 478 -22 664 -31 1135 -55 267 -14 663 -34 880 -45
217 -11 458 -25 535 -30 77 -6 275 -17 440 -25 165 -8 440 -21 610 -30 171 -8
407 -19 525 -25 476 -23 632 -31 785 -40 88 -5 266 -14 395 -20 129 -6 348
-17 485 -25 138 -9 333 -20 435 -25 325 -17 431 -45 480 -125 72 -117 67 -300
-25 -831 -14 -82 -41 -250 -60 -374 -32 -206 -50 -316 -146 -880 -17 -102 -37
-223 -44 -270 -8 -47 -37 -222 -65 -390 -28 -168 -62 -375 -76 -460 -13 -85
-31 -191 -39 -235 -7 -44 -26 -154 -40 -245 -27 -172 -42 -262 -155 -930 -86
-508 -112 -683 -102 -691 4 -3 35 -13 70 -23 131 -35 337 -162 454 -279 140
-142 276 -390 347 -632 119 -407 132 -969 40 -1750 -42 -362 -241 -1451 -269
-1479 -8 -8 -8 -2 0 18 6 16 13 66 16 110 11 189 13 212 24 240 7 19 7 31 1
36 -7 4 -5 16 5 35 8 17 14 50 13 79 -3 61 11 187 21 201 4 6 10 38 14 73 6
54 5 62 -10 62 -13 0 -15 6 -9 27 4 16 12 34 18 41 18 22 18 52 2 85 -19 38
-19 39 2 35 14 -2 19 6 23 42 3 25 9 51 14 58 11 18 -13 44 -35 37 -13 -4 -19
-1 -19 9 0 8 -7 21 -15 30 -13 13 -12 18 11 45 22 26 24 36 16 59 -6 17 -6 36
0 52 7 19 5 33 -8 57 -9 18 -21 30 -25 27 -5 -3 -9 0 -9 6 0 6 11 15 25 20 26
10 35 40 11 40 -12 0 -22 14 -27 38 -1 4 -5 17 -10 29 -6 17 -4 23 9 26 13 3
10 7 -12 16 -21 8 -27 16 -23 31 3 11 1 20 -5 20 -6 0 -7 11 -4 25 6 24 -4 31
-36 26 -9 -1 -10 7 -2 37 4 12 13 22 20 22 8 0 14 10 14 25 0 28 -21 33 -40
10 -7 -8 -16 -12 -21 -10 -9 6 7 57 22 66 13 8 0 39 -17 39 -8 0 -14 6 -15 13
0 6 -2 21 -4 32 -3 13 6 28 23 42 24 19 25 22 9 28 -9 4 -24 2 -31 -4 -10 -9
-16 -9 -21 -1 -4 6 -1 9 6 8 8 -2 14 7 14 22 1 29 -25 66 -35 50 -4 -6 -12 0
-20 15 -11 21 -11 27 2 42 17 19 13 43 -8 56 -9 5 -14 28 -14 66 0 38 -5 63
-14 70 -14 12 -16 35 -3 47 8 8 -1 24 -14 24 -5 0 -9 -7 -9 -15 0 -8 -4 -15
-10 -15 -13 0 -32 38 -28 58 2 9 -5 25 -16 36 -14 14 -16 20 -5 26 10 7 10 11
0 24 -8 9 -20 16 -27 16 -8 0 -14 10 -15 23 0 12 -2 30 -4 40 -2 9 1 15 5 12
19 -12 18 14 -1 31 -11 10 -20 14 -19 9 5 -24 -1 -35 -20 -35 -26 0 -26 26 1
41 l22 11 -26 24 c-14 13 -31 24 -37 24 -5 0 -10 5 -10 11 0 5 -4 8 -9 5 -5
-3 -7 9 -6 27 4 36 -20 81 -37 71 -7 -5 -8 -3 -4 5 5 8 0 14 -13 18 -27 7 -27
38 1 57 19 14 20 16 5 22 -10 3 -25 0 -35 -7 -11 -8 -13 -9 -6 -1 6 7 8 26 6
43 -3 23 -9 29 -25 27 -11 -2 -22 3 -24 10 -3 6 1 12 7 12 10 0 9 4 0 15 -10
12 -16 13 -26 4 -10 -8 -14 -8 -14 0 0 6 5 11 10 11 19 0 10 30 -15 52 -17 15
-22 25 -15 33 6 8 5 18 -5 31 -13 18 -14 18 -15 1 0 -11 -5 -15 -11 -11 -6 4
-8 20 -4 40 5 30 3 35 -20 44 -14 5 -25 12 -25 15 0 4 5 3 10 0 6 -3 10 3 10
13 0 11 -7 23 -16 26 -10 4 -14 14 -11 25 3 15 0 17 -17 14 -15 -3 -17 -2 -8
5 11 7 11 10 -2 15 -8 3 -17 1 -19 -6 -3 -9 -8 -9 -18 1 -11 10 -11 16 -1 32
6 11 12 24 12 30 0 12 -22 9 -31 -4 -4 -4 -12 8 -19 28 -6 20 -15 36 -19 36
-4 0 -13 12 -20 27 -10 21 -14 24 -21 13 -13 -22 -19 -9 -22 47 -2 28 -5 49
-8 46 -5 -4 -6 -8 -9 -33 0 -5 -6 -10 -12 -10 -7 0 -10 12 -7 29 2 17 1 28 -4
25 -4 -3 -12 3 -16 13 -4 10 -16 18 -27 18 -16 0 -19 6 -17 28 2 19 -2 29 -14
34 -10 4 -19 2 -22 -5 -5 -15 -32 -3 -32 14 0 8 -18 21 -41 30 -37 15 -39 19
-34 45 4 18 2 29 -4 29 -6 0 -8 -7 -5 -15 4 -10 0 -15 -14 -15 -21 0 -46 23
-35 33 11 11 -19 37 -43 37 -13 0 -24 5 -24 10 0 6 -3 9 -7 8 -12 -2 -46 13
-67 31 -16 13 -18 13 -11 1 14 -23 14 -37 0 -37 -7 0 -11 6 -8 14 3 7 -2 13
-12 13 -9 0 -14 4 -10 9 7 13 -45 52 -58 44 -5 -3 -65 -5 -133 -4 -112 1 -129
-1 -183 -24 -33 -14 -74 -25 -90 -25 -16 0 -31 -4 -33 -8 -5 -12 -163 -89
-199 -97 -18 -4 -41 -17 -50 -29 -18 -21 -22 -5 -6 22 5 7 3 12 -7 12 -9 0
-15 -5 -14 -11 2 -6 -6 -12 -17 -13 -11 -2 -40 -16 -64 -32 -24 -16 -51 -33
-60 -39 -8 -5 -37 -25 -64 -43 -27 -19 -52 -31 -55 -27 -4 4 1 11 11 16 9 6
17 18 17 29 0 10 6 21 13 24 6 3 -3 3 -22 0 -18 -3 -40 -7 -47 -8 -7 -1 -24
-12 -38 -25 l-24 -23 -7 22 c-4 12 -1 27 5 35 9 11 9 15 1 15 -6 0 -11 -4 -11
-9 0 -5 -17 -17 -37 -26 -21 -10 -51 -27 -66 -37 -18 -13 -34 -17 -45 -12 -23
10 -40 6 -72 -18 -15 -11 -45 -22 -66 -25 -22 -3 -44 -9 -50 -14 -6 -5 -15 -5
-20 -1 -5 4 -6 3 -2 -2 4 -5 2 -16 -5 -24 -8 -11 -8 -14 0 -9 6 4 15 3 18 -3
4 -6 3 -10 -2 -9 -4 1 -11 0 -15 -1 -41 -13 -201 -27 -255 -21 -6 0 -19 8 -27
17 -21 20 -70 28 -93 15 -17 -10 -17 -10 0 -11 9 0 17 -4 17 -9 0 -13 -315
-13 -380 0 -30 6 -61 18 -67 27 -7 8 -15 13 -19 10 -6 -7 84 -165 148 -260 21
-31 38 -59 38 -62 0 -3 22 -43 48 -88 69 -118 152 -264 170 -301 8 -18 43 -81
77 -142 71 -126 92 -164 240 -440 121 -224 190 -349 245 -445 21 -36 68 -119
106 -185 60 -106 210 -349 392 -636 76 -120 289 -436 491 -729 217 -316 283
-412 466 -682 88 -131 246 -364 350 -518 105 -154 204 -302 220 -329 17 -26
50 -76 75 -110 57 -80 110 -164 110 -174 0 -15 -25 -1 -35 19 -5 11 -36 56
-68 99 -32 44 -82 117 -111 162 -59 93 -120 163 -141 163 -7 0 -17 9 -20 20
-3 11 -13 20 -22 20 -8 0 -17 9 -20 20 -3 11 -8 20 -12 20 -4 0 -22 13 -39 28
-22 20 -32 38 -34 65 -1 20 -4 34 -6 32 -6 -6 -71 67 -78 88 -3 10 -16 29 -30
42 -13 13 -24 29 -24 35 0 5 -6 10 -13 10 -7 0 -13 9 -14 20 -1 11 -20 44 -42
72 -23 28 -41 55 -41 60 0 6 -12 22 -27 37 -57 56 -93 98 -93 107 0 5 -12 22
-27 39 -15 16 -26 37 -25 47 2 11 -3 18 -12 18 -9 0 -16 6 -16 14 0 7 -22 34
-50 60 -27 26 -50 53 -50 61 0 8 -29 44 -66 79 -40 40 -64 72 -62 83 2 10 -3
18 -12 18 -8 0 -20 10 -26 23 -6 13 -15 23 -20 24 -5 0 -8 4 -6 9 1 5 -2 9 -8
9 -5 0 -10 5 -10 12 0 6 -9 22 -21 34 -11 12 -22 30 -23 40 -1 11 -12 23 -24
29 -12 5 -22 18 -24 30 -2 11 -11 21 -22 23 -11 3 -16 0 -12 -7 5 -7 1 -9 -8
-5 -18 7 -21 39 -6 49 19 12 10 35 -16 41 -19 5 -22 9 -12 15 7 5 8 9 3 9 -17
0 -66 50 -60 61 4 5 -5 13 -19 18 -13 6 -27 19 -31 31 -3 11 -11 18 -16 15 -5
-4 -9 1 -9 9 0 8 -10 21 -22 28 -16 9 -23 22 -23 42 0 16 -6 31 -14 34 -10 3
-12 0 -8 -12 9 -24 -16 -20 -39 7 -11 12 -27 39 -37 60 -9 20 -21 37 -26 37
-5 0 -14 14 -20 30 -6 20 -17 30 -30 30 -13 0 -26 12 -36 30 -8 16 -25 34 -36
41 -14 7 -19 17 -16 30 3 10 2 17 -3 14 -12 -8 -42 32 -49 67 -5 23 -13 33
-26 34 -39 2 -45 4 -45 17 -1 16 -46 67 -60 67 -5 0 -10 13 -10 29 0 21 -5 28
-17 27 -11 0 -18 6 -18 17 0 11 -10 27 -23 37 -12 10 -22 23 -22 30 0 6 -16
18 -35 26 -33 13 -48 34 -25 34 6 0 10 7 10 15 0 8 -4 15 -8 15 -17 0 -102 86
-102 103 0 10 -7 20 -15 23 -8 4 -13 10 -10 14 3 5 -6 7 -20 4 -23 -4 -26 -2
-23 23 2 22 -1 29 -19 31 -24 4 -35 26 -29 59 3 13 1 25 -5 28 -5 4 -10 -6
-10 -22 -1 -17 -3 -21 -6 -10 -2 9 -8 17 -12 17 -17 0 -58 46 -56 62 2 10 -5
20 -16 23 -10 4 -19 13 -19 21 0 8 -4 13 -8 10 -4 -2 -9 7 -10 22 -1 15 -8 32
-15 37 -8 6 -21 25 -31 43 -9 17 -20 32 -24 32 -4 0 -8 10 -9 21 -2 28 -11 35
-25 21 -20 -20 -50 5 -44 39 2 16 -1 32 -6 35 -7 5 -8 2 -3 -6 5 -8 4 -11 -3
-6 -6 3 -14 21 -18 39 -5 23 -8 27 -13 15 -5 -14 -8 -15 -25 -3 -17 13 -17 15
-3 21 15 5 15 8 2 21 -8 8 -15 20 -15 27 0 7 -18 25 -39 42 -47 35 -72 73 -69
105 2 18 -2 24 -17 24 -15 0 -19 6 -17 22 3 24 -3 34 -56 89 -19 19 -35 40
-36 47 -7 39 -18 55 -35 50 -20 -5 -54 23 -46 38 4 5 0 9 -8 9 -17 0 -30 37
-14 43 6 2 8 11 4 21 -4 10 -13 16 -21 13 -8 -3 -24 6 -37 20 -13 15 -19 23
-12 19 14 -8 -10 43 -25 53 -15 10 -61 87 -67 114 -4 14 -15 27 -26 30 -10 3
-23 16 -28 29 -5 13 -16 30 -26 38 -14 12 -18 12 -26 -1 -6 -9 -7 -3 -3 19 6
29 2 37 -36 74 -23 23 -50 56 -59 74 -10 19 -21 31 -25 27 -3 -3 -6 0 -6 7 0
7 -8 20 -18 29 -10 9 -21 24 -25 35 -4 10 -13 16 -22 12 -17 -6 -30 10 -16 19
15 9 2 37 -30 66 -16 15 -30 38 -31 52 -1 14 -5 25 -8 25 -21 -2 -31 4 -27 16
3 7 -8 26 -23 41 -16 16 -27 32 -24 37 3 4 -2 8 -10 8 -9 0 -16 7 -16 15 0 9
-12 27 -26 40 -15 14 -23 25 -19 25 4 0 2 7 -5 15 -7 8 -17 12 -24 8 -6 -4 -6
0 2 9 11 13 7 19 -23 37 -19 11 -34 25 -33 30 2 5 -15 29 -38 53 -22 23 -50
60 -63 81 -12 20 -27 35 -31 32 -5 -3 -16 2 -25 12 -8 10 -31 37 -51 60 -20
23 -41 41 -47 40 -7 -1 -11 4 -10 11 2 6 -4 12 -12 12 -8 0 -15 6 -15 13 0 19
-32 47 -60 52 -22 4 -53 25 -37 25 3 0 -5 12 -19 27 -14 15 -34 28 -45 28 -11
0 -25 11 -32 25 -11 21 -20 25 -61 26 -47 1 -66 13 -66 42 0 7 -5 10 -10 7 -6
-3 -22 3 -36 14 -15 12 -41 21 -60 21 -19 0 -34 4 -34 8 0 5 -26 6 -58 4 -53
-4 -62 -1 -88 23 -24 22 -30 24 -32 11 -2 -9 -7 -14 -12 -11 -5 3 -19 0 -31
-7 -17 -10 -23 -10 -26 0 -6 15 -49 16 -58 2 -5 -8 -11 -7 -21 1 -11 9 -21 9
-42 -1 -15 -7 -54 -18 -87 -25 -63 -14 -298 -111 -303 -126 -2 -5 -12 -9 -21
-9 -10 0 -40 -12 -67 -27 -96 -52 -139 -73 -149 -73 -6 0 -16 -9 -23 -20 -15
-24 -67 -29 -59 -6 8 21 -15 11 -93 -39 -36 -23 -80 -50 -97 -59 -18 -9 -33
-21 -33 -26 0 -6 -5 -10 -11 -10 -6 0 -1 12 10 26 12 15 21 31 21 36 0 19 -55
-4 -100 -41 -25 -20 -53 -40 -63 -44 -17 -6 -17 -6 0 18 10 13 28 28 41 34 12
6 22 15 22 21 0 21 -30 21 -63 1 -19 -12 -45 -21 -59 -21 -13 0 -28 -4 -34
-10 -5 -5 -22 -11 -37 -12 -16 -1 -29 -10 -33 -20 -5 -17 -42 -24 -97 -18 -10
1 -25 -4 -32 -10 -11 -9 -30 -9 -77 -1 -39 6 -78 7 -101 2 -21 -5 -50 -6 -65
-2 -15 5 -63 4 -107 -1 -50 -6 -167 -5 -315 1 -129 6 -289 13 -355 16 -136 6
-256 14 -330 20 -27 3 -76 5 -108 4 -42 0 -57 3 -55 13 2 8 -8 14 -24 16 -18
2 -28 -1 -28 -10 0 -11 -19 -12 -98 -6 -126 9 -152 19 -151 55 0 16 3 22 6 16
7 -18 53 -16 53 2 0 8 -6 12 -14 9 -26 -10 -53 30 -61 92 -4 32 -9 67 -11 79
-14 61 1 391 18 412 6 7 7 21 3 30 -15 34 -14 48 11 188 14 77 30 178 35 225
5 47 13 101 19 120 21 75 61 314 85 515 14 116 30 244 35 285 6 41 12 95 15
120 4 42 10 85 36 248 5 38 10 93 9 123 -2 87 11 213 23 221 6 4 12 28 14 55
9 140 41 349 62 406 5 13 8 45 6 71 -2 27 3 63 10 80 7 17 16 62 19 100 4 38
9 81 13 94 4 18 1 29 -11 38 -21 15 -12 59 10 50 17 -7 19 15 2 32 -9 9 -9 15
0 24 7 7 12 22 12 35 0 13 3 23 8 23 4 0 8 28 9 62 1 35 7 64 13 66 5 2 10 8
10 13 0 6 -4 7 -10 4 -13 -8 -13 17 1 52 6 15 14 63 19 107 4 44 13 82 20 86
7 4 10 17 7 29 -3 12 -2 19 2 17 4 -3 13 41 20 97 7 56 17 122 22 147 5 25 11
88 13 140 2 52 7 113 11 135 4 22 7 55 7 72 0 18 4 30 9 27 5 -3 9 2 9 11 0 9
-4 14 -8 11 -12 -7 5 145 21 184 8 19 12 50 10 68 -3 18 0 46 7 62 10 24 10
33 0 45 -11 14 -10 59 3 112 3 11 9 42 12 67 4 25 13 50 20 56 10 8 10 18 3
38 -8 21 -4 51 17 132 31 123 43 180 48 223 7 65 40 233 50 261 15 39 64 95
96 108 96 39 92 39 291 33 107 -3 310 -12 450 -20z m-1493 -140 c0 -10 -10
-15 -26 -14 -23 0 -24 1 -6 9 18 7 16 8 -10 12 -29 5 -28 5 6 7 26 1 36 -3 36
-14z m87 -45 c25 -10 46 -24 46 -30 0 -5 7 -10 16 -10 9 0 29 -13 44 -30 15
-16 35 -30 44 -30 9 0 16 -4 16 -8 0 -5 30 -33 67 -63 37 -30 94 -81 126 -114
l59 -60 -6 -60 c-3 -33 -10 -87 -16 -120 -10 -63 -34 -235 -70 -493 -12 -85
-25 -165 -31 -178 l-9 -25 -46 27 c-34 20 -59 27 -97 27 -78 -1 -177 -20 -198
-39 -11 -10 -25 -13 -38 -9 -14 4 -32 -2 -53 -18 -18 -13 -57 -37 -87 -53 -30
-16 -91 -64 -135 -106 -44 -42 -82 -76 -83 -74 -2 2 19 32 46 68 44 58 138
148 156 148 11 0 34 27 28 34 -4 3 4 6 16 6 18 0 20 4 15 28 -3 15 -8 34 -11
42 -8 21 -9 111 -2 115 12 8 0 97 -15 108 -14 11 -14 15 -1 41 13 25 13 31 1
45 -14 17 -15 97 0 235 6 59 4 71 -10 81 -14 11 -15 17 -4 41 6 16 21 39 32
51 11 13 16 26 12 30 -4 4 -12 0 -17 -10 -11 -18 -39 -24 -39 -7 0 5 6 27 14
47 21 57 29 125 15 134 -8 4 -3 13 15 24 20 13 26 26 26 51 0 19 5 34 10 34
16 0 12 40 -5 46 -8 4 -15 15 -15 26 0 10 4 17 9 13 5 -3 12 -1 16 5 8 13 86
1 103 -17 18 -18 42 -17 42 2 0 8 -7 15 -15 15 -8 0 -15 9 -15 19 0 11 -8 22
-17 24 -16 4 -16 5 -1 6 9 0 37 -8 62 -19z m-4914 0 c0 -5 -5 -10 -11 -10 -5
0 -7 5 -4 10 3 6 8 10 11 10 2 0 4 -4 4 -10z m13020 -104 c0 -9 -30 -14 -35
-6 -4 6 3 10 14 10 12 0 21 -2 21 -4z m-11040 -186 c0 -5 -7 -10 -15 -10 -8 0
-15 5 -15 10 0 6 7 10 15 10 8 0 15 -4 15 -10z m-650 -160 c0 -5 -2 -10 -4
-10 -3 0 -8 5 -11 10 -3 6 -1 10 4 10 6 0 11 -4 11 -10z m15508 -369 c93 -47
167 -148 191 -259 28 -131 5 -225 -77 -313 -164 -178 -432 -170 -573 16 -55
74 -72 125 -72 225 1 109 28 185 92 253 85 91 159 119 302 113 60 -3 88 -10
137 -35z m-11978 -436 c0 -3 -10 -10 -22 -16 -36 -16 -60 -31 -116 -76 -30
-24 -63 -43 -75 -43 -19 0 -18 3 10 23 17 12 47 35 66 50 54 43 137 81 137 62z
m-188 -262 c-17 -21 -44 -72 -60 -113 -29 -74 -56 -179 -48 -187 5 -5 46 52
46 64 0 6 9 18 20 28 21 19 32 13 56 -30 6 -11 21 -22 34 -23 18 -3 22 0 18
15 -4 16 -1 18 23 15 36 -5 79 -48 79 -77 0 -32 24 -48 58 -40 20 4 33 1 41
-9 7 -8 19 -12 27 -9 8 3 14 0 14 -7 0 -6 5 -8 10 -5 6 3 10 19 10 36 0 24 4
29 25 29 25 0 35 -23 15 -35 -9 -6 -15 -65 -6 -65 2 0 11 -3 20 -6 11 -4 16 0
16 12 0 11 7 28 15 38 8 11 15 29 15 40 0 10 2 17 5 14 3 -3 -1 -59 -10 -124
-9 -66 -20 -150 -25 -189 -20 -154 -42 -293 -55 -345 -7 -30 -16 -80 -20 -110
-3 -30 -10 -84 -15 -120 -5 -36 -14 -108 -21 -160 -6 -52 -22 -151 -36 -220
-14 -69 -30 -149 -36 -177 -6 -29 -14 -53 -18 -53 -3 0 -10 25 -14 55 -4 32
-11 55 -18 55 -7 0 -21 19 -32 42 -11 24 -35 62 -52 85 -18 24 -33 47 -33 51
0 4 -16 32 -36 62 -39 60 -144 275 -144 296 0 7 -13 45 -29 86 -35 86 -57 204
-67 346 -6 94 -8 104 -30 119 -24 15 -24 18 -20 136 3 76 8 123 15 125 6 2 11
12 11 21 0 10 8 29 18 42 9 13 26 40 36 59 11 19 32 50 48 68 16 19 39 50 52
70 29 46 117 144 123 138 3 -3 -9 -22 -25 -43z m-167 -43 c-9 -16 -20 -30 -25
-30 -16 0 22 59 38 60 1 0 -4 -13 -13 -30z m13 -47 c-9 -10 -18 -27 -20 -38
-2 -13 -12 -21 -31 -23 -15 -2 -27 1 -27 5 0 26 28 61 55 69 37 12 42 9 23
-13z m13587 -297 c19 -8 39 -25 44 -38 14 -33 32 -128 26 -138 -7 -12 -97 -19
-122 -9 -18 7 -23 16 -23 46 0 63 8 81 34 76 17 -4 25 1 29 17 7 26 -13 36
-42 20 -22 -11 -26 -4 -15 24 8 20 25 20 69 2z m-16580 -26 c3 -5 1 -10 -4
-10 -6 0 -11 5 -11 10 0 6 2 10 4 10 3 0 8 -4 11 -10z m285 -15 c0 -9 -6 -12
-15 -9 -8 4 -15 2 -15 -2 0 -5 -3 -19 -6 -31 -6 -20 -3 -23 25 -23 17 0 31 5
31 10 0 6 7 10 15 10 9 0 12 6 9 18 -5 14 -4 14 5 2 8 -12 15 -12 44 -2 45 16
60 15 79 -5 36 -39 44 -42 62 -25 13 14 16 14 16 2 0 -8 4 -21 9 -29 8 -12 13
-12 35 3 28 18 31 15 38 -29 2 -10 17 -26 33 -35 17 -8 34 -21 38 -27 4 -7 17
-13 27 -13 11 0 20 -4 20 -10 0 -5 10 -10 21 -10 16 0 20 -5 16 -20 -8 -32 16
-43 43 -20 13 11 26 20 30 20 4 0 10 -22 14 -50 4 -27 13 -53 21 -58 21 -11
55 -81 55 -112 0 -14 7 -34 15 -44 8 -11 12 -29 9 -43 -4 -16 -1 -25 10 -29 9
-3 16 -12 16 -19 0 -7 9 -40 19 -73 11 -33 25 -87 31 -119 6 -32 13 -69 16
-83 3 -14 12 -29 20 -33 8 -4 14 -22 14 -39 0 -18 10 -42 26 -61 17 -20 24
-39 21 -54 -2 -12 2 -28 9 -34 7 -6 16 -27 19 -48 4 -20 10 -45 15 -56 4 -11
20 -51 35 -90 15 -38 30 -77 35 -85 4 -9 11 -31 15 -50 4 -19 20 -59 37 -87
16 -29 27 -57 23 -63 -3 -5 3 -17 15 -27 11 -10 20 -28 20 -40 0 -12 8 -30 19
-40 23 -22 61 -96 61 -120 0 -10 7 -27 15 -37 8 -11 15 -30 15 -43 0 -13 4
-23 9 -23 12 0 40 -108 39 -154 0 -21 5 -43 11 -49 17 -17 13 -38 -6 -35 -15
3 -18 -5 -18 -52 0 -30 -4 -62 -10 -70 -5 -8 -9 -28 -10 -45 0 -19 -5 -29 -12
-27 -7 1 -13 -3 -13 -8 0 -6 -10 -8 -24 -4 -22 5 -25 2 -28 -28 -3 -30 -6 -33
-33 -30 -16 2 -35 8 -42 14 -7 5 -16 7 -22 4 -5 -4 -12 3 -16 14 -6 18 -17 25
-39 21 -4 -1 -14 4 -22 10 -11 9 -14 9 -14 0 0 -25 -18 0 -24 34 -6 32 -8 34
-31 23 -14 -6 -25 -20 -25 -30 0 -26 -33 -20 -39 7 -5 27 -21 36 -54 29 -24
-5 -29 -1 -42 29 -14 33 -15 34 -54 27 -29 -5 -38 -4 -34 4 17 27 11 37 -18
31 -16 -4 -29 -3 -29 2 0 4 -18 17 -40 27 -32 15 -40 25 -40 46 0 21 -5 26
-22 26 -17 -1 -24 5 -27 24 -4 29 -22 44 -32 28 -4 -7 -15 -13 -23 -14 -9 -1
-14 2 -11 6 3 5 1 11 -4 14 -5 4 -12 -2 -14 -11 -4 -16 -5 -16 -6 -1 0 9 4 20
9 23 15 9 -7 35 -29 35 -33 1 -71 48 -71 89 0 13 -12 26 -30 36 -27 14 -41 35
-22 35 4 0 7 14 8 30 1 28 -2 30 -32 30 -19 0 -34 5 -34 10 0 6 5 10 10 10 20
0 9 35 -15 46 -20 10 -25 9 -28 -5 -3 -10 -5 -8 -6 7 -1 27 -21 50 -38 45 -6
-2 -14 1 -18 6 -3 6 -1 12 4 12 6 1 17 2 24 3 14 2 12 63 -3 82 -6 6 -8 19 -4
28 3 9 2 16 -3 16 -5 0 -8 13 -5 29 3 19 -1 30 -12 34 -9 4 -16 1 -16 -5 0 -8
-4 -8 -12 1 -10 11 -10 14 0 18 6 3 12 9 12 14 0 17 -43 69 -57 69 -7 0 -13 9
-13 20 0 11 -6 20 -13 20 -21 0 -58 49 -64 85 -3 21 -10 32 -18 29 -15 -6 -49
43 -35 51 6 4 5 11 -3 19 -6 8 -15 12 -18 10 -12 -7 -20 29 -9 40 13 13 13 26
0 26 -5 0 -9 -4 -7 -9 1 -5 -2 -9 -8 -9 -5 0 -9 3 -8 8 1 4 -8 7 -20 6 -18 -1
-22 4 -19 27 4 35 -17 65 -29 45 -6 -9 -9 -9 -9 -1 0 6 -7 19 -16 28 -19 18
-12 45 12 45 11 0 15 -6 11 -20 -3 -13 0 -20 9 -20 24 0 17 47 -8 53 -12 3
-26 3 -32 -1 -17 -10 -56 -10 -62 0 -3 5 -1 14 4 21 5 7 12 26 14 42 3 17 3
24 1 18 -3 -7 -12 -13 -22 -13 -9 0 -23 -6 -30 -12 -11 -11 -13 -10 -8 4 3 9
1 34 -5 55 -8 29 -12 34 -17 20 -4 -10 -11 -19 -15 -20 -15 -3 -15 34 -1 39
19 7 8 31 -16 37 -11 3 -18 11 -17 19 2 7 -3 12 -11 10 -12 -3 -12 0 -2 12 8
10 9 16 1 21 -8 5 -8 11 1 21 6 8 8 21 3 31 -10 24 -11 36 -5 48 14 25 9 37
-8 21 -26 -24 -44 -21 -31 5 7 11 9 26 7 34 -3 7 6 18 19 26 l25 13 -28 23
c-15 12 -35 23 -43 23 -12 1 -11 3 2 8 26 10 6 36 -21 27 -21 -6 -29 -25 -11
-25 6 0 10 -11 10 -25 0 -22 3 -23 24 -15 25 9 36 5 36 -16 0 -18 -32 -27 -43
-12 -6 9 -7 8 -3 -4 8 -26 -3 -48 -24 -48 -22 0 -35 16 -20 25 5 3 10 0 11 -7
0 -7 5 0 11 16 9 25 8 31 -8 43 -24 17 -38 12 -42 -15 -2 -12 -9 -22 -17 -22
-19 0 -27 30 -10 36 8 4 15 14 15 24 0 21 -38 33 -75 24 -39 -10 -31 15 10 32
20 8 35 20 34 27 -5 37 2 59 16 53 9 -3 19 3 25 14 11 20 40 28 40 10 0 -5
-11 -20 -25 -34 -14 -14 -25 -34 -25 -45 0 -14 -5 -19 -15 -15 -9 4 -15 0 -15
-10 0 -12 9 -16 34 -16 50 0 69 9 55 26 -8 10 -6 13 10 11 11 0 17 -6 13 -12
-3 -5 2 -4 11 4 9 7 15 16 13 20 -2 3 2 12 10 19 8 7 14 8 14 2 0 -22 26 -9
38 20 14 31 36 40 45 18 3 -7 6 -2 6 11 1 18 5 22 22 18 15 -4 18 -2 10 7 -15
18 -1 28 17 13 10 -7 13 -8 9 -1 -8 14 37 64 58 64 9 0 15 9 15 24 0 14 5 28
10 31 6 3 10 1 10 -4 0 -6 9 -11 20 -11 14 0 20 -7 20 -21 0 -16 -5 -20 -20
-16 -16 4 -20 0 -20 -19 0 -17 -6 -24 -20 -24 -13 0 -20 -7 -20 -20 0 -15 6
-19 24 -18 14 1 22 6 19 11 -6 10 69 79 76 69 7 -9 27 -10 35 -1 3 3 7 14 9
25 1 10 5 19 9 19 3 0 14 7 24 16 11 9 27 19 37 22 10 4 15 12 12 18 -4 6 2
13 14 16 12 3 21 9 21 14 0 5 7 9 15 9 8 0 15 -7 15 -15z m-154 -73 c-6 -10
-52 -8 -48 1 1 4 2 12 2 18 0 5 4 8 9 4 5 -3 13 0 17 6 5 8 10 7 16 -5 5 -9 7
-20 4 -24z m-196 -14 c0 -11 -5 -18 -12 -16 -19 7 -21 35 -3 35 8 0 15 -9 15
-19z m-160 -15 c-1 -24 -2 -26 -11 -10 -5 9 -7 22 -4 27 10 17 15 11 15 -17z
m80 -13 c0 -5 -5 -10 -11 -10 -5 0 -7 5 -4 10 3 6 8 10 11 10 2 0 4 -4 4 -10z
m-200 -50 c0 -19 -11 -26 -23 -14 -8 8 3 34 14 34 5 0 9 -9 9 -20z m70 10 c0
-5 -7 -7 -15 -4 -8 4 -15 8 -15 10 0 2 7 4 15 4 8 0 15 -4 15 -10z m90 0 c0
-5 -4 -10 -10 -10 -5 0 -10 5 -10 10 0 6 5 10 10 10 6 0 10 -4 10 -10z m40 -6
c0 -8 -5 -12 -10 -9 -6 4 -8 11 -5 16 9 14 15 11 15 -7z m-80 -19 c0 -8 7 -15
16 -15 9 0 14 -7 12 -17 -5 -27 -22 -25 -35 4 -16 33 -16 43 -3 43 6 0 10 -7
10 -15z m-160 -15 c0 -5 -4 -10 -10 -10 -5 0 -10 5 -10 10 0 6 5 10 10 10 6 0
10 -4 10 -10z m-80 -68 c0 -5 -7 -9 -15 -9 -8 0 -12 4 -9 9 3 4 9 8 15 8 5 0
9 -4 9 -8z m184 2 c24 -9 20 -33 -4 -27 -11 3 -20 12 -20 19 0 16 2 16 24 8z
m-184 -74 c0 -5 -5 -10 -11 -10 -5 0 -7 5 -4 10 3 6 8 10 11 10 2 0 4 -4 4
-10z m110 -175 c0 -8 -4 -15 -10 -15 -5 0 -10 7 -10 15 0 8 5 15 10 15 6 0 10
-7 10 -15z m150 1 c0 -2 -8 -10 -17 -17 -16 -13 -17 -12 -4 4 13 16 21 21 21
13z m-60 -26 c0 -5 -4 -10 -10 -10 -5 0 -10 5 -10 10 0 6 5 10 10 10 6 0 10
-4 10 -10z m51 -27 c8 -9 9 -14 3 -10 -7 4 -14 -2 -17 -13 -7 -29 -34 -25 -40
6 -3 17 -1 22 5 16 12 -12 40 -4 32 9 -9 15 3 10 17 -8z m-11 -103 c0 -11 -4
-20 -9 -20 -5 0 -7 9 -4 20 3 11 7 20 9 20 2 0 4 -9 4 -20z m192 -302 c-7 -7
-12 -8 -12 -2 0 14 12 26 19 19 2 -3 -1 -11 -7 -17z m17018 -168 c13 -7 38
-10 61 -6 24 4 40 2 45 -6 4 -6 2 -14 -4 -16 -7 -2 -12 -8 -12 -14 0 -7 5 -6
14 1 14 12 46 5 46 -10 0 -5 7 -9 15 -9 8 0 15 -4 15 -9 0 -5 29 -33 65 -61
36 -28 65 -57 65 -63 0 -7 18 -32 40 -56 22 -24 40 -47 40 -51 0 -4 7 -10 15
-14 8 -3 15 -12 15 -21 0 -21 -13 -19 -28 5 -7 11 -17 20 -22 20 -20 0 -9 -23
24 -54 18 -18 37 -43 41 -57 13 -36 14 -112 3 -126 -6 -7 -8 -20 -4 -28 3 -9
0 -15 -8 -15 -8 0 -16 -9 -19 -20 -3 -13 -14 -20 -30 -20 -19 0 -30 -9 -44
-37 -11 -25 -26 -39 -40 -41 -18 -3 -23 -10 -23 -33 0 -28 -27 -69 -39 -60 -3
2 -10 -5 -16 -15 -18 -35 -55 -64 -79 -64 -14 0 -38 -11 -55 -26 -26 -21 -37
-24 -76 -20 -41 5 -47 3 -57 -19 -6 -14 -15 -25 -20 -25 -11 0 -10 17 2 25 16
10 51 97 66 165 16 76 18 255 4 355 -18 122 -55 224 -104 287 -38 47 -55 60
-106 79 l-62 22 49 19 c26 10 58 18 69 18 12 0 34 6 49 14 28 15 60 10 105
-14z m-16695 -260 c3 -5 1 -10 -4 -10 -6 0 -11 5 -11 10 0 6 2 10 4 10 3 0 8
-4 11 -10z m205 -440 c0 -5 -4 -10 -10 -10 -5 0 -10 5 -10 10 0 6 5 10 10 10
6 0 10 -4 10 -10z m200 -220 c0 -5 -7 -10 -15 -10 -8 0 -15 5 -15 10 0 6 7 10
15 10 8 0 15 -4 15 -10z m16180 -80 c0 -5 -5 -10 -11 -10 -5 0 -7 5 -4 10 3 6
8 10 11 10 2 0 4 -4 4 -10z m-15704 -165 c8 -21 -6 -41 -17 -24 -12 19 -11 39
1 39 6 0 13 -7 16 -15z m603 -362 c1 -13 -3 -23 -9 -23 -5 0 -10 19 -9 43 0
32 2 37 9 22 5 -11 9 -30 9 -42z m-39 -27 c0 -3 -4 -8 -10 -11 -5 -3 -10 -1
-10 4 0 6 5 11 10 11 6 0 10 -2 10 -4z m30 -84 c0 -13 -12 -22 -22 -16 -10 6
-1 24 13 24 5 0 9 -4 9 -8z m187 -834 c8 -68 17 -143 20 -168 3 -31 2 -42 -5
-35 -6 6 -14 46 -17 90 -4 44 -8 82 -10 85 -8 12 -17 165 -10 158 5 -4 15 -63
22 -130z m3720 -364 c-3 -3 -12 -4 -19 -1 -8 3 -5 6 6 6 11 1 17 -2 13 -5z
m-4817 -81 c81 -30 204 -173 174 -203 -5 -5 -48 -12 -95 -15 -46 -2 -102 -7
-124 -9 -157 -18 -182 -18 -198 -1 -20 20 -22 47 -5 78 20 34 81 97 94 97 7 0
16 9 19 20 4 11 10 18 14 16 4 -3 13 0 21 5 12 7 10 10 -8 15 -17 5 -20 9 -11
15 16 9 59 3 119 -18z m15676 -207 c3 -8 0 -25 -6 -37 -10 -18 -14 -20 -21 -7
-9 17 -1 58 12 58 6 0 12 -6 15 -14z m71 -58 c-3 -8 -6 -5 -6 6 -1 11 2 17 5
13 3 -3 4 -12 1 -19z m-5387 -188 c0 -5 -2 -10 -4 -10 -3 0 -8 5 -11 10 -3 6
-1 10 4 10 6 0 11 -4 11 -10z m-7355 -48 c286 -4 537 -4 558 -1 20 3 37 3 37
-1 0 -4 -28 -22 -62 -40 -387 -205 -637 -355 -991 -594 -731 -493 -1139 -762
-1201 -790 -59 -27 -79 8 -35 59 17 19 105 88 197 155 426 306 588 437 735
588 107 111 112 123 72 187 -56 93 -61 116 -29 154 14 17 32 31 39 31 7 0 29
18 49 40 33 36 36 45 36 98 0 36 -6 66 -15 78 -29 39 -20 51 38 47 28 -3 286
-7 572 -11z m7675 -563 c0 -5 -4 -9 -10 -9 -5 0 -10 7 -10 16 0 8 5 12 10 9 6
-3 10 -10 10 -16z m5656 -161 c327 -3 364 -5 381 -20 15 -14 22 -15 32 -5 10
9 12 9 9 -2 -2 -7 3 -16 11 -19 8 -3 11 0 7 7 -10 16 13 14 29 -3 32 -32 -27
-108 -78 -100 -9 1 -17 -2 -17 -7 0 -6 -6 -7 -12 -3 -10 6 -10 4 0 -8 14 -17
0 -34 -18 -23 -5 3 -23 -2 -40 -12 -22 -12 -33 -14 -41 -6 -12 12 -68 -3 -81
-22 -5 -6 -8 -4 -8 5 0 12 -3 12 -16 -2 -11 -11 -27 -14 -55 -11 -34 5 -40 3
-48 -19 -8 -21 -15 -24 -50 -22 -23 1 -39 -1 -36 -5 6 -10 -32 -41 -50 -41 -7
0 -16 4 -20 10 -3 6 -15 5 -31 -2 -20 -9 -30 -9 -46 1 -29 18 -50 -3 -22 -23
10 -8 15 -18 11 -23 -5 -4 -15 0 -22 10 -14 19 -51 20 -71 2 -9 -7 -9 -12 0
-17 8 -6 8 -8 -1 -8 -7 0 -13 -6 -13 -14 0 -26 -35 -10 -38 16 -2 19 -10 27
-30 31 -15 3 -31 1 -36 -4 -6 -6 -4 -9 7 -9 12 0 17 -8 17 -30 0 -24 -4 -30
-21 -30 -16 0 -20 -5 -16 -20 4 -16 0 -20 -23 -20 -23 0 -27 4 -23 20 3 11 14
20 24 20 11 0 19 2 19 4 0 2 3 11 6 20 5 12 -1 16 -25 16 -23 0 -29 -4 -25
-15 4 -10 0 -15 -15 -15 -28 0 -28 -35 -1 -50 25 -13 26 -40 3 -41 -10 0 -26
-2 -35 -4 -10 -2 -21 2 -25 7 -3 7 -1 8 6 4 6 -4 2 9 -9 28 -11 20 -16 36 -11
36 5 0 11 10 15 23 3 13 18 29 32 36 19 8 24 15 17 22 -16 16 -53 1 -53 -22 0
-10 -5 -18 -12 -16 -6 1 -16 -7 -22 -18 -6 -12 -19 -19 -28 -17 -10 2 -18 -1
-18 -6 0 -5 -16 -5 -40 1 -28 8 -40 17 -40 29 0 10 5 18 10 18 6 0 10 9 10 20
0 11 -4 20 -9 20 -5 0 -11 -9 -14 -20 -4 -14 -14 -20 -32 -20 -24 0 -26 -2
-15 -16 11 -12 11 -15 -1 -12 -8 2 -17 10 -21 18 -5 12 -7 12 -7 -2 -1 -11 -8
-16 -21 -13 -11 2 -19 1 -19 -3 1 -4 1 -15 0 -25 -1 -15 -5 -16 -21 -7 -17 9
-20 8 -20 -13 0 -16 -9 -28 -25 -35 -21 -10 -26 -9 -35 8 -7 13 -7 20 -1 20
18 0 62 52 57 65 -3 8 3 16 12 18 9 2 4 3 -13 0 -16 -2 -33 -10 -38 -18 -13
-23 -27 -18 -27 10 0 14 -4 25 -10 25 -5 0 -10 9 -10 19 0 21 -13 34 -24 24
-3 -3 0 -13 7 -21 7 -10 8 -13 1 -9 -7 4 -14 -2 -17 -15 -5 -18 -8 -19 -21 -9
-9 8 -13 17 -10 22 6 10 -41 23 -54 15 -6 -3 -8 -16 -4 -29 5 -20 4 -21 -12
-8 -15 12 -15 16 -1 31 17 19 8 35 -11 20 -8 -8 -16 -7 -26 2 -24 23 -58 39
-58 28 0 -5 -9 -10 -20 -10 -11 0 -20 -7 -20 -15 0 -9 -9 -15 -21 -15 -12 0
-19 5 -17 12 3 7 -1 19 -9 26 -7 8 -11 18 -8 23 4 5 -5 9 -18 9 -14 0 -30 7
-37 15 -16 19 -30 19 -44 -1 -9 -12 -17 -13 -39 -5 -15 6 -27 15 -27 21 0 6
-12 8 -27 5 -16 -3 -23 -3 -16 1 7 3 9 12 6 20 -9 23 -23 16 -23 -11 0 -25 -1
-25 -25 -9 -13 8 -29 13 -36 9 -6 -4 -15 -2 -19 5 -4 7 -21 14 -37 15 -15 2
-30 3 -32 4 -2 1 2 7 8 15 9 11 9 16 0 21 -13 8 -31 -14 -22 -28 3 -5 -5 -4
-17 3 -17 9 -28 9 -50 0 -29 -12 -50 -7 -50 12 0 5 7 7 16 4 8 -3 12 -2 9 4
-3 6 -1 10 4 10 6 0 10 6 9 13 -5 23 -22 26 -41 6 -20 -21 -37 -25 -37 -8 0 5
-4 7 -10 4 -5 -3 -15 3 -22 15 -7 11 -18 20 -24 20 -6 0 -17 7 -24 15 -11 13
-10 14 5 9 10 -4 20 -1 25 6 5 8 27 15 50 16 22 1 44 4 47 8 4 3 21 6 40 6 18
0 33 4 33 8 0 5 36 8 79 8 44 -1 77 -4 74 -8 -2 -5 3 -8 12 -8 9 0 13 5 10 10
-3 6 -5 10 -3 11 2 0 138 3 303 5 165 3 301 6 302 7 1 2 113 1 919 -5z m553
-91 c-2 -1 -13 -9 -23 -17 -11 -8 -17 -10 -13 -3 4 6 1 14 -5 16 -7 3 0 6 16
6 16 1 27 0 25 -2z m-6026 -93 c-3 -9 -9 -9 -50 -5 -16 2 -15 3 2 10 25 10 51
7 48 -5z m5377 -146 c0 -7 -4 -19 -9 -26 -6 -10 -10 -10 -20 2 -7 8 -10 20 -6
26 9 14 35 13 35 -2z m-1042 -21 c2 -12 -3 -17 -17 -17 -15 0 -21 6 -21 21 0
25 33 22 38 -4z m202 -32 c0 -8 -4 -15 -10 -15 -5 0 -10 7 -10 15 0 8 5 15 10
15 6 0 10 -7 10 -15z m790 0 c10 -13 9 -15 -9 -15 -12 0 -21 6 -21 15 0 8 4
15 9 15 5 0 14 -7 21 -15z m85 5 c3 -5 -1 -10 -9 -10 -9 0 -16 5 -16 10 0 6 4
10 9 10 6 0 13 -4 16 -10z m-714 -54 c3 -51 -4 -64 -27 -45 -14 12 -14 14 2
26 13 9 14 16 6 26 -9 11 -8 14 3 14 8 0 16 -10 16 -21z m67 0 c11 18 11 18
12 -3 0 -15 5 -21 14 -17 9 3 18 -6 25 -26 12 -35 27 -32 41 6 12 30 51 34 43
4 -3 -11 -14 -20 -24 -20 -11 0 -19 -6 -19 -14 0 -9 -7 -13 -20 -11 -11 2 -23
-1 -26 -7 -4 -6 -2 -8 4 -4 6 3 13 2 17 -4 3 -5 -1 -10 -10 -10 -9 0 -14 -4
-11 -8 3 -5 -1 -9 -8 -9 -14 0 -16 21 -3 33 17 17 5 34 -24 34 -22 0 -32 5
-36 20 -3 11 -12 20 -19 20 -8 0 -14 6 -14 13 0 25 14 28 31 6 16 -21 17 -21
27 -3z m370 -17 c-2 -23 -6 -29 -20 -26 -10 3 -18 1 -18 -4 0 -5 -7 -9 -16 -9
-9 0 -14 7 -12 18 2 9 11 16 21 16 10 -1 17 5 17 17 0 11 7 19 15 19 11 0 15
-9 13 -31z m112 -14 c10 -12 10 -15 -4 -15 -9 0 -16 7 -16 15 0 8 2 15 4 15 2
0 9 -7 16 -15z m80 -4 c0 -6 -4 -13 -10 -16 -5 -3 -10 1 -10 9 0 9 5 16 10 16
6 0 10 -4 10 -9z m-390 -41 c0 -4 -7 -13 -15 -20 -13 -11 -15 -8 -15 13 0 19
4 25 15 21 8 -4 15 -10 15 -14z m240 5 c0 -8 -7 -15 -15 -15 -8 0 -15 7 -15
15 0 8 7 15 15 15 8 0 15 -7 15 -15z m-450 -5 c0 -5 -2 -10 -4 -10 -3 0 -8 5
-11 10 -3 6 -1 10 4 10 6 0 11 -4 11 -10z m-110 -37 c0 -14 -26 -18 -34 -4 -7
11 0 18 19 18 8 0 15 -6 15 -14z m160 -20 c-1 -36 -2 -37 -15 -19 -17 23 -20
40 -5 31 6 -3 7 1 4 9 -3 9 -1 16 5 16 6 0 11 -17 11 -37z m230 22 c10 -12 10
-15 -4 -15 -9 0 -16 7 -16 15 0 8 2 15 4 15 2 0 9 -7 16 -15z m60 5 c0 -5 -4
-10 -10 -10 -5 0 -10 5 -10 10 0 6 5 10 10 10 6 0 10 -4 10 -10z m-570 -51 c0
-11 -4 -17 -10 -14 -5 3 -10 15 -10 26 0 11 5 17 10 14 6 -3 10 -15 10 -26z
m470 1 c0 -5 -2 -10 -4 -10 -3 0 -8 5 -11 10 -3 6 -1 10 4 10 6 0 11 -4 11
-10z m317 -12 c-3 -8 -6 -5 -6 6 -1 11 2 17 5 13 3 -3 4 -12 1 -19z m-510 -14
c-3 -3 -12 -4 -19 -1 -8 3 -5 6 6 6 11 1 17 -2 13 -5z m81 -52 c-5 -23 -28
-27 -28 -4 0 10 7 19 15 19 9 0 15 -7 13 -15z m-358 1 c-1 -19 -16 -31 -29
-24 -7 5 -10 14 -7 20 8 12 36 15 36 4z m240 -8 c0 -8 -4 -15 -9 -15 -5 0 -11
7 -15 15 -3 9 0 15 9 15 8 0 15 -7 15 -15z m300 6 c0 -6 -4 -12 -8 -15 -5 -3
-9 1 -9 9 0 8 4 15 9 15 4 0 8 -4 8 -9z m-60 -60 c0 -23 -18 -37 -47 -39 -31
-1 -29 18 4 44 31 24 43 23 43 -5z m-440 -7 c0 -14 -15 -34 -26 -34 -13 0 -19
21 -9 32 5 5 35 7 35 2z m160 -16 c0 -19 -2 -20 -10 -8 -13 19 -13 30 0 30 6
0 10 -10 10 -22z m120 -19 c0 -6 -4 -7 -10 -4 -5 3 -10 11 -10 16 0 6 5 7 10
4 6 -3 10 -11 10 -16z m-80 -14 c0 -8 -4 -15 -10 -15 -5 0 -10 7 -10 15 0 8 5
15 10 15 6 0 10 -7 10 -15z m124 -1 c4 -11 1 -14 -11 -12 -9 2 -18 9 -21 16
-6 18 25 15 32 -4z m76 -50 c0 -8 -4 -12 -10 -9 -5 3 -10 10 -10 16 0 5 5 9
10 9 6 0 10 -7 10 -16z m354 -52 c3 -5 -1 -9 -9 -9 -8 0 -12 4 -9 9 3 4 7 8 9
8 2 0 6 -4 9 -8z m-434 -18 c0 -8 -4 -12 -10 -9 -5 3 -10 10 -10 16 0 5 5 9
10 9 6 0 10 -7 10 -16z m-4644 -261 c-11 -11 -19 6 -11 24 8 17 8 17 12 0 3
-10 2 -21 -1 -24z m34 -218 c0 -8 -9 -13 -20 -12 -11 1 -20 6 -20 12 0 6 9 11
20 12 11 1 20 -4 20 -12z m-2033 -807 c-3 -8 -6 -5 -6 6 -1 11 2 17 5 13 3 -3
4 -12 1 -19z m1937 -397 c-4 -17 -9 -30 -11 -27 -3 2 -2 19 2 36 9 41 17 33 9
-9z m-26 -99 c-6 -29 -13 -50 -16 -47 -2 2 1 27 8 55 7 28 14 49 16 47 3 -2
-1 -27 -8 -55z m-399 -1401 c28 -28 55 -71 48 -77 -9 -9 -27 5 -27 21 0 8 -9
19 -20 25 -23 12 -46 50 -30 50 5 0 19 -9 29 -19z m100 -138 c17 -25 29 -49
26 -51 -6 -6 -41 35 -60 71 -25 45 1 30 34 -20z m69 -98 c12 -19 22 -40 22
-47 -1 -7 -8 1 -17 17 -8 17 -22 38 -31 48 -8 9 -11 17 -6 17 5 0 19 -16 32
-35z m180 -240 c39 -46 72 -85 72 -89 0 -3 -8 -6 -17 -6 -14 0 -15 2 -4 9 11
7 9 12 -10 21 -25 13 -76 60 -66 60 4 0 -9 16 -28 35 -19 19 -35 37 -35 41 0
3 -11 19 -25 36 -14 16 -25 35 -24 41 0 7 14 -6 32 -27 18 -22 65 -76 105
-121z m230 -284 c34 -65 44 -113 18 -92 -8 7 -18 26 -21 42 -4 16 -12 35 -19
42 -26 27 -86 115 -86 126 0 7 -4 9 -10 6 -6 -4 -7 1 -3 11 4 12 3 15 -5 10
-8 -4 -12 0 -12 11 1 27 99 -84 138 -156z"/>
<path d="M30695 34409 c-453 -31 -883 -135 -1170 -282 -101 -51 -129 -70 -119
-80 4 -3 -10 -9 -30 -12 -36 -7 -45 -18 -26 -30 16 -10 11 -40 -10 -63 -25
-27 -26 -52 -1 -59 18 -4 38 -59 26 -71 -3 -3 -5 0 -5 6 0 7 -4 12 -10 12 -5
0 -10 -7 -10 -15 0 -15 10 -19 42 -16 9 1 19 -3 23 -9 3 -5 0 -10 -8 -10 -13
0 -40 -64 -40 -96 0 -8 -6 -13 -14 -10 -8 3 -13 -2 -13 -12 0 -9 -11 -30 -25
-45 -25 -26 -25 -27 -5 -27 19 0 20 -1 4 -24 -8 -14 -21 -23 -28 -20 -7 3 -33
-5 -57 -17 -48 -25 -117 -78 -84 -65 11 5 52 14 90 22 39 8 99 21 135 29 126
28 188 16 192 -38 4 -67 -34 -235 -63 -277 -9 -14 -20 -45 -23 -69 l-7 -44 48
6 48 5 -26 -21 c-15 -12 -52 -43 -84 -70 -89 -73 -169 -188 -207 -297 -27 -79
-58 -242 -58 -310 0 -82 19 -252 35 -324 56 -239 193 -554 339 -776 215 -327
538 -637 886 -849 168 -102 543 -275 675 -311 17 -4 50 -15 75 -25 91 -33 287
-83 355 -91 195 -20 264 -24 408 -24 343 0 534 34 773 136 161 69 248 126 370
244 148 143 215 271 245 465 10 66 19 141 19 166 0 29 6 51 15 59 8 7 17 27
21 46 3 19 10 37 15 40 5 3 9 23 9 45 0 21 5 39 10 39 6 0 10 9 10 21 0 25 31
67 46 62 10 -3 34 51 34 80 0 9 4 17 9 17 13 0 34 85 29 114 -3 14 -1 23 4 20
15 -9 19 21 11 77 -5 30 -6 70 -3 89 5 34 6 33 37 -45 72 -185 91 -246 124
-405 36 -177 49 -293 49 -439 0 -134 -22 -366 -51 -523 -6 -39 -7 -64 0 -76 7
-13 7 -22 0 -29 -7 -7 -8 -29 -3 -59 4 -27 10 -40 12 -30 2 11 14 30 27 44 60
64 165 420 210 712 63 409 29 804 -111 1260 -61 202 -65 214 -84 250 -9 19
-21 48 -24 64 -10 40 -181 393 -210 431 -12 16 -25 38 -29 48 -9 23 -116 187
-140 212 -10 11 -37 45 -60 75 -121 161 -371 399 -577 552 -111 82 -413 269
-510 316 -412 198 -832 313 -1200 327 -85 3 -171 7 -190 9 -19 1 -84 -1 -145
-5z m2861 -2605 c8 -20 13 -38 11 -40 -2 -2 -11 14 -20 36 -19 50 -12 53 9 4z
m-59 -450 c-3 -3 -12 -4 -19 -1 -8 3 -5 6 6 6 11 1 17 -2 13 -5z m333 -836 c0
-7 -8 -33 -16 -58 -9 -25 -16 -66 -15 -92 1 -26 -3 -49 -9 -53 -19 -12 -22 24
-6 79 9 30 16 70 16 88 0 19 3 38 7 41 10 11 23 8 23 -5z"/>
<path d="M29136 33825 c-3 -8 -1 -15 4 -15 6 0 10 7 10 15 0 8 -2 15 -4 15 -2
0 -6 -7 -10 -15z"/>
<path d="M29250 33825 c0 -9 5 -15 11 -13 6 2 11 8 11 13 0 5 -5 11 -11 13 -6
2 -11 -4 -11 -13z"/>
<path d="M29010 33420 c-9 -6 -10 -10 -3 -10 6 0 15 5 18 10 8 12 4 12 -15 0z"/>
<path d="M29535 30991 c-10 -17 12 -21 25 -6 10 12 10 15 -3 15 -9 0 -18 -4
-22 -9z"/>
<path d="M29560 30949 c0 -12 8 -23 20 -26 13 -3 20 -14 20 -28 0 -18 -4 -22
-20 -18 -15 4 -20 0 -20 -16 0 -28 36 -29 43 -1 6 22 37 28 38 8 0 -7 2 -22 4
-33 2 -10 0 -24 -4 -30 -5 -5 -8 -18 -8 -28 0 -15 6 -18 29 -15 16 3 32 0 35
-5 4 -6 1 -7 -8 -2 -11 7 -12 6 -2 -6 7 -8 10 -25 6 -37 -7 -28 17 -30 34 -2
11 16 10 21 -4 29 -13 7 -18 23 -18 63 0 50 -2 54 -32 68 -18 8 -33 23 -33 32
0 11 -5 15 -15 12 -15 -6 -22 11 -7 19 4 2 1 2 -6 1 -7 -2 -18 5 -24 16 -16
26 -28 25 -28 -1z"/>
<path d="M29493 30953 c-21 -7 -15 -33 7 -33 11 0 20 3 20 8 0 15 -15 29 -27
25z"/>
<path d="M29715 30810 c-3 -5 1 -10 9 -10 9 0 16 5 16 10 0 6 -4 10 -9 10 -6
0 -13 -4 -16 -10z"/>
<path d="M29735 30756 c2 -24 7 -24 35 4 l20 20 -28 -2 c-22 -1 -28 -7 -27
-22z"/>
<path d="M29786 30743 c-11 -3 -25 -11 -32 -18 -10 -10 -8 -17 12 -34 13 -11
27 -22 32 -23 4 -2 6 -7 4 -13 -7 -19 -27 -24 -43 -9 -17 16 -39 19 -39 5 0
-5 -7 -12 -16 -15 -8 -3 -13 -2 -10 2 2 4 1 14 -5 22 -6 11 -9 6 -9 -17 0 -23
5 -33 20 -38 11 -3 20 -15 20 -26 0 -12 7 -19 20 -19 12 0 20 -7 20 -18 0 -9
9 -23 20 -30 12 -7 18 -17 14 -23 -4 -6 -16 -2 -31 13 -13 13 -26 22 -29 21
-2 -2 -5 -3 -6 -2 -2 0 -13 2 -25 3 -17 2 -23 -3 -23 -18 0 -15 -3 -17 -9 -8
-7 11 -9 11 -14 -2 -5 -13 3 -16 51 -17 31 -1 60 -1 63 -1 4 1 14 -7 22 -16
13 -15 14 -22 4 -42 -7 -14 -18 -25 -25 -25 -14 0 -17 -13 -6 -23 4 -4 4 -1
-1 7 -6 10 -4 12 4 7 8 -6 9 -12 2 -20 -8 -10 -4 -16 14 -24 15 -7 27 -8 30
-2 10 17 25 11 25 -9 0 -28 39 -15 51 17 15 40 23 21 32 -78 1 -19 8 -25 27
-25 14 0 26 -6 26 -13 1 -6 2 -17 3 -23 0 -6 8 -9 15 -6 9 4 18 -2 22 -15 3
-12 14 -30 24 -40 14 -16 18 -17 23 -5 3 9 -2 17 -14 20 -15 4 -19 12 -16 31
5 39 15 42 42 10 14 -16 20 -30 15 -32 -16 -6 -12 -42 5 -42 8 0 15 6 15 14 0
13 68 31 79 21 2 -3 -3 -5 -12 -5 -24 0 -24 -85 0 -94 15 -6 32 8 33 26 0 4 7
5 16 1 12 -4 13 -8 3 -13 -9 -6 -9 -12 4 -24 8 -9 20 -16 25 -16 6 0 13 -7 16
-16 4 -11 -1 -18 -14 -21 -15 -4 -20 -12 -18 -27 4 -28 32 -27 36 2 4 25 20
28 47 9 12 -10 14 -16 7 -21 -20 -12 -14 -46 8 -46 14 0 20 7 20 21 0 18 5 20
35 16 19 -3 35 -1 35 3 0 5 3 15 6 24 4 10 1 16 -10 16 -10 0 -13 5 -9 16 6
16 7 16 18 0 7 -9 20 -16 29 -16 11 0 16 -9 16 -26 0 -14 4 -23 8 -20 4 2 9
-4 9 -15 2 -20 -4 -22 -48 -19 -32 2 -60 -27 -39 -40 8 -5 19 -6 25 -2 5 3 23
6 40 7 20 0 30 5 30 15 0 10 12 16 37 18 27 2 35 7 31 18 -3 8 -1 14 5 14 5 0
13 -7 16 -16 4 -10 13 -13 26 -9 11 4 20 2 20 -4 0 -6 7 -11 15 -11 8 0 15 -4
15 -9 0 -13 38 -2 43 12 2 7 0 23 -4 37 -4 14 -7 19 -8 11 -1 -11 -4 -11 -16
-1 -8 7 -13 16 -10 20 3 4 -2 13 -10 20 -8 7 -15 19 -15 27 0 11 3 11 14 1 8
-7 12 -16 9 -20 -9 -16 20 -7 33 10 12 15 13 12 14 -23 0 -39 1 -40 37 -42 20
-1 39 -6 42 -10 9 -12 31 -15 31 -4 0 5 -6 11 -14 14 -7 3 -16 15 -19 26 -3
12 -1 19 4 15 5 -3 9 2 9 10 0 8 -6 19 -14 23 -13 7 -13 11 0 27 14 19 14 19
14 -2 0 -17 6 -22 28 -22 21 -1 23 -3 12 -10 -9 -5 -15 -20 -14 -37 1 -15 3
-34 3 -41 1 -10 5 -10 17 2 22 22 25 20 21 -11 -3 -17 -10 -27 -18 -25 -8 1
-6 -4 5 -13 25 -19 37 -10 32 21 -4 21 -2 23 9 14 20 -16 14 14 -8 38 -9 10
-14 22 -10 25 13 13 61 7 67 -9 3 -8 10 -13 15 -10 5 3 11 -3 14 -14 3 -11 0
-23 -6 -27 -7 -4 -3 -9 9 -14 17 -7 17 -8 -3 -8 -14 -1 -23 -7 -23 -17 0 -12
10 -15 48 -14 65 2 64 3 52 -20 -6 -11 -7 -20 -3 -19 22 4 44 -2 39 -10 -12
-18 24 -34 65 -28 29 4 42 1 45 -8 3 -8 12 -11 20 -8 9 3 14 -2 14 -17 0 -13
-4 -19 -12 -14 -7 5 -8 3 -4 -5 5 -7 14 -10 22 -7 8 3 14 1 14 -5 0 -6 5 -7
10 -4 6 3 10 0 10 -7 0 -8 13 -15 32 -16 40 -3 59 -19 38 -32 -8 -5 -17 -7
-20 -5 -4 2 -7 -2 -7 -10 0 -8 3 -13 5 -10 3 3 13 -2 23 -11 17 -15 18 -15 13
10 -6 36 17 34 39 -4 10 -16 22 -30 28 -30 5 0 9 -6 9 -13 0 -8 11 -19 25 -25
14 -6 25 -19 25 -27 0 -10 7 -15 18 -14 34 3 53 -1 47 -11 -3 -5 3 -10 14 -10
22 0 81 -31 81 -43 0 -5 5 -5 10 -2 6 3 16 3 23 -2 6 -4 23 -9 37 -11 14 -1
41 -10 60 -19 32 -15 85 -20 247 -26 29 -1 53 -5 53 -8 0 -11 48 -17 62 -8 7
4 15 3 19 -3 4 -7 13 -7 28 1 14 8 27 9 40 2 14 -8 22 -7 31 4 6 7 21 11 33 9
12 -3 39 -5 60 -5 28 1 36 -3 31 -12 -4 -7 -3 -9 2 -4 5 5 9 14 9 20 0 7 13
11 32 10 18 -2 35 2 38 7 3 6 32 10 65 10 65 0 84 18 47 44 -19 13 -20 17 -7
25 21 15 27 14 33 -9 6 -25 25 -26 34 -2 8 22 23 32 48 32 14 0 21 7 21 20 0
11 -4 20 -9 20 -4 0 -7 12 -5 27 4 37 56 50 76 18 12 -18 12 -17 7 12 -7 35 6
50 25 28 12 -15 40 -10 40 7 0 6 8 17 18 24 15 12 15 13 0 14 -9 0 -18 -6 -21
-12 -4 -10 -7 -10 -18 0 -11 11 -10 14 9 18 13 4 22 14 22 25 0 11 3 19 8 20
34 3 50 12 73 41 15 18 25 36 23 40 -3 5 4 8 15 8 12 0 21 6 21 13 0 8 11 19
25 25 30 14 32 32 5 39 -24 6 -26 31 -4 40 10 4 20 0 26 -10 5 -10 16 -17 23
-17 22 0 18 31 -5 37 -32 8 -23 20 20 27 39 6 39 6 25 34 -8 15 -16 35 -19 45
-4 13 -12 16 -33 11 -16 -4 -34 -11 -40 -17 -9 -6 -13 -5 -13 4 0 11 -2 11
-10 -1 -5 -8 -6 -26 -3 -40 6 -25 6 -25 -15 -7 -16 14 -25 16 -40 8 -10 -5
-29 -7 -41 -4 -12 3 -21 2 -20 -3 7 -41 -17 -58 -41 -29 -17 21 -37 19 -43 -5
-6 -25 -46 -41 -68 -27 -18 11 -53 2 -45 -12 3 -4 -9 -8 -27 -8 -17 0 -59 -8
-92 -17 -33 -10 -80 -22 -105 -27 -25 -4 -67 -13 -95 -19 -194 -40 -558 -48
-710 -15 -38 8 -86 15 -105 15 -33 0 -89 12 -300 65 -90 22 -269 81 -380 125
-76 30 -298 142 -379 191 -40 24 -96 58 -125 74 -29 17 -60 36 -69 43 -9 8
-22 10 -28 6 -7 -4 -9 -3 -6 3 8 12 -29 39 -65 48 -18 5 -25 2 -25 -8 0 -8 5
-13 11 -11 13 5 54 -22 46 -29 -3 -3 -22 0 -43 6 -38 12 -51 42 -22 53 11 4 7
13 -18 35 -33 30 -47 36 -47 19 0 -5 7 -10 16 -10 8 0 12 -4 9 -10 -3 -5 1
-10 11 -10 13 0 14 -3 4 -15 -17 -21 -37 -19 -43 5 -7 28 -47 27 -47 -1 0 -11
-5 -19 -11 -17 -6 2 -10 7 -10 11 1 4 1 14 1 22 0 9 9 15 23 15 20 1 20 2 5
11 -10 5 -18 19 -18 29 0 13 -7 20 -19 20 -11 0 -22 8 -26 18 -6 21 -119 136
-135 138 -5 1 -18 2 -27 4 -11 1 -13 4 -6 6 12 5 7 35 -6 33 -3 -1 -15 -4 -25
-6z m18 -152 c3 -4 17 -6 31 -3 15 2 25 0 25 -7 0 -7 -4 -10 -8 -7 -5 3 -9 -7
-10 -23 0 -25 4 -29 35 -34 19 -4 43 -1 53 6 24 14 34 5 26 -26 -6 -25 -37
-41 -53 -27 -4 4 -20 10 -35 14 -24 5 -28 3 -28 -15 0 -17 -3 -19 -13 -10 -8
6 -16 8 -19 5 -3 -3 -9 0 -13 6 -3 6 -3 10 2 9 33 -6 48 26 18 37 -8 4 -15 15
-15 25 0 10 -6 19 -14 19 -18 0 -29 16 -21 30 8 12 32 13 39 1z m110 3 c12 -5
14 -10 6 -19 -13 -16 -50 -8 -50 11 0 15 18 18 44 8z m56 -28 c0 -3 -4 -8 -10
-11 -5 -3 -10 -1 -10 4 0 6 5 11 10 11 6 0 10 -2 10 -4z m22 -130 c4 3 8 -7 8
-21 0 -20 4 -26 14 -22 10 4 13 1 10 -8 -7 -16 -33 -13 -45 6 -8 12 -10 12
-18 0 -8 -12 -13 -11 -30 10 -31 37 -27 48 16 39 20 -5 41 -7 45 -4z m-116
-29 c1 -7 -8 -14 -20 -15 -16 -1 -18 1 -6 8 8 5 11 10 7 10 -5 0 -5 5 -2 11 8
12 18 5 21 -14z m204 7 c0 -8 -4 -12 -10 -9 -5 3 -10 10 -10 16 0 5 5 9 10 9
6 0 10 -7 10 -16z m42 -24 c-2 -16 -10 -31 -17 -34 -8 -3 -12 2 -10 12 2 9 4
27 4 39 1 14 6 21 14 17 8 -3 12 -16 9 -34z m140 -40 c5 0 6 5 3 10 -7 12 -3
12 19 4 14 -5 14 -9 4 -22 -11 -13 -10 -14 9 -4 17 9 22 9 27 -3 3 -8 9 -14
13 -13 11 3 103 -51 133 -79 14 -13 30 -23 36 -23 6 0 28 -11 48 -25 20 -14
49 -28 64 -31 15 -4 37 -14 50 -22 18 -12 20 -17 10 -24 -9 -6 -6 -7 8 -4 13
4 33 -2 54 -16 40 -27 47 -43 24 -52 -21 -8 -22 -6 -28 25 -2 13 -5 25 -5 26
-1 2 -16 -6 -34 -16 -21 -12 -39 -15 -52 -10 -18 7 -18 8 5 8 31 2 66 21 37
21 -10 0 -20 7 -23 15 -4 8 -11 15 -16 15 -6 0 -8 -7 -4 -15 5 -13 2 -14 -15
-5 -18 10 -22 8 -32 -19 -10 -26 -12 -28 -23 -13 -10 13 -9 19 5 29 15 12 15
14 -2 24 -14 8 -15 14 -7 24 8 9 8 15 0 20 -5 3 -10 1 -10 -5 0 -6 -10 -8 -23
-5 -19 5 -23 2 -22 -18 0 -13 6 -31 13 -40 10 -12 10 -17 1 -23 -8 -5 -9 -3
-4 6 6 10 1 12 -24 7 -31 -6 -31 -6 -17 15 12 16 13 26 4 42 -14 26 -14 28 9
38 12 5 7 6 -15 4 -17 -2 -30 0 -27 4 8 13 -36 40 -65 40 -16 0 -20 3 -13 8 9
6 7 12 -9 22 -12 8 -28 23 -37 33 -19 21 -61 23 -61 2 0 -8 -5 -15 -11 -15 -6
0 -9 8 -7 18 3 11 -1 30 -8 43 -7 13 -13 29 -13 34 0 6 5 0 11 -12 6 -13 15
-23 20 -23z m-72 -11 c0 -18 -2 -19 -15 -9 -8 7 -15 16 -15 21 0 5 7 9 15 9 9
0 15 -9 15 -21z m-110 -12 c0 -19 -5 -22 -27 -21 -16 1 -29 3 -30 3 -2 1 5 10
15 20 23 26 42 26 42 -2z m-123 -22 c0 -8 -4 -12 -9 -9 -5 3 -6 10 -3 15 9 13
12 11 12 -6z m45 -54 c2 -17 1 -28 -4 -25 -4 3 -8 12 -8 20 0 8 -8 14 -17 15
-15 0 -15 2 2 9 11 5 21 9 21 9 1 1 4 -12 6 -28z m118 9 c0 -13 7 -20 20 -20
13 0 20 7 20 20 0 24 17 26 46 5 12 -8 24 -11 28 -8 3 3 7 -1 7 -10 1 -9 2
-25 3 -34 2 -28 -32 -28 -36 -1 -4 31 -48 39 -48 9 0 -27 -16 -27 -32 -1 -7
11 -21 20 -30 20 -18 0 -24 20 -11 33 13 14 33 6 33 -13z m240 0 c0 -5 -2 -10
-4 -10 -3 0 -8 5 -11 10 -3 6 -1 10 4 10 6 0 11 -4 11 -10z m37 -62 c-3 -8 -6
-5 -6 6 -1 11 2 17 5 13 3 -3 4 -12 1 -19z m23 -28 c-20 -13 -30 -12 -30 1 0
5 4 8 9 4 5 -3 13 0 16 6 4 5 10 8 13 4 4 -3 0 -10 -8 -15z m-180 -26 c0 -13
-25 -26 -33 -17 -3 3 -3 11 -1 17 6 16 34 16 34 0z m160 -4 c0 -5 -4 -10 -10
-10 -5 0 -10 5 -10 10 0 6 5 10 10 10 6 0 10 -4 10 -10z m48 -32 c19 -19 14
-28 -12 -28 -29 0 -44 19 -25 31 18 12 23 11 37 -3z m-128 -19 c0 -14 -27 -10
-33 5 -4 10 0 12 14 9 10 -3 19 -9 19 -14z m240 -25 c0 -8 -4 -12 -10 -9 -5 3
-10 10 -10 16 0 5 5 9 10 9 6 0 10 -7 10 -16z m-263 -9 c0 -8 -4 -12 -9 -9 -5
3 -6 10 -3 15 9 13 12 11 12 -6z m304 -30 c-1 -15 -24 -12 -29 3 -3 9 2 13 12
10 10 -1 17 -7 17 -13z m39 -1 c0 -8 -5 -12 -10 -9 -6 4 -8 11 -5 16 9 14 15
11 15 -7z m-130 -19 c11 -13 10 -14 -4 -9 -9 3 -16 10 -16 15 0 13 6 11 20 -6z
m46 -22 c-10 -10 -19 5 -10 18 6 11 8 11 12 0 2 -7 1 -15 -2 -18z m100 9 c-3
-2 1 -20 9 -38 12 -30 12 -34 -2 -34 -9 0 -13 6 -10 15 4 8 2 17 -4 20 -5 4
-6 12 -2 18 4 7 -1 6 -11 -2 -15 -13 -19 -13 -26 -1 -12 20 -5 28 25 28 14 0
24 -3 21 -6z m1984 -448 c0 -7 -4 -16 -10 -19 -14 -9 -30 3 -24 19 6 16 34 17
34 0z"/>
<path d="M29600 30689 c0 -11 -4 -18 -9 -14 -6 3 -15 -4 -21 -15 -9 -18 -8
-20 15 -20 17 0 24 4 19 12 -4 6 1 17 10 24 10 7 15 17 11 23 -11 18 -25 12
-25 -10z"/>
<path d="M29536 30631 c-4 -7 -5 -15 -2 -18 9 -9 19 4 14 18 -4 11 -6 11 -12
0z"/>
<path d="M29596 30575 c7 -17 34 -21 34 -4 0 5 5 7 12 3 7 -4 8 -3 4 4 -11 18
-57 15 -50 -3z"/>
<path d="M27853 30553 c14 -45 57 -138 76 -164 22 -30 27 -49 12 -49 -21 0
-22 -41 -3 -68 19 -25 112 -215 112 -227 0 -10 36 -91 68 -154 17 -35 32 -71
32 -80 0 -10 5 -22 11 -28 6 -6 13 -26 16 -44 2 -19 13 -43 24 -55 23 -24 24
-40 4 -47 -12 -5 -12 -12 -3 -39 13 -37 9 -31 81 -118 29 -36 62 -80 72 -97
11 -18 22 -33 26 -33 4 0 25 -24 47 -52 49 -64 177 -195 364 -373 72 -68 132
-116 186 -150 34 -21 62 -41 62 -45 0 -9 125 -100 182 -132 27 -15 62 -36 77
-48 16 -11 32 -20 36 -20 9 0 75 -29 95 -41 8 -5 44 -23 80 -40 36 -17 76 -37
90 -44 49 -25 195 -79 213 -77 10 0 20 -5 23 -13 3 -8 12 -11 20 -8 7 3 27 1
42 -5 19 -6 35 -6 47 0 12 7 16 7 11 0 -3 -5 1 -12 9 -16 8 -3 17 -1 20 4 3 5
11 7 18 5 41 -14 93 -12 110 3 20 18 47 25 47 11 0 -4 7 -6 15 -3 8 4 13 10
10 14 -3 4 2 11 11 14 25 10 84 7 84 -4 0 -5 24 -10 53 -10 50 -1 130 -17 153
-32 12 -8 210 -22 249 -19 11 1 50 2 87 1 43 -1 77 4 97 14 16 9 38 16 48 15
10 0 13 -3 6 -6 -23 -9 -14 -20 12 -15 14 2 25 0 25 -5 0 -17 30 -10 36 9 3
10 10 16 15 13 5 -3 6 1 3 9 -6 15 6 21 29 17 5 -1 5 4 1 10 -5 9 -2 10 11 5
18 -7 18 -6 0 14 -18 20 -18 21 0 38 10 9 15 12 12 6 -9 -16 19 -39 28 -24 3
6 11 8 16 5 5 -4 9 5 9 19 0 14 5 28 11 32 8 5 6 10 -5 16 -18 10 -22 38 -4
38 6 0 9 3 5 6 -3 4 1 14 10 22 13 13 13 17 2 21 -15 5 -40 27 -39 36 1 26 -1
35 -9 30 -5 -3 -12 -1 -16 5 -8 13 19 52 31 42 4 -4 2 1 -5 10 -17 23 -7 36
24 30 26 -5 32 8 19 42 -9 24 -24 19 -21 -6 1 -17 -3 -22 -20 -21 -39 1 -41 3
-48 24 -5 15 -10 17 -20 9 -7 -6 -23 -13 -35 -15 -17 -3 -21 0 -18 18 2 18 10
22 43 24 32 2 122 8 170 12 13 1 -13 26 -28 26 -7 1 -15 -4 -19 -9 -5 -7 -18
-6 -41 2 -18 7 -49 12 -67 12 -34 0 -210 27 -370 56 -274 50 -648 169 -1005
319 -60 26 -137 57 -171 70 -59 22 -82 32 -269 118 -112 51 -341 181 -460 260
-96 65 -172 123 -302 233 -45 38 -124 105 -177 148 -222 183 -401 390 -461
534 -15 33 -31 45 -22 15z m142 -245 c0 -27 -15 -26 -33 0 -15 23 -15 24 9 20
15 -2 24 -10 24 -20z m3130 -1638 c3 -6 -4 -10 -17 -10 -18 0 -20 2 -8 10 19
12 18 12 25 0z m-8 -90 c-3 -10 -2 -19 2 -18 17 2 21 -3 9 -16 -19 -20 -38 -8
-38 25 0 20 5 29 16 29 11 0 15 -6 11 -20z"/>
<path d="M29880 30305 c0 -8 7 -15 15 -15 8 0 15 7 15 15 0 8 -7 15 -15 15 -8
0 -15 -7 -15 -15z"/>
<path d="M29760 30255 c0 -8 5 -15 10 -15 6 0 10 7 10 15 0 8 -4 15 -10 15 -5
0 -10 -7 -10 -15z"/>
<path d="M29736 30232 c-3 -6 -1 -14 5 -17 15 -10 25 3 12 16 -7 7 -13 7 -17
1z"/>
<path d="M29908 30192 c-25 -5 -10 -32 18 -32 17 0 24 6 24 18 0 18 -9 21 -42
14z"/>
<path d="M30000 30100 c0 -11 7 -20 15 -20 8 0 15 9 15 20 0 11 -7 20 -15 20
-8 0 -15 -9 -15 -20z"/>
<path d="M29890 30065 c0 -8 5 -15 10 -15 6 0 10 7 10 15 0 8 -4 15 -10 15 -5
0 -10 -7 -10 -15z"/>
<path d="M30082 30058 c5 -34 38 -37 38 -4 0 20 -5 26 -21 26 -15 0 -20 -5
-17 -22z"/>
<path d="M29975 30060 c3 -5 8 -10 11 -10 2 0 4 5 4 10 0 6 -5 10 -11 10 -5 0
-7 -4 -4 -10z"/>
<path d="M30156 30034 c-10 -27 -7 -34 19 -34 20 0 25 5 25 25 0 29 -34 36
-44 9z"/>
<path d="M30160 29940 c0 -5 11 -9 24 -8 14 1 22 6 20 10 -7 12 -44 10 -44 -2z"/>
<path d="M30130 29905 c0 -8 5 -15 10 -15 6 0 10 7 10 15 0 8 -4 15 -10 15 -5
0 -10 -7 -10 -15z"/>
<path d="M30210 29904 c0 -14 3 -14 15 -4 8 7 15 14 15 16 0 2 -7 4 -15 4 -8
0 -15 -7 -15 -16z"/>
<path d="M30721 29892 c1 -15 3 -20 6 -11 3 11 11 15 23 12 11 -3 18 -9 15
-13 -3 -5 -1 -11 4 -14 5 -4 9 7 9 22 -1 25 -5 29 -29 30 -25 1 -29 -3 -28
-26z"/>
<path d="M32943 29798 c-3 -7 -1 -8 5 -4 8 5 12 0 12 -13 0 -12 7 -21 15 -21
22 0 18 37 -5 43 -11 3 -23 0 -27 -5z"/>
<path d="M31170 29765 c-7 -8 -10 -22 -6 -30 6 -17 36 -21 36 -4 0 6 -6 9 -14
6 -18 -7 -14 22 5 34 8 5 9 9 3 9 -6 0 -17 -7 -24 -15z"/>
<path d="M32846 29633 c-11 -11 -6 -23 8 -23 8 0 17 4 20 9 7 10 -19 23 -28
14z"/>
<path d="M32717 29601 c-17 -6 -17 -8 3 -26 15 -13 23 -16 32 -7 15 15 -12 41
-35 33z"/>
<path d="M31205 28739 c-3 -4 2 -6 10 -5 21 3 28 13 10 13 -9 0 -18 -4 -20 -8z"/>
<path d="M31170 28626 c0 -9 7 -16 16 -16 9 0 14 5 12 12 -6 18 -28 21 -28 4z"/>
<path d="M31180 28384 c0 -8 5 -12 10 -9 6 4 8 11 5 16 -9 14 -15 11 -15 -7z"/>
<path d="M30918 28263 c7 -3 16 -2 19 1 4 3 -2 6 -13 5 -11 0 -14 -3 -6 -6z"/>
<path d="M23370 30460 c8 -5 20 -10 25 -10 6 0 3 5 -5 10 -8 5 -19 10 -25 10
-5 0 -3 -5 5 -10z"/>
<path d="M23450 30391 c0 -5 5 -13 10 -16 6 -3 10 -2 10 4 0 5 -4 13 -10 16
-5 3 -10 2 -10 -4z"/>
<path d="M17128 26923 c7 -3 16 -2 19 1 4 3 -2 6 -13 5 -11 0 -14 -3 -6 -6z"/>
<path d="M17360 25787 c0 -7 -10 -17 -22 -22 -13 -6 -23 -17 -23 -25 0 -8 10
-16 23 -18 18 -3 22 1 22 22 0 19 5 26 20 26 24 0 27 15 4 24 -22 8 -24 8 -24
-7z"/>
<path d="M18465 25740 c-4 -12 -5 -24 -2 -27 3 -2 8 5 12 17 4 12 5 24 2 27
-3 2 -8 -5 -12 -17z"/>
<path d="M17066 25599 c4 -19 13 -39 21 -46 8 -6 16 -17 17 -25 9 -41 36 -67
36 -33 0 8 -6 15 -13 15 -14 0 -17 12 -19 63 0 15 -3 25 -6 22 -3 -2 -13 5
-24 17 -18 21 -18 21 -12 -13z"/>
<path d="M19040 26026 c0 -33 33 -167 59 -238 12 -32 21 -66 21 -77 0 -10 6
-41 14 -67 8 -27 19 -70 25 -96 12 -54 88 -218 101 -218 4 0 -3 30 -17 68 -49
134 -104 334 -123 447 -16 98 -51 205 -67 205 -7 0 -13 -11 -13 -24z"/>
<path d="M18660 25769 c0 -16 -75 -215 -99 -266 -12 -23 -21 -50 -21 -60 0
-10 -14 -40 -30 -68 -16 -27 -40 -73 -54 -102 -14 -28 -32 -58 -38 -65 -7 -8
-48 -50 -90 -95 -43 -44 -78 -86 -78 -93 0 -8 12 -10 42 -5 55 10 98 35 124
73 22 32 116 112 132 112 5 0 19 9 31 19 22 19 23 19 42 0 10 -10 28 -19 39
-19 11 0 20 -6 20 -14 0 -21 21 -31 31 -15 6 9 3 18 -9 27 -16 12 -15 15 11
33 15 12 27 27 27 34 0 7 6 15 13 18 9 3 9 8 -2 21 -8 9 -20 15 -28 12 -8 -4
-17 4 -23 19 -6 16 -17 25 -30 25 -23 0 -41 31 -22 38 7 2 12 13 12 24 0 11
-5 18 -12 15 -7 -2 -12 -10 -10 -16 1 -6 -5 -11 -13 -11 -8 0 -15 4 -15 9 0 5
7 14 15 21 8 7 15 17 15 23 0 6 8 19 17 29 15 17 15 19 -2 32 -15 11 -16 18
-7 44 6 16 9 32 6 34 -2 3 3 39 11 82 18 92 18 96 5 96 -5 0 -10 -5 -10 -11z"/>
<path d="M17245 25230 c-3 -5 -4 -10 -1 -10 2 0 11 -2 19 -5 8 -4 14 0 14 10
0 17 -22 21 -32 5z"/>
<path d="M18588 25113 c7 -3 16 -2 19 1 4 3 -2 6 -13 5 -11 0 -14 -3 -6 -6z"/>
<path d="M18697 24919 c-61 -24 -81 -43 -64 -57 26 -22 132 -54 174 -54 81 2
84 13 19 76 -31 31 -62 56 -69 55 -7 0 -34 -9 -60 -20z"/>
<path d="M17616 24627 c3 -10 9 -15 12 -12 3 3 0 11 -7 18 -10 9 -11 8 -5 -6z"/>
<path d="M17695 24543 c28 -27 102 -84 163 -128 135 -95 170 -125 186 -156 6
-12 18 -23 26 -25 8 -2 41 -7 72 -13 31 -5 66 -15 77 -20 11 -6 27 -8 36 -5 9
4 30 -1 48 -9 57 -29 163 -67 186 -67 12 0 36 -7 53 -16 17 -9 41 -13 53 -10
13 3 61 -3 107 -14 65 -15 118 -20 240 -20 151 0 157 -1 172 -22 15 -22 17
-22 45 -5 16 9 35 17 43 17 21 0 110 66 123 90 7 12 40 44 75 71 44 34 58 49
44 49 -11 0 -28 -6 -39 -14 -11 -7 -33 -16 -50 -19 -28 -4 -87 -18 -205 -47
-25 -6 -59 -24 -76 -41 l-31 -30 -114 11 c-124 11 -249 43 -290 73 -17 12 -51
21 -93 24 -65 6 -84 16 -48 27 46 15 -6 56 -70 56 -10 0 -18 4 -18 8 0 4 -17
9 -37 10 -20 2 -42 7 -48 11 -5 5 -46 11 -89 15 -44 4 -94 13 -113 21 -18 8
-40 12 -48 9 -7 -3 -39 8 -69 25 -31 17 -56 27 -56 23 0 -4 -5 1 -10 10 -6 9
-23 19 -39 23 -16 3 -43 17 -62 31 -18 13 -41 24 -51 24 -10 0 -18 4 -18 8 0
9 -69 51 -105 65 -11 4 3 -14 30 -40z"/>
<path d="M18540 24262 c0 -6 17 -14 38 -17 20 -3 45 -10 54 -16 25 -13 50 -11
46 3 -7 20 -138 48 -138 30z"/>
<path d="M18721 24218 c23 -20 89 -25 89 -7 0 5 -4 8 -9 5 -5 -3 -14 1 -21 9
-7 9 -26 14 -47 12 -34 -2 -34 -2 -12 -19z"/>
<path d="M17120 24054 c0 -8 5 -12 10 -9 6 4 8 11 5 16 -9 14 -15 11 -15 -7z"/>
<path d="M17125 22949 c-12 -19 5 -23 22 -6 16 16 16 17 1 17 -9 0 -20 -5 -23
-11z"/>
<path d="M16720 22427 c0 -19 16 -31 24 -18 3 5 -1 14 -9 21 -12 10 -15 10
-15 -3z"/>
<path d="M16055 21580 c3 -5 14 -10 23 -10 15 0 15 2 2 10 -20 13 -33 13 -25
0z"/>
<path d="M16095 21550 c3 -5 11 -10 16 -10 6 0 7 5 4 10 -3 6 -11 10 -16 10
-6 0 -7 -4 -4 -10z"/>
<path d="M16340 21476 c0 -2 8 -10 18 -17 15 -13 16 -12 3 4 -13 16 -21 21
-21 13z"/>
<path d="M17076 20908 c21 -28 75 -70 82 -63 4 4 -41 46 -82 74 -20 15 -20 15
0 -11z"/>
<path d="M17910 18300 c0 -11 7 -20 15 -20 13 0 14 4 5 20 -6 11 -13 20 -15
20 -3 0 -5 -9 -5 -20z"/>
<path d="M17926 18163 c8 -32 12 -39 19 -31 9 8 -6 58 -16 58 -5 0 -6 -12 -3
-27z"/>
<path d="M17900 17860 c0 -5 5 -10 10 -10 6 0 10 5 10 10 0 6 -4 10 -10 10 -5
0 -10 -4 -10 -10z"/>
<path d="M17757 17764 c-9 -9 5 -45 17 -41 17 6 19 34 2 40 -8 3 -16 3 -19 1z"/>
<path d="M22800 25149 c0 -5 -4 -7 -10 -4 -6 3 -10 -4 -10 -17 1 -22 1 -22 15
-4 15 20 19 36 10 36 -3 0 -5 -5 -5 -11z"/>
<path d="M22805 25050 c-3 -5 -1 -10 4 -10 6 0 11 5 11 10 0 6 -2 10 -4 10 -3
0 -8 -4 -11 -10z"/>
<path d="M22650 24860 c-8 -5 -12 -11 -9 -14 2 -3 11 -1 19 4 8 5 12 11 9 14
-2 3 -11 1 -19 -4z"/>
<path d="M22637 24743 c-12 -11 -8 -23 8 -23 8 0 15 7 15 15 0 16 -12 20 -23
8z"/>
<path d="M25885 16240 c-3 -5 -1 -10 4 -10 6 0 11 5 11 10 0 6 -2 10 -4 10 -3
0 -8 -4 -11 -10z"/>
<path d="M21120 16124 c0 -8 5 -12 10 -9 6 4 8 11 5 16 -9 14 -15 11 -15 -7z"/>
<path d="M24488 15973 c7 -3 16 -2 19 1 4 3 -2 6 -13 5 -11 0 -14 -3 -6 -6z"/>
<path d="M24549 15972 c24 -8 9 -18 -20 -14 -24 3 -30 1 -24 -8 5 -8 21 -10
49 -6 22 3 67 6 99 8 31 1 57 5 57 10 0 9 -7 10 -103 12 -38 1 -64 0 -58 -2z"/>
<path d="M27600 15179 c0 -24 23 -21 28 4 2 10 -3 17 -12 17 -10 0 -16 -9 -16
-21z"/>
<path d="M27840 14660 c0 -5 7 -10 16 -10 8 0 12 5 9 10 -3 6 -10 10 -16 10
-5 0 -9 -4 -9 -10z"/>
<path d="M26990 11501 c0 -6 18 -30 40 -53 l40 -42 -17 37 c-10 20 -20 37 -24
37 -4 0 -15 7 -23 16 -9 8 -16 11 -16 5z"/>
<path d="M19280 21950 c0 -5 5 -10 10 -10 6 0 10 5 10 10 0 6 -4 10 -10 10 -5
0 -10 -4 -10 -10z"/>
<path d="M19011 20254 c0 -11 3 -14 6 -6 3 7 2 16 -1 19 -3 4 -6 -2 -5 -13z"/>
<path d="M18960 20054 c0 -14 4 -23 10 -19 6 3 10 15 10 26 0 10 -4 19 -10 19
-5 0 -10 -12 -10 -26z"/>
<path d="M16485 20110 c3 -5 13 -10 21 -10 8 0 14 5 14 10 0 6 -9 10 -21 10
-11 0 -17 -4 -14 -10z"/>
<path d="M16402 20098 c6 -18 28 -21 28 -4 0 9 -7 16 -16 16 -9 0 -14 -5 -12
-12z"/>
<path d="M16130 20024 c0 -8 5 -12 10 -9 6 4 8 11 5 16 -9 14 -15 11 -15 -7z"/>
<path d="M16010 19985 c-14 -16 -3 -20 19 -6 8 5 9 11 3 15 -5 3 -15 -1 -22
-9z"/>
<path d="M15965 19920 c-3 -5 -12 -7 -20 -4 -14 6 -33 -21 -22 -32 7 -7 45 18
51 33 6 15 0 17 -9 3z"/>
<path d="M15890 19740 c0 -5 5 -10 11 -10 5 0 7 5 4 10 -3 6 -8 10 -11 10 -2
0 -4 -4 -4 -10z"/>
<path d="M15955 19610 c-3 -5 -1 -10 4 -10 6 0 11 5 11 10 0 6 -2 10 -4 10 -3
0 -8 -4 -11 -10z"/>
<path d="M15933 19533 c0 -7 4 -13 8 -13 4 0 9 6 12 13 3 8 0 14 -7 14 -7 0
-13 -6 -13 -14z"/>
<path d="M16166 19223 c5 -5 12 -12 16 -18 4 -6 8 -2 8 8 0 9 -7 17 -17 17 -9
0 -12 -3 -7 -7z"/>
<path d="M16370 19055 c0 -8 2 -15 4 -15 2 0 6 7 10 15 3 8 1 15 -4 15 -6 0
-10 -7 -10 -15z"/>
<path d="M16330 18951 c0 -6 5 -13 10 -16 6 -3 10 1 10 9 0 9 -4 16 -10 16 -5
0 -10 -4 -10 -9z"/>
<path d="M16481 18678 c0 -14 -7 -29 -13 -31 -10 -4 -10 -6 0 -6 16 -1 25 22
19 46 -3 12 -5 9 -6 -9z"/>
<path d="M16800 18210 c0 -5 4 -10 9 -10 6 0 13 5 16 10 3 6 -1 10 -9 10 -9 0
-16 -4 -16 -10z"/>
<path d="M17040 18050 c0 -5 4 -10 9 -10 6 0 13 5 16 10 3 6 -1 10 -9 10 -9 0
-16 -4 -16 -10z"/>
<path d="M17405 17930 c-3 -5 1 -10 9 -10 9 0 16 5 16 10 0 6 -4 10 -9 10 -6
0 -13 -4 -16 -10z"/>
<path d="M31808 14903 c6 -2 18 -2 25 0 6 3 1 5 -13 5 -14 0 -19 -2 -12 -5z"/>
<path d="M33280 14690 c0 -5 5 -10 11 -10 5 0 7 5 4 10 -3 6 -8 10 -11 10 -2
0 -4 -4 -4 -10z"/>
<path d="M33153 14660 c-28 -11 -30 -20 -4 -20 10 0 21 7 25 15 3 8 4 15 3 14
-1 0 -12 -4 -24 -9z"/>
<path d="M32320 14604 c0 -8 5 -12 10 -9 6 3 10 10 10 16 0 5 -4 9 -10 9 -5 0
-10 -7 -10 -16z"/>
</g>
</svg>
